<svg width="103" height="156" viewBox="0 0 103 156" fill="none" xmlns="http://www.w3.org/2000/svg">
<rect x="0.146729" width="102.573" height="154.907" rx="30" fill="white" fill-opacity="0.05"/>
<mask id="mask0_109_152" style="mask-type:alpha" maskUnits="userSpaceOnUse" x="0" y="1" width="103" height="155">
<rect x="0.146729" y="1.04669" width="102.573" height="154.907" rx="30" fill="white"/>
</mask>
<g mask="url(#mask0_109_152)">
<path d="M78.6468 -8.01994C90.0693 -7.57206 102.72 -1.63993 102.72 -1.63993V20.0209V123.337H0.146774V20.0209V-1.63993C0.146774 -1.63993 12.9317 3.59421 25.2668 4.01672C43.9671 4.65726 59.9498 -8.75305 78.6468 -8.01994Z" fill="#1E5BB7"/>
<path d="M24.1735 -11.9727C12.7034 -11.5511 0 -5.9675 0 -5.9675V14.4208V156H103V14.4208V-5.9675C103 -5.9675 90.1619 -1.04085 77.7755 -0.643164C58.9974 -0.0402594 42.9482 -12.6627 24.1735 -11.9727Z" fill="#3988FF"/>
</g>
<path d="M47.9527 113.5H46.6317C46.5536 113.12 46.4168 112.786 46.2215 112.499C46.0298 112.211 45.7954 111.969 45.5184 111.774C45.245 111.575 44.9413 111.426 44.6075 111.327C44.2737 111.227 43.9257 111.178 43.5635 111.178C42.903 111.178 42.3046 111.344 41.7684 111.678C41.2357 112.012 40.8114 112.504 40.4953 113.154C40.1828 113.804 40.0266 114.601 40.0266 115.545C40.0266 116.49 40.1828 117.287 40.4953 117.937C40.8114 118.587 41.2357 119.079 41.7684 119.413C42.3046 119.746 42.903 119.913 43.5635 119.913C43.9257 119.913 44.2737 119.864 44.6075 119.764C44.9413 119.665 45.245 119.517 45.5184 119.322C45.7954 119.123 46.0298 118.88 46.2215 118.592C46.4168 118.301 46.5536 117.967 46.6317 117.591H47.9527C47.8533 118.148 47.6722 118.647 47.4094 119.088C47.1466 119.528 46.8199 119.903 46.4293 120.212C46.0386 120.517 45.6001 120.75 45.1136 120.909C44.6306 121.069 44.1139 121.149 43.5635 121.149C42.6331 121.149 41.8057 120.922 41.0813 120.467C40.3568 120.013 39.7869 119.366 39.3714 118.528C38.9559 117.69 38.7482 116.696 38.7482 115.545C38.7482 114.395 38.9559 113.401 39.3714 112.562C39.7869 111.724 40.3568 111.078 41.0813 110.624C41.8057 110.169 42.6331 109.942 43.5635 109.942C44.1139 109.942 44.6306 110.022 45.1136 110.181C45.6001 110.341 46.0386 110.576 46.4293 110.885C46.8199 111.19 47.1466 111.563 47.4094 112.003C47.6722 112.44 47.8533 112.939 47.9527 113.5ZM55.7124 114.651L54.5831 114.97C54.5121 114.782 54.4073 114.599 54.2688 114.422C54.1339 114.24 53.9492 114.091 53.7149 113.974C53.4805 113.857 53.1804 113.798 52.8147 113.798C52.3139 113.798 51.8967 113.914 51.5629 114.145C51.2326 114.372 51.0675 114.661 51.0675 115.013C51.0675 115.325 51.1811 115.572 51.4084 115.753C51.6357 115.934 51.9908 116.085 52.4737 116.206L53.6882 116.504C54.4198 116.682 54.9649 116.953 55.3235 117.319C55.6822 117.681 55.8615 118.148 55.8615 118.72C55.8615 119.189 55.7266 119.608 55.4567 119.977C55.1904 120.347 54.8175 120.638 54.3381 120.851C53.8587 121.064 53.3012 121.17 52.6655 121.17C51.831 121.17 51.1403 120.989 50.5934 120.627C50.0465 120.265 49.7003 119.736 49.5547 119.04L50.7479 118.741C50.8615 119.182 51.0764 119.512 51.3924 119.732C51.712 119.952 52.1293 120.062 52.6442 120.062C53.2301 120.062 53.6953 119.938 54.0398 119.69C54.3878 119.437 54.5618 119.136 54.5618 118.784C54.5618 118.5 54.4624 118.262 54.2635 118.07C54.0647 117.875 53.7593 117.729 53.3473 117.634L51.9837 117.314C51.2344 117.136 50.684 116.861 50.3324 116.488C49.9844 116.112 49.8104 115.641 49.8104 115.077C49.8104 114.615 49.94 114.207 50.1992 113.852C50.462 113.496 50.8189 113.218 51.2699 113.015C51.7245 112.813 52.2394 112.712 52.8147 112.712C53.6243 112.712 54.26 112.889 54.7216 113.244C55.1868 113.599 55.5171 114.068 55.7124 114.651ZM63.5493 114.651L62.42 114.97C62.349 114.782 62.2443 114.599 62.1058 114.422C61.9708 114.24 61.7862 114.091 61.5518 113.974C61.3174 113.857 61.0173 113.798 60.6516 113.798C60.1509 113.798 59.7336 113.914 59.3998 114.145C59.0695 114.372 58.9044 114.661 58.9044 115.013C58.9044 115.325 59.018 115.572 59.2453 115.753C59.4726 115.934 59.8277 116.085 60.3107 116.206L61.5251 116.504C62.2567 116.682 62.8018 116.953 63.1604 117.319C63.5191 117.681 63.6984 118.148 63.6984 118.72C63.6984 119.189 63.5635 119.608 63.2936 119.977C63.0273 120.347 62.6544 120.638 62.175 120.851C61.6956 121.064 61.1381 121.17 60.5024 121.17C59.6679 121.17 58.9772 120.989 58.4303 120.627C57.8835 120.265 57.5372 119.736 57.3916 119.04L58.5848 118.741C58.6984 119.182 58.9133 119.512 59.2293 119.732C59.5489 119.952 59.9662 120.062 60.4811 120.062C61.0671 120.062 61.5322 119.938 61.8767 119.69C62.2247 119.437 62.3987 119.136 62.3987 118.784C62.3987 118.5 62.2993 118.262 62.1004 118.07C61.9016 117.875 61.5962 117.729 61.1842 117.634L59.8206 117.314C59.0713 117.136 58.5209 116.861 58.1693 116.488C57.8213 116.112 57.6473 115.641 57.6473 115.077C57.6473 114.615 57.7769 114.207 58.0362 113.852C58.2989 113.496 58.6558 113.218 59.1068 113.015C59.5614 112.813 60.0763 112.712 60.6516 112.712C61.4612 112.712 62.0969 112.889 62.5585 113.244C63.0237 113.599 63.354 114.068 63.5493 114.651ZM37.7487 139L42.628 129.348V129.263H37.003V128.091H43.9916V129.327L39.1337 139H37.7487ZM49.2398 139.149C48.6148 139.149 48.0519 139.025 47.5512 138.776C47.0505 138.528 46.6492 138.187 46.3474 137.754C46.0455 137.32 45.8804 136.827 45.852 136.273H47.1304C47.1801 136.766 47.4038 137.175 47.8016 137.498C48.2028 137.817 48.6822 137.977 49.2398 137.977C49.6872 137.977 50.0849 137.873 50.433 137.663C50.7845 137.453 51.0597 137.166 51.2586 136.8C51.461 136.431 51.5622 136.013 51.5622 135.548C51.5622 135.072 51.4575 134.648 51.2479 134.275C51.042 133.899 50.7579 133.602 50.3957 133.386C50.0334 133.169 49.6197 133.059 49.1545 133.055C48.8207 133.052 48.478 133.103 48.1265 133.21C47.7749 133.313 47.4855 133.446 47.2582 133.609L46.0224 133.46L46.683 128.091H52.3506V129.263H47.7909L47.4074 132.48H47.4713C47.695 132.303 47.9756 132.155 48.3129 132.038C48.6503 131.921 49.0018 131.862 49.3676 131.862C50.0352 131.862 50.63 132.022 51.1521 132.342C51.6776 132.658 52.0896 133.091 52.3879 133.641C52.6897 134.192 52.8406 134.82 52.8406 135.527C52.8406 136.223 52.6844 136.844 52.3719 137.391C52.0629 137.935 51.6368 138.364 51.0935 138.68C50.5501 138.993 49.9322 139.149 49.2398 139.149ZM60.5177 136.955V136.379C60.5177 135.982 60.5994 135.618 60.7628 135.287C60.9297 134.953 61.1711 134.687 61.4872 134.488C61.8068 134.286 62.1939 134.185 62.6484 134.185C63.1101 134.185 63.4971 134.286 63.8096 134.488C64.1221 134.687 64.3583 134.953 64.5181 135.287C64.6779 135.618 64.7578 135.982 64.7578 136.379V136.955C64.7578 137.352 64.6761 137.718 64.5128 138.052C64.353 138.382 64.115 138.648 63.799 138.851C63.4865 139.05 63.103 139.149 62.6484 139.149C62.1868 139.149 61.7979 139.05 61.4819 138.851C61.1658 138.648 60.9261 138.382 60.7628 138.052C60.5994 137.718 60.5177 137.352 60.5177 136.955ZM61.6044 136.379V136.955C61.6044 137.285 61.6825 137.581 61.8388 137.844C61.995 138.103 62.2649 138.233 62.6484 138.233C63.0213 138.233 63.2841 138.103 63.4368 137.844C63.593 137.581 63.6711 137.285 63.6711 136.955V136.379C63.6711 136.049 63.5966 135.754 63.4474 135.495C63.2983 135.232 63.0319 135.101 62.6484 135.101C62.2755 135.101 62.0074 135.232 61.8441 135.495C61.6843 135.754 61.6044 136.049 61.6044 136.379ZM55.0845 130.712V130.136C55.0845 129.739 55.1662 129.375 55.3295 129.044C55.4964 128.711 55.7379 128.444 56.054 128.245C56.3736 128.043 56.7606 127.942 57.2152 127.942C57.6768 127.942 58.0639 128.043 58.3764 128.245C58.6889 128.444 58.925 128.711 59.0848 129.044C59.2447 129.375 59.3246 129.739 59.3246 130.136V130.712C59.3246 131.109 59.2429 131.475 59.0795 131.809C58.9197 132.139 58.6818 132.406 58.3657 132.608C58.0532 132.807 57.6697 132.906 57.2152 132.906C56.7535 132.906 56.3647 132.807 56.0486 132.608C55.7326 132.406 55.4929 132.139 55.3295 131.809C55.1662 131.475 55.0845 131.109 55.0845 130.712ZM56.1711 130.136V130.712C56.1711 131.042 56.2493 131.338 56.4055 131.601C56.5618 131.86 56.8317 131.99 57.2152 131.99C57.588 131.99 57.8508 131.86 58.0035 131.601C58.1598 131.338 58.2379 131.042 58.2379 130.712V130.136C58.2379 129.806 58.1633 129.511 58.0142 129.252C57.865 128.989 57.5987 128.858 57.2152 128.858C56.8423 128.858 56.5742 128.989 56.4108 129.252C56.251 129.511 56.1711 129.806 56.1711 130.136ZM55.4893 139L62.9893 128.091H64.2038L56.7038 139H55.4893Z" fill="white"/>
<path d="M33.9592 46H73.3342L69.753 86.4306L53.6036 91L37.5442 86.4287L33.9592 46ZM66.003 54.2744L41.2905 54.2687L41.6899 59.185L60.6742 59.1888L60.1961 64.2812H47.7461L48.1961 69.1056H59.7874L59.1011 75.7113L53.6449 77.2188L48.1024 75.7L47.7499 71.7437H42.8561L43.3999 78.9719L53.6467 82.165L63.7211 79.2962L66.003 54.2762V54.2744Z" fill="url(#paint0_linear_109_152)"/>
<defs>
<linearGradient id="paint0_linear_109_152" x1="71.5518" y1="44.74" x2="31.2331" y2="87.8977" gradientUnits="userSpaceOnUse">
<stop offset="0.09375" stop-color="white"/>
<stop offset="1" stop-color="white" stop-opacity="0.2"/>
</linearGradient>
</defs>
</svg>
