<svg width="103" height="156" viewBox="0 0 103 156" fill="none" xmlns="http://www.w3.org/2000/svg">
<rect width="102.573" height="154.907" rx="30" fill="white" fill-opacity="0.05"/>
<mask id="mask0_3_663" style="mask-type:alpha" maskUnits="userSpaceOnUse" x="0" y="1" width="103" height="155">
<rect y="1.04669" width="102.573" height="154.907" rx="30" fill="white"/>
</mask>
<g mask="url(#mask0_3_663)">
<path d="M78.5 11.9801C89.9226 12.4279 102.573 18.3601 102.573 18.3601V40.0209V143.337H4.57764e-05V40.0209V18.3601C4.57764e-05 18.3601 12.785 23.5942 25.12 24.0167C43.8204 24.6573 59.8031 11.247 78.5 11.9801Z" fill="#2570E0"/>
<path d="M24.1735 12.0234C12.7034 12.3847 0 17.1707 0 17.1707V34.6464V156H103V34.6464V17.1707C103 17.1707 90.1619 21.3936 77.7755 21.7344C58.9974 22.2512 42.9482 11.4319 24.1735 12.0234Z" fill="#3988FF"/>
</g>
<path d="M29 82.5472V52.4765C29 52.2573 29.0994 52.1471 29.2976 52.1471C29.8253 52.1471 30.4529 52.1392 31.1803 52.1235C31.9069 52.108 32.6917 52.0923 33.5346 52.0766C34.3769 52.0611 35.269 52.0454 36.2107 52.0294C37.1524 52.0139 38.0856 52.006 39.0103 52.0058C41.1631 51.9534 43.3092 52.2559 45.3532 52.9001C46.9033 53.3981 48.317 54.218 49.4915 55.3001C50.4869 56.2381 51.2562 57.3699 51.7464 58.6176C52.2094 59.832 52.4441 61.1143 52.4396 62.4059C52.5332 64.6082 51.8914 66.7824 50.6058 68.6176C49.3758 70.2554 47.6463 71.4955 45.6507 72.1705C43.4266 72.9312 41.0765 73.3058 38.7127 73.2766C37.9855 73.2766 37.4737 73.2687 37.1772 73.2529C36.8797 73.2374 36.4337 73.2295 35.8392 73.2294V82.5C35.8479 82.5575 35.8422 82.6162 35.8229 82.6713C35.8035 82.7264 35.7709 82.7765 35.7276 82.8176C35.6844 82.8586 35.6316 82.8896 35.5736 82.908C35.5156 82.9264 35.4538 82.9317 35.3932 82.9235H29.3473C29.1158 82.9235 29 82.798 29 82.5472ZM35.8392 57.794V67.5351C36.2682 67.5668 36.6645 67.5825 37.0281 67.5823H38.663C39.8625 67.5991 41.0576 67.4404 42.2063 67.1119C43.1883 66.835 44.0659 66.2958 44.7345 65.5587C45.4262 64.6972 45.769 63.6284 45.7004 62.547C45.7266 61.6368 45.4772 60.7385 44.9817 59.9589C44.4609 59.2051 43.7084 58.6218 42.8263 58.2884C41.6744 57.863 40.4439 57.6629 39.2085 57.7C38.4159 57.7 37.714 57.7078 37.1027 57.7235C36.4906 57.7397 36.0694 57.7632 35.8392 57.794Z" fill="url(#paint0_linear_3_663)"/>
<path d="M71.73 65.6528C70.5804 65.2038 69.3836 64.8726 68.1599 64.6647C67.0302 64.4185 65.8752 64.2922 64.7161 64.2881C64.089 64.272 63.4628 64.3434 62.8575 64.4999C62.4722 64.5813 62.1297 64.7898 61.8909 65.0883C61.7297 65.327 61.6439 65.6046 61.6437 65.8882C61.6526 66.1634 61.757 66.4281 61.9406 66.6412C62.2303 66.9627 62.5841 67.2267 62.9818 67.4177C63.6883 67.779 64.4163 68.1011 65.1621 68.3822C66.8251 68.9111 68.4141 69.6301 69.8942 70.5235C70.9025 71.1279 71.7369 71.9607 72.3224 72.947C72.8149 73.881 73.0615 74.9144 73.0411 75.9587C73.071 77.3377 72.6559 78.6925 71.8516 79.841C70.9912 81.0072 69.7957 81.9139 68.4078 82.4528C66.6374 83.1275 64.7395 83.448 62.8327 83.3942C61.4269 83.4077 60.0234 83.2815 58.6453 83.0176C57.496 82.8257 56.3735 82.5099 55.2996 82.0764C55.1913 82.0233 55.1011 81.9419 55.0397 81.8419C54.9783 81.7419 54.9483 81.6273 54.953 81.5116V76.4294C54.9471 76.3796 54.9555 76.3292 54.9774 76.2836C54.9993 76.238 55.0338 76.1989 55.0773 76.1705C55.1198 76.1477 55.1686 76.1378 55.2172 76.142C55.2658 76.1462 55.3118 76.1644 55.3493 76.1941C56.605 76.8592 57.9581 77.3429 59.364 77.6293C60.5476 77.9111 61.7617 78.0611 62.9818 78.0764C63.8556 78.128 64.73 77.9829 65.5336 77.6529C65.7799 77.5459 65.9882 77.3734 66.1333 77.1562C66.2784 76.9391 66.354 76.6866 66.351 76.4295C66.3301 76.1925 66.2522 75.9632 66.1234 75.7593C65.9946 75.5554 65.8184 75.3822 65.6081 75.253C64.6705 74.6695 63.6533 74.2104 62.5848 73.8883C61.0289 73.3739 59.5536 72.6615 58.1993 71.7706C57.2305 71.1312 56.4329 70.2851 55.8705 69.3002C55.3826 68.373 55.1359 67.3482 55.1511 66.3118C55.1485 65.0667 55.5089 63.8452 56.1923 62.7825C56.9713 61.6121 58.0901 60.6805 59.4138 60.0999C60.9505 59.3021 62.6773 58.8928 64.4285 58.9114C65.8213 58.8423 67.2173 58.8616 68.6073 58.9691C69.7381 59.1876 70.8368 59.5358 71.8792 60.0058C71.9465 60.0241 72.0084 60.057 72.0599 60.102C72.1114 60.147 72.1512 60.2027 72.1761 60.2648C72.2097 60.3796 72.2264 60.4983 72.2258 60.6175V65.3705C72.2293 65.4258 72.2173 65.481 72.1913 65.5305C72.1652 65.58 72.126 65.6222 72.0774 65.6528C72.0254 65.684 71.9652 65.7006 71.9037 65.7006C71.8422 65.7006 71.782 65.684 71.73 65.6528Z" fill="url(#paint1_linear_3_663)"/>
<path d="M14.1032 121V110.091H17.7893C18.6452 110.091 19.3447 110.245 19.8881 110.554C20.4349 110.86 20.8398 111.273 21.1025 111.795C21.3653 112.317 21.4967 112.9 21.4967 113.543C21.4967 114.185 21.3653 114.77 21.1025 115.295C20.8433 115.821 20.442 116.24 19.8987 116.552C19.3554 116.861 18.6594 117.016 17.8106 117.016H15.1686V115.844H17.768C18.354 115.844 18.8245 115.743 19.1796 115.54C19.5347 115.338 19.7922 115.064 19.952 114.72C20.1153 114.372 20.197 113.979 20.197 113.543C20.197 113.106 20.1153 112.715 19.952 112.371C19.7922 112.026 19.5329 111.756 19.1743 111.561C18.8156 111.362 18.3398 111.263 17.7467 111.263H15.4243V121H14.1032ZM24.7114 116.078V121H23.4543V110.091H24.7114V114.097H24.8179C25.0097 113.674 25.2973 113.338 25.6808 113.09C26.0679 112.838 26.5828 112.712 27.2256 112.712C27.7831 112.712 28.2714 112.824 28.6904 113.047C29.1095 113.267 29.4344 113.607 29.6652 114.065C29.8996 114.519 30.0168 115.098 30.0168 115.801V121H28.7597V115.886C28.7597 115.237 28.591 114.734 28.2536 114.379C27.9198 114.02 27.4564 113.841 26.8634 113.841C26.4514 113.841 26.0821 113.928 25.7554 114.102C25.4323 114.276 25.1766 114.53 24.9884 114.864C24.8037 115.197 24.7114 115.602 24.7114 116.078ZM35.6404 121.17C34.9018 121.17 34.2537 120.995 33.6962 120.643C33.1422 120.292 32.709 119.8 32.3965 119.168C32.0875 118.536 31.9331 117.797 31.9331 116.952C31.9331 116.099 32.0875 115.355 32.3965 114.72C32.709 114.084 33.1422 113.591 33.6962 113.239C34.2537 112.887 34.9018 112.712 35.6404 112.712C36.3791 112.712 37.0254 112.887 37.5794 113.239C38.1369 113.591 38.5701 114.084 38.8791 114.72C39.1916 115.355 39.3478 116.099 39.3478 116.952C39.3478 117.797 39.1916 118.536 38.8791 119.168C38.5701 119.8 38.1369 120.292 37.5794 120.643C37.0254 120.995 36.3791 121.17 35.6404 121.17ZM35.6404 120.041C36.2015 120.041 36.6632 119.897 37.0254 119.61C37.3876 119.322 37.6557 118.944 37.8297 118.475C38.0037 118.006 38.0907 117.499 38.0907 116.952C38.0907 116.405 38.0037 115.895 37.8297 115.423C37.6557 114.951 37.3876 114.569 37.0254 114.278C36.6632 113.987 36.2015 113.841 35.6404 113.841C35.0794 113.841 34.6177 113.987 34.2555 114.278C33.8933 114.569 33.6252 114.951 33.4512 115.423C33.2772 115.895 33.1902 116.405 33.1902 116.952C33.1902 117.499 33.2772 118.006 33.4512 118.475C33.6252 118.944 33.8933 119.322 34.2555 119.61C34.6177 119.897 35.0794 120.041 35.6404 120.041ZM44.825 112.818V113.884H40.585V112.818H44.825ZM41.8208 110.858H43.0779V118.656C43.0779 119.011 43.1294 119.278 43.2323 119.455C43.3389 119.629 43.4738 119.746 43.6372 119.807C43.8041 119.864 43.9798 119.892 44.1645 119.892C44.303 119.892 44.4166 119.885 44.5054 119.871C44.5942 119.853 44.6652 119.839 44.7185 119.828L44.9742 120.957C44.8889 120.989 44.77 121.021 44.6173 121.053C44.4646 121.089 44.271 121.107 44.0367 121.107C43.6816 121.107 43.3335 121.03 42.9926 120.877C42.6553 120.725 42.3747 120.492 42.151 120.18C41.9308 119.867 41.8208 119.473 41.8208 118.997V110.858ZM49.952 121.17C49.2133 121.17 48.5653 120.995 48.0077 120.643C47.4537 120.292 47.0205 119.8 46.708 119.168C46.3991 118.536 46.2446 117.797 46.2446 116.952C46.2446 116.099 46.3991 115.355 46.708 114.72C47.0205 114.084 47.4537 113.591 48.0077 113.239C48.5653 112.887 49.2133 112.712 49.952 112.712C50.6906 112.712 51.3369 112.887 51.8909 113.239C52.4484 113.591 52.8817 114.084 53.1906 114.72C53.5031 115.355 53.6594 116.099 53.6594 116.952C53.6594 117.797 53.5031 118.536 53.1906 119.168C52.8817 119.8 52.4484 120.292 51.8909 120.643C51.3369 120.995 50.6906 121.17 49.952 121.17ZM49.952 120.041C50.5131 120.041 50.9747 119.897 51.3369 119.61C51.6991 119.322 51.9672 118.944 52.1412 118.475C52.3153 118.006 52.4023 117.499 52.4023 116.952C52.4023 116.405 52.3153 115.895 52.1412 115.423C51.9672 114.951 51.6991 114.569 51.3369 114.278C50.9747 113.987 50.5131 113.841 49.952 113.841C49.3909 113.841 48.9292 113.987 48.567 114.278C48.2048 114.569 47.9367 114.951 47.7627 115.423C47.5887 115.895 47.5017 116.405 47.5017 116.952C47.5017 117.499 47.5887 118.006 47.7627 118.475C47.9367 118.944 48.2048 119.322 48.567 119.61C48.9292 119.897 49.3909 120.041 49.952 120.041ZM61.3738 114.651L60.2445 114.97C60.1735 114.782 60.0687 114.599 59.9302 114.422C59.7953 114.24 59.6106 114.091 59.3762 113.974C59.1419 113.857 58.8418 113.798 58.476 113.798C57.9753 113.798 57.5581 113.914 57.2243 114.145C56.894 114.372 56.7289 114.661 56.7289 115.013C56.7289 115.325 56.8425 115.572 57.0698 115.753C57.2971 115.934 57.6522 116.085 58.1351 116.206L59.3496 116.504C60.0811 116.682 60.6262 116.953 60.9849 117.319C61.3436 117.681 61.5229 118.148 61.5229 118.72C61.5229 119.189 61.388 119.608 61.1181 119.977C60.8517 120.347 60.4789 120.638 59.9995 120.851C59.5201 121.064 58.9625 121.17 58.3269 121.17C57.4924 121.17 56.8017 120.989 56.2548 120.627C55.7079 120.265 55.3617 119.736 55.2161 119.04L56.4093 118.741C56.5229 119.182 56.7377 119.512 57.0538 119.732C57.3734 119.952 57.7907 120.062 58.3056 120.062C58.8915 120.062 59.3567 119.938 59.7012 119.69C60.0492 119.437 60.2232 119.136 60.2232 118.784C60.2232 118.5 60.1238 118.262 59.9249 118.07C59.726 117.875 59.4206 117.729 59.0087 117.634L57.6451 117.314C56.8958 117.136 56.3453 116.861 55.9938 116.488C55.6458 116.112 55.4718 115.641 55.4718 115.077C55.4718 114.615 55.6014 114.207 55.8606 113.852C56.1234 113.496 56.4803 113.218 56.9313 113.015C57.3858 112.813 57.9007 112.712 58.476 112.712C59.2857 112.712 59.9213 112.889 60.383 113.244C60.8482 113.599 61.1784 114.068 61.3738 114.651ZM64.6723 116.078V121H63.4152V110.091H64.6723V114.097H64.7789C64.9706 113.674 65.2583 113.338 65.6418 113.09C66.0289 112.838 66.5438 112.712 67.1865 112.712C67.7441 112.712 68.2323 112.824 68.6514 113.047C69.0704 113.267 69.3953 113.607 69.6262 114.065C69.8605 114.519 69.9777 115.098 69.9777 115.801V121H68.7206V115.886C68.7206 115.237 68.5519 114.734 68.2146 114.379C67.8808 114.02 67.4173 113.841 66.8243 113.841C66.4124 113.841 66.0431 113.928 65.7164 114.102C65.3932 114.276 65.1375 114.53 64.9493 114.864C64.7646 115.197 64.6723 115.602 64.6723 116.078ZM75.6014 121.17C74.8627 121.17 74.2147 120.995 73.6571 120.643C73.1032 120.292 72.6699 119.8 72.3574 119.168C72.0485 118.536 71.894 117.797 71.894 116.952C71.894 116.099 72.0485 115.355 72.3574 114.72C72.6699 114.084 73.1032 113.591 73.6571 113.239C74.2147 112.887 74.8627 112.712 75.6014 112.712C76.34 112.712 76.9863 112.887 77.5403 113.239C78.0978 113.591 78.5311 114.084 78.84 114.72C79.1525 115.355 79.3088 116.099 79.3088 116.952C79.3088 117.797 79.1525 118.536 78.84 119.168C78.5311 119.8 78.0978 120.292 77.5403 120.643C76.9863 120.995 76.34 121.17 75.6014 121.17ZM75.6014 120.041C76.1625 120.041 76.6241 119.897 76.9863 119.61C77.3485 119.322 77.6167 118.944 77.7907 118.475C77.9647 118.006 78.0517 117.499 78.0517 116.952C78.0517 116.405 77.9647 115.895 77.7907 115.423C77.6167 114.951 77.3485 114.569 76.9863 114.278C76.6241 113.987 76.1625 113.841 75.6014 113.841C75.0403 113.841 74.5787 113.987 74.2164 114.278C73.8542 114.569 73.5861 114.951 73.4121 115.423C73.2381 115.895 73.1511 116.405 73.1511 116.952C73.1511 117.499 73.2381 118.006 73.4121 118.475C73.5861 118.944 73.8542 119.322 74.2164 119.61C74.5787 119.897 75.0403 120.041 75.6014 120.041ZM81.2277 124.068V112.818H82.4422V114.118H82.5914C82.6837 113.976 82.8115 113.795 82.9749 113.575C83.1418 113.351 83.3797 113.152 83.6887 112.978C84.0012 112.8 84.4237 112.712 84.9564 112.712C85.6453 112.712 86.2526 112.884 86.7781 113.228C87.3037 113.573 87.7139 114.061 88.0086 114.693C88.3034 115.325 88.4507 116.071 88.4507 116.93C88.4507 117.797 88.3034 118.548 88.0086 119.184C87.7139 119.816 87.3055 120.306 86.7835 120.654C86.2615 120.998 85.6595 121.17 84.9777 121.17C84.4521 121.17 84.0313 121.083 83.7153 120.909C83.3992 120.732 83.156 120.531 82.9855 120.308C82.8151 120.08 82.6837 119.892 82.5914 119.743H82.4848V124.068H81.2277ZM82.4635 116.909C82.4635 117.527 82.5541 118.072 82.7352 118.544C82.9163 119.013 83.1808 119.381 83.5289 119.647C83.8769 119.91 84.303 120.041 84.8073 120.041C85.3328 120.041 85.7714 119.903 86.123 119.626C86.4781 119.345 86.7444 118.969 86.922 118.496C87.1031 118.021 87.1936 117.491 87.1936 116.909C87.1936 116.334 87.1048 115.815 86.9273 115.354C86.7533 114.888 86.4887 114.521 86.1336 114.251C85.782 113.978 85.3399 113.841 84.8073 113.841C84.2959 113.841 83.8662 113.971 83.5182 114.23C83.1702 114.485 82.9074 114.844 82.7298 115.306C82.5523 115.764 82.4635 116.298 82.4635 116.909ZM40.3453 139.149C39.6137 139.149 38.9674 139.02 38.4063 138.76C37.8488 138.498 37.4138 138.137 37.1013 137.679C36.7888 137.217 36.6343 136.692 36.6379 136.102C36.6343 135.641 36.7249 135.214 36.9095 134.824C37.0942 134.43 37.3463 134.101 37.6659 133.838C37.9891 133.572 38.3495 133.403 38.7472 133.332V133.268C38.2252 133.134 37.8097 132.841 37.5008 132.39C37.1919 131.935 37.0392 131.418 37.0427 130.839C37.0392 130.286 37.1794 129.79 37.4635 129.353C37.7476 128.917 38.1382 128.572 38.6354 128.32C39.1361 128.068 39.7061 127.942 40.3453 127.942C40.9774 127.942 41.542 128.068 42.0392 128.32C42.5363 128.572 42.9269 128.917 43.211 129.353C43.4987 129.79 43.6443 130.286 43.6478 130.839C43.6443 131.418 43.4862 131.935 43.1737 132.39C42.8648 132.841 42.4546 133.134 41.9433 133.268V133.332C42.3374 133.403 42.6926 133.572 43.0086 133.838C43.3247 134.101 43.5768 134.43 43.765 134.824C43.9532 135.214 44.0491 135.641 44.0526 136.102C44.0491 136.692 43.8893 137.217 43.5732 137.679C43.2607 138.137 42.8257 138.498 42.2682 138.76C41.7142 139.02 41.0732 139.149 40.3453 139.149ZM40.3453 137.977C40.8389 137.977 41.265 137.897 41.6237 137.738C41.9823 137.578 42.2593 137.352 42.4546 137.061C42.6499 136.77 42.7494 136.429 42.7529 136.038C42.7494 135.626 42.6428 135.262 42.4333 134.946C42.2238 134.63 41.9379 134.382 41.5757 134.201C41.2171 134.02 40.8069 133.929 40.3453 133.929C39.8801 133.929 39.4646 134.02 39.0988 134.201C38.7366 134.382 38.4507 134.63 38.2412 134.946C38.0352 135.262 37.934 135.626 37.9376 136.038C37.934 136.429 38.0281 136.77 38.2199 137.061C38.4152 137.352 38.694 137.578 39.0562 137.738C39.4184 137.897 39.8481 137.977 40.3453 137.977ZM40.3453 132.8C40.7359 132.8 41.0821 132.722 41.384 132.565C41.6894 132.409 41.9291 132.191 42.1031 131.91C42.2771 131.63 42.3659 131.301 42.3694 130.925C42.3659 130.555 42.2789 130.234 42.1084 129.961C41.9379 129.684 41.7018 129.471 41.3999 129.321C41.0981 129.169 40.7465 129.092 40.3453 129.092C39.9369 129.092 39.58 129.169 39.2746 129.321C38.9692 129.471 38.733 129.684 38.5661 129.961C38.3992 130.234 38.3176 130.555 38.3211 130.925C38.3176 131.301 38.401 131.63 38.5715 131.91C38.7455 132.191 38.9852 132.409 39.2906 132.565C39.596 132.722 39.9475 132.8 40.3453 132.8ZM49.5032 139.149C48.8782 139.149 48.3153 139.025 47.8146 138.776C47.3139 138.528 46.9126 138.187 46.6108 137.754C46.3089 137.32 46.1438 136.827 46.1154 136.273H47.3938C47.4435 136.766 47.6673 137.175 48.065 137.498C48.4663 137.817 48.9457 137.977 49.5032 137.977C49.9506 137.977 50.3484 137.873 50.6964 137.663C51.0479 137.453 51.3232 137.166 51.522 136.8C51.7244 136.431 51.8256 136.013 51.8256 135.548C51.8256 135.072 51.7209 134.648 51.5114 134.275C51.3054 133.899 51.0213 133.602 50.6591 133.386C50.2969 133.169 49.8832 133.059 49.418 133.055C49.0842 133.052 48.7415 133.103 48.3899 133.21C48.0384 133.313 47.7489 133.446 47.5217 133.609L46.2859 133.46L46.9464 128.091H52.614V129.263H48.0543L47.6708 132.48H47.7347C47.9585 132.303 48.239 132.155 48.5763 132.038C48.9137 131.921 49.2653 131.862 49.631 131.862C50.2987 131.862 50.8935 132.022 51.4155 132.342C51.9411 132.658 52.353 133.091 52.6513 133.641C52.9531 134.192 53.104 134.82 53.104 135.527C53.104 136.223 52.9478 136.844 52.6353 137.391C52.3263 137.935 51.9002 138.364 51.3569 138.68C50.8136 138.993 50.1957 139.149 49.5032 139.149ZM60.7812 136.955V136.379C60.7812 135.982 60.8628 135.618 61.0262 135.287C61.1931 134.953 61.4346 134.687 61.7506 134.488C62.0702 134.286 62.4573 134.185 62.9118 134.185C63.3735 134.185 63.7606 134.286 64.0731 134.488C64.3856 134.687 64.6217 134.953 64.7815 135.287C64.9413 135.618 65.0212 135.982 65.0212 136.379V136.955C65.0212 137.352 64.9395 137.718 64.7762 138.052C64.6164 138.382 64.3785 138.648 64.0624 138.851C63.7499 139.05 63.3664 139.149 62.9118 139.149C62.4502 139.149 62.0613 139.05 61.7453 138.851C61.4292 138.648 61.1895 138.382 61.0262 138.052C60.8628 137.718 60.7812 137.352 60.7812 136.955ZM61.8678 136.379V136.955C61.8678 137.285 61.9459 137.581 62.1022 137.844C62.2584 138.103 62.5283 138.233 62.9118 138.233C63.2847 138.233 63.5475 138.103 63.7002 137.844C63.8564 137.581 63.9346 137.285 63.9346 136.955V136.379C63.9346 136.049 63.86 135.754 63.7108 135.495C63.5617 135.232 63.2954 135.101 62.9118 135.101C62.539 135.101 62.2709 135.232 62.1075 135.495C61.9477 135.754 61.8678 136.049 61.8678 136.379ZM55.3479 130.712V130.136C55.3479 129.739 55.4296 129.375 55.593 129.044C55.7599 128.711 56.0013 128.444 56.3174 128.245C56.637 128.043 57.0241 127.942 57.4786 127.942C57.9403 127.942 58.3273 128.043 58.6398 128.245C58.9523 128.444 59.1885 128.711 59.3483 129.044C59.5081 129.375 59.588 129.739 59.588 130.136V130.712C59.588 131.109 59.5063 131.475 59.343 131.809C59.1831 132.139 58.9452 132.406 58.6292 132.608C58.3167 132.807 57.9331 132.906 57.4786 132.906C57.017 132.906 56.6281 132.807 56.3121 132.608C55.996 132.406 55.7563 132.139 55.593 131.809C55.4296 131.475 55.3479 131.109 55.3479 130.712ZM56.4346 130.136V130.712C56.4346 131.042 56.5127 131.338 56.6689 131.601C56.8252 131.86 57.0951 131.99 57.4786 131.99C57.8515 131.99 58.1143 131.86 58.267 131.601C58.4232 131.338 58.5013 131.042 58.5013 130.712V130.136C58.5013 129.806 58.4268 129.511 58.2776 129.252C58.1285 128.989 57.8621 128.858 57.4786 128.858C57.1057 128.858 56.8376 128.989 56.6743 129.252C56.5145 129.511 56.4346 129.806 56.4346 130.136ZM55.7528 139L63.2528 128.091H64.4672L56.9672 139H55.7528Z" fill="white"/>
<defs>
<linearGradient id="paint0_linear_3_663" x1="71.049" y1="51.1208" x2="46.5142" y2="93.2195" gradientUnits="userSpaceOnUse">
<stop offset="0.09375" stop-color="white"/>
<stop offset="1" stop-color="white" stop-opacity="0.2"/>
</linearGradient>
<linearGradient id="paint1_linear_3_663" x1="71.049" y1="51.1208" x2="46.5142" y2="93.2195" gradientUnits="userSpaceOnUse">
<stop offset="0.09375" stop-color="white"/>
<stop offset="1" stop-color="white" stop-opacity="0.2"/>
</linearGradient>
</defs>
</svg>
