<svg width="104" height="156" viewBox="0 0 104 156" fill="none" xmlns="http://www.w3.org/2000/svg">
<rect x="0.573364" width="102.573" height="154.907" rx="30" fill="white" fill-opacity="0.05"/>
<mask id="mask0_109_169" style="mask-type:alpha" maskUnits="userSpaceOnUse" x="0" y="1" width="104" height="155">
<rect x="0.573364" y="1.04666" width="102.573" height="154.907" rx="30" fill="white"/>
</mask>
<g mask="url(#mask0_109_169)">
<path d="M79.0734 51.98C90.4959 52.4279 103.147 58.36 103.147 58.36V80.0209V183.337H0.57341V80.0209V58.36C0.57341 58.36 13.3583 63.5942 25.6934 64.0167C44.3938 64.6572 60.3764 51.2469 79.0734 51.98Z" fill="#1F97DB"/>
<path d="M24.9388 52.0176C13.5801 52.2886 1 55.878 1 55.878V68.9848V160H103V68.9848V55.878C103 55.878 90.2866 59.0452 78.0204 59.3008C59.4246 59.6884 43.5312 51.574 24.9388 52.0176Z" fill="#3DB9FF"/>
</g>
<path d="M7.75523 121V110.091H11.4413C12.2936 110.091 12.9932 110.237 13.54 110.528C14.0869 110.815 14.4917 111.211 14.7545 111.716C15.0173 112.22 15.1487 112.793 15.1487 113.436C15.1487 114.079 15.0173 114.649 14.7545 115.146C14.4917 115.643 14.0887 116.034 13.5454 116.318C13.002 116.598 12.3078 116.739 11.4626 116.739H8.47966V115.545H11.42C12.0024 115.545 12.4711 115.46 12.8262 115.29C13.1849 115.119 13.4441 114.878 13.6039 114.565C13.7673 114.249 13.849 113.873 13.849 113.436C13.849 112.999 13.7673 112.618 13.6039 112.291C13.4406 111.964 13.1796 111.712 12.8209 111.534C12.4623 111.353 11.9882 111.263 11.3987 111.263H9.07625V121H7.75523ZM12.8902 116.099L15.5748 121H14.0407L11.3987 116.099H12.8902ZM20.522 121.17C19.7337 121.17 19.0536 120.996 18.4819 120.648C17.9137 120.297 17.4751 119.807 17.1662 119.178C16.8608 118.546 16.7081 117.811 16.7081 116.973C16.7081 116.135 16.8608 115.396 17.1662 114.757C17.4751 114.114 17.9048 113.614 18.4552 113.255C19.0092 112.893 19.6555 112.712 20.3942 112.712C20.8203 112.712 21.2411 112.783 21.6566 112.925C22.0721 113.067 22.4503 113.298 22.7912 113.617C23.1321 113.933 23.4038 114.352 23.6062 114.874C23.8086 115.396 23.9098 116.039 23.9098 116.803V117.335H17.603V116.249H22.6314C22.6314 115.787 22.5391 115.375 22.3544 115.013C22.1733 114.651 21.9141 114.365 21.5767 114.155C21.2429 113.946 20.8487 113.841 20.3942 113.841C19.8935 113.841 19.4602 113.965 19.0944 114.214C18.7322 114.459 18.4535 114.778 18.2582 115.173C18.0628 115.567 17.9652 115.989 17.9652 116.44V117.165C17.9652 117.783 18.0717 118.306 18.2848 118.736C18.5014 119.162 18.8015 119.487 19.185 119.711C19.5685 119.931 20.0142 120.041 20.522 120.041C20.8523 120.041 21.1506 119.995 21.4169 119.903C21.6868 119.807 21.9194 119.665 22.1147 119.477C22.31 119.285 22.4609 119.047 22.5675 118.763L23.7819 119.104C23.6541 119.516 23.4393 119.878 23.1374 120.19C22.8356 120.499 22.4627 120.741 22.0188 120.915C21.5749 121.085 21.076 121.17 20.522 121.17ZM28.2297 121.192C27.7113 121.192 27.2408 121.094 26.8182 120.899C26.3956 120.7 26.06 120.414 25.8114 120.041C25.5628 119.665 25.4386 119.21 25.4386 118.678C25.4386 118.209 25.5309 117.829 25.7155 117.538C25.9002 117.243 26.147 117.012 26.456 116.845C26.7649 116.678 27.1058 116.554 27.4787 116.472C27.8551 116.387 28.2333 116.32 28.6133 116.27C29.1104 116.206 29.5135 116.158 29.8224 116.126C30.1349 116.091 30.3622 116.032 30.5043 115.95C30.6498 115.869 30.7226 115.727 30.7226 115.524V115.482C30.7226 114.956 30.5788 114.548 30.2912 114.256C30.0071 113.965 29.5756 113.82 28.9968 113.82C28.3967 113.82 27.9261 113.951 27.5852 114.214C27.2443 114.477 27.0046 114.757 26.8661 115.055L25.6729 114.629C25.886 114.132 26.1701 113.745 26.5252 113.468C26.8839 113.187 27.2745 112.992 27.6971 112.882C28.1232 112.768 28.5422 112.712 28.9542 112.712C29.217 112.712 29.5188 112.744 29.8597 112.808C30.2042 112.868 30.5362 112.994 30.8558 113.186C31.179 113.377 31.4471 113.667 31.6601 114.054C31.8732 114.441 31.9797 114.96 31.9797 115.609V121H30.7226V119.892H30.6587C30.5735 120.07 30.4315 120.26 30.2326 120.462C30.0337 120.664 29.7692 120.837 29.4389 120.979C29.1087 121.121 28.7056 121.192 28.2297 121.192ZM28.4215 120.062C28.9187 120.062 29.3377 119.965 29.6786 119.77C30.0231 119.574 30.2823 119.322 30.4563 119.013C30.6339 118.704 30.7226 118.379 30.7226 118.038V116.888C30.6694 116.952 30.5522 117.01 30.3711 117.064C30.1935 117.113 29.9876 117.158 29.7532 117.197C29.5224 117.232 29.2969 117.264 29.0767 117.293C28.8601 117.317 28.6843 117.339 28.5494 117.357C28.2226 117.399 27.9172 117.468 27.6332 117.564C27.3526 117.657 27.1253 117.797 26.9513 117.985C26.7809 118.17 26.6957 118.422 26.6957 118.741C26.6957 119.178 26.8572 119.509 27.1804 119.732C27.5071 119.952 27.9208 120.062 28.4215 120.062ZM37.5981 121.17C36.831 121.17 36.1705 120.989 35.6166 120.627C35.0626 120.265 34.6364 119.766 34.3381 119.13C34.0399 118.495 33.8907 117.768 33.8907 116.952C33.8907 116.121 34.0434 115.387 34.3488 114.752C34.6577 114.113 35.0874 113.614 35.6379 113.255C36.1918 112.893 36.8381 112.712 37.5768 112.712C38.1521 112.712 38.6705 112.818 39.1322 113.031C39.5938 113.244 39.972 113.543 40.2668 113.926C40.5615 114.31 40.7444 114.757 40.8154 115.268H39.5583C39.4624 114.896 39.2494 114.565 38.9191 114.278C38.5924 113.987 38.1521 113.841 37.5981 113.841C37.108 113.841 36.6783 113.969 36.309 114.224C35.9433 114.477 35.6574 114.833 35.4514 115.295C35.249 115.753 35.1478 116.291 35.1478 116.909C35.1478 117.541 35.2472 118.092 35.4461 118.56C35.6485 119.029 35.9326 119.393 36.2984 119.652C36.6677 119.912 37.1009 120.041 37.5981 120.041C37.9248 120.041 38.2213 119.984 38.4876 119.871C38.754 119.757 38.9795 119.594 39.1641 119.381C39.3488 119.168 39.4802 118.912 39.5583 118.614H40.8154C40.7444 119.097 40.5686 119.532 40.2881 119.919C40.0111 120.302 39.6435 120.608 39.1854 120.835C38.7309 121.059 38.2018 121.17 37.5981 121.17ZM46.2114 112.818V113.884H41.9713V112.818H46.2114ZM43.2071 110.858H44.4642V118.656C44.4642 119.011 44.5157 119.278 44.6187 119.455C44.7252 119.629 44.8602 119.746 45.0235 119.807C45.1904 119.864 45.3662 119.892 45.5509 119.892C45.6894 119.892 45.803 119.885 45.8918 119.871C45.9805 119.853 46.0516 119.839 46.1048 119.828L46.3605 120.957C46.2753 120.989 46.1563 121.021 46.0036 121.053C45.8509 121.089 45.6574 121.107 45.423 121.107C45.0679 121.107 44.7199 121.03 44.379 120.877C44.0416 120.725 43.7611 120.492 43.5374 120.18C43.3172 119.867 43.2071 119.473 43.2071 118.997V110.858ZM61.1421 110.091V121H59.8637L53.9191 112.435H53.8126V121H52.4916V110.091H53.77L59.7359 118.678H59.8424V110.091H61.1421ZM66.0227 121.192C65.5043 121.192 65.0337 121.094 64.6111 120.899C64.1886 120.7 63.853 120.414 63.6044 120.041C63.3558 119.665 63.2315 119.21 63.2315 118.678C63.2315 118.209 63.3239 117.829 63.5085 117.538C63.6932 117.243 63.94 117.012 64.2489 116.845C64.5579 116.678 64.8988 116.554 65.2717 116.472C65.6481 116.387 66.0263 116.32 66.4062 116.27C66.9034 116.206 67.3065 116.158 67.6154 116.126C67.9279 116.091 68.1552 116.032 68.2972 115.95C68.4428 115.869 68.5156 115.727 68.5156 115.524V115.482C68.5156 114.956 68.3718 114.548 68.0842 114.256C67.8001 113.965 67.3686 113.82 66.7898 113.82C66.1896 113.82 65.7191 113.951 65.3782 114.214C65.0373 114.477 64.7976 114.757 64.6591 115.055L63.4659 114.629C63.679 114.132 63.9631 113.745 64.3182 113.468C64.6768 113.187 65.0675 112.992 65.49 112.882C65.9162 112.768 66.3352 112.712 66.7471 112.712C67.0099 112.712 67.3118 112.744 67.6527 112.808C67.9971 112.868 68.3292 112.994 68.6488 113.186C68.9719 113.377 69.24 113.667 69.4531 114.054C69.6662 114.441 69.7727 114.96 69.7727 115.609V121H68.5156V119.892H68.4517C68.3665 120.07 68.2244 120.26 68.0256 120.462C67.8267 120.664 67.5621 120.837 67.2319 120.979C66.9016 121.121 66.4986 121.192 66.0227 121.192ZM66.2145 120.062C66.7116 120.062 67.1307 119.965 67.4716 119.77C67.816 119.574 68.0753 119.322 68.2493 119.013C68.4268 118.704 68.5156 118.379 68.5156 118.038V116.888C68.4623 116.952 68.3452 117.01 68.1641 117.064C67.9865 117.113 67.7805 117.158 67.5462 117.197C67.3153 117.232 67.0898 117.264 66.8697 117.293C66.653 117.317 66.4773 117.339 66.3423 117.357C66.0156 117.399 65.7102 117.468 65.4261 117.564C65.1456 117.657 64.9183 117.797 64.7443 117.985C64.5739 118.17 64.4886 118.422 64.4886 118.741C64.4886 119.178 64.6502 119.509 64.9734 119.732C65.3001 119.952 65.7138 120.062 66.2145 120.062ZM75.6254 112.818V113.884H71.3854V112.818H75.6254ZM72.6212 110.858H73.8783V118.656C73.8783 119.011 73.9298 119.278 74.0327 119.455C74.1393 119.629 74.2742 119.746 74.4376 119.807C74.6045 119.864 74.7803 119.892 74.9649 119.892C75.1034 119.892 75.2171 119.885 75.3058 119.871C75.3946 119.853 75.4656 119.839 75.5189 119.828L75.7746 120.957C75.6894 120.989 75.5704 121.021 75.4177 121.053C75.265 121.089 75.0715 121.107 74.8371 121.107C74.482 121.107 74.134 121.03 73.793 120.877C73.4557 120.725 73.1751 120.492 72.9514 120.18C72.7313 119.867 72.6212 119.473 72.6212 118.997V110.858ZM77.5164 121V112.818H78.7735V121H77.5164ZM78.1556 111.455C77.9106 111.455 77.6993 111.371 77.5217 111.204C77.3477 111.037 77.2607 110.837 77.2607 110.602C77.2607 110.368 77.3477 110.167 77.5217 110C77.6993 109.833 77.9106 109.75 78.1556 109.75C78.4006 109.75 78.6102 109.833 78.7842 110C78.9617 110.167 79.0505 110.368 79.0505 110.602C79.0505 110.837 78.9617 111.037 78.7842 111.204C78.6102 111.371 78.4006 111.455 78.1556 111.455ZM87.7663 112.818L84.7408 121H83.4623L80.4368 112.818H81.8004L84.0589 119.338H84.1442L86.4027 112.818H87.7663ZM92.563 121.17C91.7747 121.17 91.0946 120.996 90.5229 120.648C89.9547 120.297 89.5161 119.807 89.2072 119.178C88.9018 118.546 88.7491 117.811 88.7491 116.973C88.7491 116.135 88.9018 115.396 89.2072 114.757C89.5161 114.114 89.9458 113.614 90.4963 113.255C91.0502 112.893 91.6965 112.712 92.4352 112.712C92.8613 112.712 93.2821 112.783 93.6976 112.925C94.1131 113.067 94.4913 113.298 94.8322 113.617C95.1731 113.933 95.4448 114.352 95.6472 114.874C95.8496 115.396 95.9508 116.039 95.9508 116.803V117.335H89.644V116.249H94.6724C94.6724 115.787 94.5801 115.375 94.3954 115.013C94.2143 114.651 93.9551 114.365 93.6177 114.155C93.2839 113.946 92.8897 113.841 92.4352 113.841C91.9345 113.841 91.5012 113.965 91.1355 114.214C90.7732 114.459 90.4945 114.778 90.2992 115.173C90.1039 115.567 90.0062 115.989 90.0062 116.44V117.165C90.0062 117.783 90.1127 118.306 90.3258 118.736C90.5424 119.162 90.8425 119.487 91.226 119.711C91.6095 119.931 92.0552 120.041 92.563 120.041C92.8933 120.041 93.1916 119.995 93.4579 119.903C93.7278 119.807 93.9604 119.665 94.1557 119.477C94.351 119.285 94.5019 119.047 94.6085 118.763L95.823 119.104C95.6951 119.516 95.4803 119.878 95.1784 120.19C94.8766 120.499 94.5037 120.741 94.0598 120.915C93.6159 121.085 93.117 121.17 92.563 121.17ZM38.1754 139L43.0546 129.348V129.263H37.4296V128.091H44.4183V129.327L39.5603 139H38.1754ZM49.6664 139.149C49.0414 139.149 48.4785 139.025 47.9778 138.776C47.4771 138.528 47.0759 138.187 46.774 137.754C46.4722 137.32 46.307 136.827 46.2786 136.273H47.557C47.6067 136.766 47.8305 137.175 48.2282 137.498C48.6295 137.817 49.1089 137.977 49.6664 137.977C50.1138 137.977 50.5116 137.873 50.8596 137.663C51.2111 137.453 51.4864 137.166 51.6852 136.8C51.8876 136.431 51.9888 136.013 51.9888 135.548C51.9888 135.072 51.8841 134.648 51.6746 134.275C51.4686 133.899 51.1845 133.602 50.8223 133.386C50.4601 133.169 50.0464 133.059 49.5812 133.055C49.2474 133.052 48.9047 133.103 48.5531 133.21C48.2016 133.313 47.9121 133.446 47.6849 133.609L46.4491 133.46L47.1096 128.091H52.7772V129.263H48.2175L47.834 132.48H47.8979C48.1217 132.303 48.4022 132.155 48.7396 132.038C49.0769 131.921 49.4285 131.862 49.7942 131.862C50.4619 131.862 51.0567 132.022 51.5787 132.342C52.1043 132.658 52.5162 133.091 52.8145 133.641C53.1163 134.192 53.2673 134.82 53.2673 135.527C53.2673 136.223 53.111 136.844 52.7985 137.391C52.4896 137.935 52.0634 138.364 51.5201 138.68C50.9768 138.993 50.3589 139.149 49.6664 139.149ZM60.9444 136.955V136.379C60.9444 135.982 61.026 135.618 61.1894 135.287C61.3563 134.953 61.5978 134.687 61.9138 134.488C62.2334 134.286 62.6205 134.185 63.0751 134.185C63.5367 134.185 63.9238 134.286 64.2363 134.488C64.5488 134.687 64.7849 134.953 64.9447 135.287C65.1045 135.618 65.1844 135.982 65.1844 136.379V136.955C65.1844 137.352 65.1028 137.718 64.9394 138.052C64.7796 138.382 64.5417 138.648 64.2256 138.851C63.9131 139.05 63.5296 139.149 63.0751 139.149C62.6134 139.149 62.2246 139.05 61.9085 138.851C61.5925 138.648 61.3528 138.382 61.1894 138.052C61.026 137.718 60.9444 137.352 60.9444 136.955ZM62.031 136.379V136.955C62.031 137.285 62.1091 137.581 62.2654 137.844C62.4216 138.103 62.6915 138.233 63.0751 138.233C63.4479 138.233 63.7107 138.103 63.8634 137.844C64.0197 137.581 64.0978 137.285 64.0978 136.955V136.379C64.0978 136.049 64.0232 135.754 63.8741 135.495C63.7249 135.232 63.4586 135.101 63.0751 135.101C62.7022 135.101 62.4341 135.232 62.2707 135.495C62.1109 135.754 62.031 136.049 62.031 136.379ZM55.5111 130.712V130.136C55.5111 129.739 55.5928 129.375 55.7562 129.044C55.9231 128.711 56.1645 128.444 56.4806 128.245C56.8002 128.043 57.1873 127.942 57.6418 127.942C58.1035 127.942 58.4905 128.043 58.803 128.245C59.1155 128.444 59.3517 128.711 59.5115 129.044C59.6713 129.375 59.7512 129.739 59.7512 130.136V130.712C59.7512 131.109 59.6695 131.475 59.5062 131.809C59.3464 132.139 59.1084 132.406 58.7924 132.608C58.4799 132.807 58.0964 132.906 57.6418 132.906C57.1802 132.906 56.7913 132.807 56.4753 132.608C56.1592 132.406 55.9195 132.139 55.7562 131.809C55.5928 131.475 55.5111 131.109 55.5111 130.712ZM56.5978 130.136V130.712C56.5978 131.042 56.6759 131.338 56.8322 131.601C56.9884 131.86 57.2583 131.99 57.6418 131.99C58.0147 131.99 58.2775 131.86 58.4302 131.601C58.5864 131.338 58.6645 131.042 58.6645 130.712V130.136C58.6645 129.806 58.59 129.511 58.4408 129.252C58.2917 128.989 58.0253 128.858 57.6418 128.858C57.2689 128.858 57.0008 128.989 56.8375 129.252C56.6777 129.511 56.5978 129.806 56.5978 130.136ZM55.916 139L63.416 128.091H64.6304L57.1304 139H55.916Z" fill="white"/>
<g clip-path="url(#clip0_109_169)">
<path d="M56.2546 68.5075C56.2546 69.6191 55.8132 70.6852 55.0273 71.4714C54.2415 72.2576 53.1756 72.6995 52.064 72.7C50.9521 72.7 49.8857 72.2583 49.0994 71.472C48.3132 70.6858 47.8715 69.6194 47.8715 68.5075C47.8715 67.3959 48.3129 66.3298 49.0988 65.5436C49.8846 64.7574 50.9505 64.3155 52.0621 64.315C53.174 64.315 54.2404 64.7567 55.0267 65.5429C55.8129 66.3292 56.2546 67.3956 56.2546 68.5075ZM61.2196 48.4637C58.6959 48.4637 55.394 50.2637 52.0546 53.38C48.7171 50.2806 45.4134 48.5012 42.8915 48.5012C42.1227 48.5012 41.4234 48.6756 40.8177 49.0225C38.2396 50.5094 37.6621 55.1425 38.9934 60.9569C33.2859 62.7194 29.5734 65.5375 29.5734 68.5075C29.5734 71.4887 33.3046 74.3144 39.029 76.0637C37.709 81.9006 38.2977 86.5412 40.8815 88.0262C41.4815 88.3769 42.1752 88.5419 42.9477 88.5419C45.4696 88.5419 48.7734 86.7419 52.1127 83.6219C55.4502 86.7231 58.754 88.5025 61.2759 88.5025C62.0446 88.5025 62.744 88.3337 63.3496 87.9869C65.9259 86.5019 66.5052 81.8687 65.174 76.0525C70.8609 74.305 74.5734 71.4812 74.5734 68.5075C74.5734 65.5262 70.8421 62.7006 65.1177 60.9475C66.4377 55.1162 65.849 50.4719 63.2652 48.985C62.669 48.64 61.9752 48.4656 61.2177 48.4637H61.2196ZM61.2102 50.5075V50.5187C61.6321 50.5187 61.9715 50.6012 62.2565 50.7569C63.5052 51.4731 64.0471 54.1975 63.6252 57.7019C63.524 58.5644 63.359 59.4737 63.1565 60.4019C61.3565 59.9594 59.3952 59.62 57.3309 59.4006C56.0934 57.7037 54.809 56.1625 53.5152 54.8125C56.5002 52.0375 59.3034 50.515 61.2121 50.5094L61.2102 50.5075ZM42.8915 50.545C44.789 50.545 47.6052 52.06 50.5977 54.82C49.3115 56.17 48.029 57.7019 46.8102 59.3987C44.7346 59.6181 42.7715 59.9575 40.9734 60.4075C40.7634 59.4887 40.6077 58.6 40.4971 57.745C40.0659 54.2425 40.5984 51.52 41.8359 50.7944C42.1921 50.6256 42.5859 50.5562 42.8915 50.5469V50.545ZM52.0452 56.2637C52.8984 57.1412 53.7515 58.1237 54.5952 59.1962C53.7702 59.1587 52.9265 59.1325 52.0734 59.1325C51.2109 59.1325 50.3577 59.1512 49.5234 59.1962C50.3484 58.1237 51.2015 57.1412 52.0452 56.2619V56.2637ZM52.0734 61.1875C53.4609 61.1875 54.8427 61.2512 56.2021 61.3619C56.9634 62.4531 57.7059 63.6175 58.4202 64.8494C59.1177 66.0494 59.7515 67.2681 60.329 68.4981C59.7515 69.7262 59.1177 70.9544 58.4296 72.1544C57.7171 73.3919 56.9802 74.5694 56.2171 75.6606C54.8521 75.7787 53.4684 75.8444 52.0734 75.8444C50.6859 75.8444 49.304 75.7787 47.9446 75.67C47.1834 74.5787 46.4409 73.4125 45.7265 72.1825C45.029 70.9825 44.3952 69.7637 43.8177 68.5337C44.3859 67.3019 45.029 66.0719 45.7171 64.87C46.4296 63.6325 47.1665 62.4587 47.9296 61.3675C49.2946 61.2475 50.6784 61.1837 52.0734 61.1837V61.1875ZM45.2577 61.6637C44.8077 62.3706 44.3577 63.0944 43.9377 63.8387C43.5159 64.57 43.1221 65.305 42.7471 66.04C42.2502 64.81 41.8284 63.5837 41.4796 62.3894C42.6796 62.1081 43.9452 61.8587 45.2577 61.6656V61.6637ZM58.8702 61.6637C60.1734 61.8569 61.4296 62.095 62.6315 62.3894C62.294 63.5744 61.8721 64.7931 61.394 66.0137C61.019 65.2825 60.6252 64.5456 60.194 63.8125C59.7721 63.0775 59.3221 62.3612 58.8721 61.6637H58.8702ZM64.6134 62.9294C65.5209 63.2106 66.3834 63.5237 67.1915 63.8631C70.439 65.2506 72.539 67.0656 72.539 68.5056C72.5296 69.9456 70.4296 71.7681 67.1821 73.1462C66.3946 73.4837 65.5321 73.7875 64.6415 74.0706C64.1165 72.2744 63.4302 70.4031 62.579 68.4831C63.4227 66.5762 64.0977 64.7144 64.6134 62.9256V62.9294ZM39.4977 62.9369C40.019 64.7369 40.7071 66.6062 41.5602 68.5244C40.7165 70.4312 40.0377 72.2931 39.524 74.0819C38.6165 73.8006 37.754 73.4856 36.9552 73.1444C33.7077 71.7625 31.6077 69.9456 31.6077 68.5056C31.6077 67.0656 33.7077 65.2394 36.9552 63.8631C37.7427 63.5256 38.6052 63.2219 39.4977 62.9369ZM61.394 70.9619C61.8909 72.1937 62.3127 73.4219 62.6615 74.6144C61.4615 74.9087 60.194 75.1581 58.8815 75.3456C59.3315 74.6425 59.7815 73.9169 60.2034 73.1744C60.6252 72.4431 61.019 71.6969 61.3959 70.9619H61.394ZM42.7471 70.9994C43.1221 71.7344 43.5159 72.4675 43.9471 73.2025C44.3784 73.9337 44.819 74.65 45.269 75.3456C43.9659 75.1544 42.7096 74.9144 41.5077 74.6219C41.8452 73.4406 42.269 72.2181 42.7452 70.9975L42.7471 70.9994ZM63.1734 76.6C63.3834 77.5244 63.5484 78.415 63.6496 79.2681C64.0809 82.7706 63.5484 85.4931 62.3109 86.2206C62.0352 86.3894 61.6771 86.4606 61.2552 86.4606C59.3577 86.4606 56.5415 84.9475 53.549 82.1856C54.8352 80.8356 56.1177 79.3056 57.3365 77.6106C59.4121 77.3894 61.3752 77.0481 63.1734 76.5981V76.6ZM40.9921 76.6187C42.7921 77.0575 44.7534 77.3969 46.8177 77.6162C48.0552 79.3131 49.3396 80.8544 50.6334 82.2025C47.6427 84.9831 44.8359 86.5056 42.9271 86.5056C42.5146 86.4963 42.1659 86.4119 41.8902 86.2581C40.6415 85.5456 40.0996 82.8194 40.5215 79.315C40.6227 78.4525 40.7877 77.545 40.9902 76.6187H40.9921ZM49.5421 77.8187C50.3671 77.8562 51.2109 77.8825 52.064 77.8825C52.9265 77.8825 53.7796 77.8637 54.614 77.8187C53.789 78.8912 52.9359 79.8719 52.0921 80.7531C51.239 79.8719 50.3859 78.8912 49.5421 77.8187Z" fill="url(#paint0_linear_109_169)"/>
</g>
<defs>
<linearGradient id="paint0_linear_109_169" x1="72.5363" y1="47.3416" x2="38.2843" y2="94.389" gradientUnits="userSpaceOnUse">
<stop offset="0.09375" stop-color="white"/>
<stop offset="1" stop-color="white" stop-opacity="0.2"/>
</linearGradient>
<clipPath id="clip0_109_169">
<rect width="45" height="45" fill="white" transform="translate(29.5734 46)"/>
</clipPath>
</defs>
</svg>
