<svg width="104" height="156" viewBox="0 0 104 156" fill="none" xmlns="http://www.w3.org/2000/svg">
<rect x="0.573364" width="102.573" height="154.907" rx="30" fill="white" fill-opacity="0.05"/>
<mask id="mask0_109_143" style="mask-type:alpha" maskUnits="userSpaceOnUse" x="0" y="1" width="104" height="155">
<rect x="0.573364" y="1.04669" width="102.573" height="154.907" rx="30" fill="white"/>
</mask>
<g mask="url(#mask0_109_143)">
<path d="M79.0734 -8.01994C90.4959 -7.57206 103.147 -1.63993 103.147 -1.63993V20.0209V123.337H0.57341V20.0209V-1.63993C0.57341 -1.63993 13.3583 3.59421 25.6934 4.01672C44.3938 4.65726 60.3764 -8.75305 79.0734 -8.01994Z" fill="#AC3A19"/>
<path d="M24.9388 -7.97334C13.5801 -7.56182 1 -2.11113 1 -2.11113V17.7918V156H103V17.7918V-2.11113C103 -2.11113 90.2866 2.69822 78.0204 3.08644C59.4246 3.67498 43.5312 -8.64695 24.9388 -7.97334Z" fill="#F9744D"/>
</g>
<path d="M29.6473 121V110.091H30.9683V114.949H36.7851V110.091H38.1061V121H36.7851V116.121H30.9683V121H29.6473ZM44.1386 112.818V113.884H39.8986V112.818H44.1386ZM41.1344 110.858H42.3915V118.656C42.3915 119.011 42.4429 119.278 42.5459 119.455C42.6525 119.629 42.7874 119.746 42.9508 119.807C43.1177 119.864 43.2934 119.892 43.4781 119.892C43.6166 119.892 43.7302 119.885 43.819 119.871C43.9078 119.853 43.9788 119.839 44.0321 119.828L44.2878 120.957C44.2025 120.989 44.0836 121.021 43.9309 121.053C43.7782 121.089 43.5846 121.107 43.3503 121.107C42.9952 121.107 42.6471 121.03 42.3062 120.877C41.9689 120.725 41.6883 120.492 41.4646 120.18C41.2444 119.867 41.1344 119.473 41.1344 118.997V110.858ZM46.0296 121V112.818H47.2441V114.097H47.3506C47.5211 113.66 47.7963 113.321 48.1763 113.079C48.5562 112.834 49.0126 112.712 49.5452 112.712C50.085 112.712 50.5342 112.834 50.8929 113.079C51.2551 113.321 51.5374 113.66 51.7398 114.097H51.8251C52.0346 113.674 52.3488 113.338 52.7679 113.09C53.1869 112.838 53.6894 112.712 54.2753 112.712C55.0069 112.712 55.6052 112.941 56.0704 113.399C56.5356 113.853 56.7682 114.562 56.7682 115.524V121H55.5111V115.524C55.5111 114.92 55.346 114.489 55.0157 114.23C54.6855 113.971 54.2966 113.841 53.8492 113.841C53.2739 113.841 52.8282 114.015 52.5122 114.363C52.1961 114.707 52.0381 115.144 52.0381 115.673V121H50.7597V115.396C50.7597 114.931 50.6088 114.556 50.3069 114.272C50.0051 113.985 49.6162 113.841 49.1404 113.841C48.8137 113.841 48.5083 113.928 48.2242 114.102C47.9437 114.276 47.7164 114.517 47.5424 114.826C47.3719 115.132 47.2867 115.485 47.2867 115.886V121H46.0296ZM60.3238 110.091V121H59.0667V110.091H60.3238ZM70.2328 121.149C69.6078 121.149 69.045 121.025 68.5442 120.776C68.0435 120.528 67.6423 120.187 67.3404 119.754C67.0386 119.32 66.8734 118.827 66.845 118.273H68.1234C68.1732 118.766 68.3969 119.175 68.7946 119.498C69.1959 119.817 69.6753 119.977 70.2328 119.977C70.6803 119.977 71.078 119.873 71.426 119.663C71.7776 119.453 72.0528 119.166 72.2516 118.8C72.454 118.431 72.5553 118.013 72.5553 117.548C72.5553 117.072 72.4505 116.648 72.241 116.275C72.035 115.899 71.7509 115.602 71.3887 115.386C71.0265 115.169 70.6128 115.059 70.1476 115.055C69.8138 115.052 69.4711 115.103 69.1195 115.21C68.768 115.313 68.4785 115.446 68.2513 115.609L67.0155 115.46L67.676 110.091H73.3436V111.263H68.7839L68.4004 114.48H68.4643C68.6881 114.303 68.9686 114.155 69.306 114.038C69.6433 113.921 69.9949 113.862 70.3607 113.862C71.0283 113.862 71.6231 114.022 72.1451 114.342C72.6707 114.658 73.0826 115.091 73.3809 115.641C73.6827 116.192 73.8337 116.82 73.8337 117.527C73.8337 118.223 73.6774 118.844 73.3649 119.391C73.056 119.935 72.6298 120.364 72.0865 120.68C71.5432 120.993 70.9253 121.149 70.2328 121.149ZM38.1754 139L43.0546 129.348V129.263H37.4296V128.091H44.4183V129.327L39.5603 139H38.1754ZM49.6664 139.149C49.0414 139.149 48.4785 139.025 47.9778 138.776C47.4771 138.528 47.0759 138.187 46.774 137.754C46.4722 137.32 46.307 136.827 46.2786 136.273H47.557C47.6067 136.766 47.8305 137.175 48.2282 137.498C48.6295 137.817 49.1089 137.977 49.6664 137.977C50.1138 137.977 50.5116 137.873 50.8596 137.663C51.2111 137.453 51.4864 137.166 51.6852 136.8C51.8876 136.431 51.9888 136.013 51.9888 135.548C51.9888 135.072 51.8841 134.648 51.6746 134.275C51.4686 133.899 51.1845 133.602 50.8223 133.386C50.4601 133.169 50.0464 133.059 49.5812 133.055C49.2474 133.052 48.9047 133.103 48.5531 133.21C48.2016 133.313 47.9121 133.446 47.6849 133.609L46.4491 133.46L47.1096 128.091H52.7772V129.263H48.2175L47.834 132.48H47.8979C48.1217 132.303 48.4022 132.155 48.7396 132.038C49.0769 131.921 49.4285 131.862 49.7942 131.862C50.4619 131.862 51.0567 132.022 51.5787 132.342C52.1043 132.658 52.5162 133.091 52.8145 133.641C53.1163 134.192 53.2673 134.82 53.2673 135.527C53.2673 136.223 53.111 136.844 52.7985 137.391C52.4896 137.935 52.0634 138.364 51.5201 138.68C50.9768 138.993 50.3589 139.149 49.6664 139.149ZM60.9444 136.955V136.379C60.9444 135.982 61.026 135.618 61.1894 135.287C61.3563 134.953 61.5978 134.687 61.9138 134.488C62.2334 134.286 62.6205 134.185 63.0751 134.185C63.5367 134.185 63.9238 134.286 64.2363 134.488C64.5488 134.687 64.7849 134.953 64.9447 135.287C65.1045 135.618 65.1844 135.982 65.1844 136.379V136.955C65.1844 137.352 65.1028 137.718 64.9394 138.052C64.7796 138.382 64.5417 138.648 64.2256 138.851C63.9131 139.05 63.5296 139.149 63.0751 139.149C62.6134 139.149 62.2246 139.05 61.9085 138.851C61.5925 138.648 61.3528 138.382 61.1894 138.052C61.026 137.718 60.9444 137.352 60.9444 136.955ZM62.031 136.379V136.955C62.031 137.285 62.1091 137.581 62.2654 137.844C62.4216 138.103 62.6915 138.233 63.0751 138.233C63.4479 138.233 63.7107 138.103 63.8634 137.844C64.0197 137.581 64.0978 137.285 64.0978 136.955V136.379C64.0978 136.049 64.0232 135.754 63.8741 135.495C63.7249 135.232 63.4586 135.101 63.0751 135.101C62.7022 135.101 62.4341 135.232 62.2707 135.495C62.1109 135.754 62.031 136.049 62.031 136.379ZM55.5111 130.712V130.136C55.5111 129.739 55.5928 129.375 55.7562 129.044C55.9231 128.711 56.1645 128.444 56.4806 128.245C56.8002 128.043 57.1873 127.942 57.6418 127.942C58.1035 127.942 58.4905 128.043 58.803 128.245C59.1155 128.444 59.3517 128.711 59.5115 129.044C59.6713 129.375 59.7512 129.739 59.7512 130.136V130.712C59.7512 131.109 59.6695 131.475 59.5062 131.809C59.3464 132.139 59.1084 132.406 58.7924 132.608C58.4799 132.807 58.0964 132.906 57.6418 132.906C57.1802 132.906 56.7913 132.807 56.4753 132.608C56.1592 132.406 55.9195 132.139 55.7562 131.809C55.5928 131.475 55.5111 131.109 55.5111 130.712ZM56.5978 130.136V130.712C56.5978 131.042 56.6759 131.338 56.8322 131.601C56.9884 131.86 57.2583 131.99 57.6418 131.99C58.0147 131.99 58.2775 131.86 58.4302 131.601C58.5864 131.338 58.6645 131.042 58.6645 130.712V130.136C58.6645 129.806 58.59 129.511 58.4408 129.252C58.2917 128.989 58.0253 128.858 57.6418 128.858C57.2689 128.858 57.0008 128.989 56.8375 129.252C56.6777 129.511 56.5978 129.806 56.5978 130.136ZM55.916 139L63.416 128.091H64.6304L57.1304 139H55.916Z" fill="white"/>
<path d="M32.3859 46H71.7609L68.1796 86.4306L52.0302 91L35.9727 86.4287L32.3859 46ZM45.569 64.2812L45.134 59.185L63.9946 59.1906L64.4259 54.2744L39.7209 54.2687L41.0296 69.2875H58.1409L57.5296 75.7113L52.0734 77.2188L46.5327 75.7L46.1802 71.7437H41.2884L41.9071 79.5644L52.0734 82.2831L62.159 79.5775L63.554 64.2831H45.569V64.2812Z" fill="url(#paint0_linear_109_143)"/>
<defs>
<linearGradient id="paint0_linear_109_143" x1="69.9785" y1="44.74" x2="29.6598" y2="87.8977" gradientUnits="userSpaceOnUse">
<stop offset="0.09375" stop-color="white"/>
<stop offset="1" stop-color="white" stop-opacity="0.2"/>
</linearGradient>
</defs>
</svg>
