<svg width="103" height="155" viewBox="0 0 103 155" fill="none" xmlns="http://www.w3.org/2000/svg">
<rect width="102.573" height="154.907" rx="30" fill="white" fill-opacity="0.06"/>
<mask id="mask0_109_161" style="mask-type:alpha" maskUnits="userSpaceOnUse" x="0" y="0" width="103" height="155">
<rect width="102.573" height="154.907" rx="30" fill="white"/>
</mask>
<g mask="url(#mask0_109_161)">
<path d="M78.5 48.7267C89.9226 49.1746 102.573 55.1067 102.573 55.1067V76.7676V180.083H4.57764e-05V76.7676V55.1067C4.57764e-05 55.1067 12.785 60.3408 25.12 60.7633C43.8204 61.4039 59.8031 47.9936 78.5 48.7267Z" fill="#D78B1A"/>
<path d="M24.1735 49.018C12.7034 49.2966 0 52.9858 0 52.9858V66.4566V160H103V66.4566V52.9858C103 52.9858 90.1619 56.2409 77.7755 56.5036C58.9974 56.902 42.9482 48.5621 24.1735 49.018Z" fill="#FFB039"/>
</g>
<path d="M20.5958 110.091H21.9168V117.889C21.9168 118.585 21.789 119.176 21.5333 119.663C21.2776 120.15 20.9172 120.519 20.452 120.771C19.9868 121.023 19.4381 121.149 18.806 121.149C18.2094 121.149 17.6785 121.041 17.2133 120.824C16.7481 120.604 16.3824 120.292 16.116 119.887C15.8497 119.482 15.7165 119.001 15.7165 118.443H17.0162C17.0162 118.752 17.0926 119.022 17.2453 119.253C17.4015 119.48 17.6146 119.658 17.8845 119.786C18.1544 119.913 18.4616 119.977 18.806 119.977C19.186 119.977 19.5091 119.897 19.7755 119.738C20.0418 119.578 20.2442 119.343 20.3827 119.034C20.5248 118.722 20.5958 118.34 20.5958 117.889V110.091ZM26.8014 121.192C26.2829 121.192 25.8124 121.094 25.3898 120.899C24.9672 120.7 24.6317 120.414 24.3831 120.041C24.1345 119.665 24.0102 119.21 24.0102 118.678C24.0102 118.209 24.1025 117.829 24.2872 117.538C24.4719 117.243 24.7187 117.012 25.0276 116.845C25.3366 116.678 25.6775 116.554 26.0503 116.472C26.4268 116.387 26.805 116.32 27.1849 116.27C27.6821 116.206 28.0851 116.158 28.3941 116.126C28.7066 116.091 28.9339 116.032 29.0759 115.95C29.2215 115.869 29.2943 115.727 29.2943 115.524V115.482C29.2943 114.956 29.1505 114.548 28.8628 114.256C28.5787 113.965 28.1473 113.82 27.5684 113.82C26.9683 113.82 26.4978 113.951 26.1569 114.214C25.816 114.477 25.5763 114.757 25.4378 115.055L24.2446 114.629C24.4577 114.132 24.7417 113.745 25.0969 113.468C25.4555 113.187 25.8461 112.992 26.2687 112.882C26.6949 112.768 27.1139 112.712 27.5258 112.712C27.7886 112.712 28.0905 112.744 28.4314 112.808C28.7758 112.868 29.1079 112.994 29.4275 113.186C29.7506 113.377 30.0187 113.667 30.2318 114.054C30.4449 114.441 30.5514 114.96 30.5514 115.609V121H29.2943V119.892H29.2304C29.1452 120.07 29.0031 120.26 28.8042 120.462C28.6054 120.664 28.3408 120.837 28.0106 120.979C27.6803 121.121 27.2773 121.192 26.8014 121.192ZM26.9932 120.062C27.4903 120.062 27.9094 119.965 28.2503 119.77C28.5947 119.574 28.854 119.322 29.028 119.013C29.2055 118.704 29.2943 118.379 29.2943 118.038V116.888C29.241 116.952 29.1238 117.01 28.9427 117.064C28.7652 117.113 28.5592 117.158 28.3248 117.197C28.094 117.232 27.8685 117.264 27.6483 117.293C27.4317 117.317 27.2559 117.339 27.121 117.357C26.7943 117.399 26.4889 117.468 26.2048 117.564C25.9243 117.657 25.697 117.797 25.523 117.985C25.3525 118.17 25.2673 118.422 25.2673 118.741C25.2673 119.178 25.4289 119.509 25.752 119.732C26.0787 119.952 26.4925 120.062 26.9932 120.062ZM39.2433 112.818L36.2177 121H34.9393L31.9137 112.818H33.2773L35.5359 119.338H35.6211L37.8796 112.818H39.2433ZM43.0612 121.192C42.5427 121.192 42.0722 121.094 41.6496 120.899C41.227 120.7 40.8914 120.414 40.6428 120.041C40.3943 119.665 40.27 119.21 40.27 118.678C40.27 118.209 40.3623 117.829 40.547 117.538C40.7316 117.243 40.9784 117.012 41.2874 116.845C41.5963 116.678 41.9372 116.554 42.3101 116.472C42.6865 116.387 43.0647 116.32 43.4447 116.27C43.9419 116.206 44.3449 116.158 44.6539 116.126C44.9664 116.091 45.1936 116.032 45.3357 115.95C45.4813 115.869 45.5541 115.727 45.5541 115.524V115.482C45.5541 114.956 45.4102 114.548 45.1226 114.256C44.8385 113.965 44.407 113.82 43.8282 113.82C43.2281 113.82 42.7575 113.951 42.4166 114.214C42.0757 114.477 41.836 114.757 41.6975 115.055L40.5044 114.629C40.7174 114.132 41.0015 113.745 41.3566 113.468C41.7153 113.187 42.1059 112.992 42.5285 112.882C42.9546 112.768 43.3737 112.712 43.7856 112.712C44.0484 112.712 44.3502 112.744 44.6911 112.808C45.0356 112.868 45.3676 112.994 45.6872 113.186C46.0104 113.377 46.2785 113.667 46.4916 114.054C46.7046 114.441 46.8112 114.96 46.8112 115.609V121H45.5541V119.892H45.4901C45.4049 120.07 45.2629 120.26 45.064 120.462C44.8651 120.664 44.6006 120.837 44.2703 120.979C43.9401 121.121 43.537 121.192 43.0612 121.192ZM43.2529 120.062C43.7501 120.062 44.1691 119.965 44.51 119.77C44.8545 119.574 45.1137 119.322 45.2877 119.013C45.4653 118.704 45.5541 118.379 45.5541 118.038V116.888C45.5008 116.952 45.3836 117.01 45.2025 117.064C45.0249 117.113 44.819 117.158 44.5846 117.197C44.3538 117.232 44.1283 117.264 43.9081 117.293C43.6915 117.317 43.5157 117.339 43.3808 117.357C43.0541 117.399 42.7487 117.468 42.4646 117.564C42.184 117.657 41.9568 117.797 41.7828 117.985C41.6123 118.17 41.5271 118.422 41.5271 118.741C41.5271 119.178 41.6887 119.509 42.0118 119.732C42.3385 119.952 42.7522 120.062 43.2529 120.062ZM54.9011 114.651L53.7718 114.97C53.7008 114.782 53.5961 114.599 53.4576 114.422C53.3226 114.24 53.138 114.091 52.9036 113.974C52.6692 113.857 52.3691 113.798 52.0034 113.798C51.5027 113.798 51.0854 113.914 50.7516 114.145C50.4213 114.372 50.2562 114.661 50.2562 115.013C50.2562 115.325 50.3699 115.572 50.5971 115.753C50.8244 115.934 51.1795 116.085 51.6625 116.206L52.877 116.504C53.6085 116.682 54.1536 116.953 54.5123 117.319C54.8709 117.681 55.0502 118.148 55.0502 118.72C55.0502 119.189 54.9153 119.608 54.6454 119.977C54.3791 120.347 54.0062 120.638 53.5268 120.851C53.0474 121.064 52.4899 121.17 51.8542 121.17C51.0197 121.17 50.329 120.989 49.7821 120.627C49.2353 120.265 48.889 119.736 48.7434 119.04L49.9366 118.741C50.0502 119.182 50.2651 119.512 50.5811 119.732C50.9007 119.952 51.318 120.062 51.8329 120.062C52.4189 120.062 52.8841 119.938 53.2285 119.69C53.5765 119.437 53.7505 119.136 53.7505 118.784C53.7505 118.5 53.6511 118.262 53.4522 118.07C53.2534 117.875 52.948 117.729 52.536 117.634L51.1724 117.314C50.4231 117.136 49.8727 116.861 49.5211 116.488C49.1731 116.112 48.9991 115.641 48.9991 115.077C48.9991 114.615 49.1287 114.207 49.388 113.852C49.6507 113.496 50.0076 113.218 50.4586 113.015C50.9132 112.813 51.4281 112.712 52.0034 112.712C52.813 112.712 53.4487 112.889 53.9103 113.244C54.3755 113.599 54.7058 114.068 54.9011 114.651ZM60.2664 121.17C59.4994 121.17 58.8389 120.989 58.2849 120.627C57.7309 120.265 57.3048 119.766 57.0065 119.13C56.7082 118.495 56.559 117.768 56.559 116.952C56.559 116.121 56.7117 115.387 57.0171 114.752C57.3261 114.113 57.7558 113.614 58.3062 113.255C58.8602 112.893 59.5065 112.712 60.2451 112.712C60.8204 112.712 61.3389 112.818 61.8005 113.031C62.2622 113.244 62.6404 113.543 62.9351 113.926C63.2298 114.31 63.4127 114.757 63.4838 115.268H62.2267C62.1308 114.896 61.9177 114.565 61.5874 114.278C61.2607 113.987 60.8204 113.841 60.2664 113.841C59.7764 113.841 59.3467 113.969 58.9774 114.224C58.6116 114.477 58.3257 114.833 58.1198 115.295C57.9173 115.753 57.8161 116.291 57.8161 116.909C57.8161 117.541 57.9156 118.092 58.1144 118.56C58.3169 119.029 58.6009 119.393 58.9667 119.652C59.336 119.912 59.7693 120.041 60.2664 120.041C60.5931 120.041 60.8896 119.984 61.156 119.871C61.4223 119.757 61.6478 119.594 61.8325 119.381C62.0171 119.168 62.1485 118.912 62.2267 118.614H63.4838C63.4127 119.097 63.2369 119.532 62.9564 119.919C62.6794 120.302 62.3119 120.608 61.8538 120.835C61.3992 121.059 60.8701 121.17 60.2664 121.17ZM65.3215 121V112.818H66.536V114.054H66.6212C66.7703 113.649 67.0402 113.321 67.4308 113.069C67.8215 112.816 68.2618 112.69 68.7519 112.69C68.8442 112.69 68.9596 112.692 69.0981 112.696C69.2366 112.699 69.3414 112.705 69.4124 112.712V113.99C69.3698 113.979 69.2721 113.963 69.1194 113.942C68.9703 113.917 68.8122 113.905 68.6453 113.905C68.2476 113.905 67.8925 113.988 67.58 114.155C67.271 114.319 67.026 114.546 66.8449 114.837C66.6673 115.125 66.5786 115.453 66.5786 115.822V121H65.3215ZM70.9025 121V112.818H72.1596V121H70.9025ZM71.5417 111.455C71.2967 111.455 71.0854 111.371 70.9078 111.204C70.7338 111.037 70.6468 110.837 70.6468 110.602C70.6468 110.368 70.7338 110.167 70.9078 110C71.0854 109.833 71.2967 109.75 71.5417 109.75C71.7868 109.75 71.9963 109.833 72.1703 110C72.3478 110.167 72.4366 110.368 72.4366 110.602C72.4366 110.837 72.3478 111.037 72.1703 111.204C71.9963 111.371 71.7868 111.455 71.5417 111.455ZM74.4621 124.068V112.818H75.6766V114.118H75.8257C75.9181 113.976 76.0459 113.795 76.2093 113.575C76.3762 113.351 76.6141 113.152 76.923 112.978C77.2355 112.8 77.6581 112.712 78.1908 112.712C78.8797 112.712 79.4869 112.884 80.0125 113.228C80.5381 113.573 80.9482 114.061 81.243 114.693C81.5377 115.325 81.6851 116.071 81.6851 116.93C81.6851 117.797 81.5377 118.548 81.243 119.184C80.9482 119.816 80.5399 120.306 80.0178 120.654C79.4958 120.998 78.8939 121.17 78.2121 121.17C77.6865 121.17 77.2657 121.083 76.9497 120.909C76.6336 120.732 76.3904 120.531 76.2199 120.308C76.0494 120.08 75.9181 119.892 75.8257 119.743H75.7192V124.068H74.4621ZM75.6979 116.909C75.6979 117.527 75.7884 118.072 75.9695 118.544C76.1507 119.013 76.4152 119.381 76.7632 119.647C77.1112 119.91 77.5374 120.041 78.0416 120.041C78.5672 120.041 79.0058 119.903 79.3573 119.626C79.7124 119.345 79.9788 118.969 80.1563 118.496C80.3374 118.021 80.428 117.491 80.428 116.909C80.428 116.334 80.3392 115.815 80.1617 115.354C79.9877 114.888 79.7231 114.521 79.368 114.251C79.0164 113.978 78.5743 113.841 78.0416 113.841C77.5303 113.841 77.1006 113.971 76.7526 114.23C76.4046 114.485 76.1418 114.844 75.9642 115.306C75.7867 115.764 75.6979 116.298 75.6979 116.909ZM87.161 112.818V113.884H82.9209V112.818H87.161ZM84.1567 110.858H85.4138V118.656C85.4138 119.011 85.4653 119.278 85.5683 119.455C85.6748 119.629 85.8097 119.746 85.9731 119.807C86.14 119.864 86.3158 119.892 86.5004 119.892C86.6389 119.892 86.7526 119.885 86.8414 119.871C86.9301 119.853 87.0012 119.839 87.0544 119.828L87.3101 120.957C87.2249 120.989 87.1059 121.021 86.9532 121.053C86.8005 121.089 86.607 121.107 86.3726 121.107C86.0175 121.107 85.6695 121.03 85.3286 120.877C84.9912 120.725 84.7107 120.492 84.4869 120.18C84.2668 119.867 84.1567 119.473 84.1567 118.997V110.858ZM40.79 139.149C40.3426 139.142 39.8951 139.057 39.4477 138.893C39.0002 138.73 38.5918 138.455 38.2225 138.068C37.8532 137.677 37.5567 137.15 37.333 136.486C37.1092 135.818 36.9974 134.98 36.9974 133.972C36.9974 133.006 37.0879 132.15 37.269 131.404C37.4502 130.655 37.7129 130.025 38.0574 129.513C38.4019 128.998 38.8173 128.608 39.3038 128.341C39.7939 128.075 40.3461 127.942 40.9604 127.942C41.5712 127.942 42.1146 128.064 42.5904 128.309C43.0698 128.551 43.4604 128.888 43.7623 129.321C44.0641 129.755 44.2595 130.254 44.3482 130.818H43.0485C42.9278 130.328 42.6934 129.922 42.3454 129.598C41.9974 129.275 41.5357 129.114 40.9604 129.114C40.1153 129.114 39.4494 129.481 38.9629 130.216C38.48 130.951 38.2367 131.983 38.2332 133.311H38.3184C38.5173 133.009 38.7534 132.752 39.0269 132.539C39.3038 132.322 39.6092 132.155 39.943 132.038C40.2769 131.921 40.6302 131.862 41.0031 131.862C41.6281 131.862 42.1998 132.018 42.7183 132.331C43.2367 132.64 43.6522 133.068 43.9647 133.615C44.2772 134.158 44.4335 134.781 44.4335 135.484C44.4335 136.159 44.2825 136.777 43.9807 137.338C43.6788 137.896 43.2545 138.339 42.7076 138.67C42.1643 138.996 41.5251 139.156 40.79 139.149ZM40.79 137.977C41.2374 137.977 41.6387 137.865 41.9938 137.642C42.3525 137.418 42.6348 137.118 42.8408 136.741C43.0503 136.365 43.1551 135.946 43.1551 135.484C43.1551 135.033 43.0538 134.623 42.8514 134.254C42.6526 133.881 42.3774 133.585 42.0258 133.364C41.6778 133.144 41.2801 133.034 40.8326 133.034C40.4953 133.034 40.181 133.102 39.8898 133.237C39.5986 133.368 39.3429 133.549 39.1227 133.78C38.9061 134.011 38.7357 134.275 38.6114 134.574C38.4871 134.868 38.4249 135.179 38.4249 135.506C38.4249 135.939 38.5261 136.344 38.7286 136.72C38.9345 137.097 39.2151 137.4 39.5702 137.631C39.9288 137.862 40.3354 137.977 40.79 137.977ZM50.0864 139.149C49.2839 139.149 48.6003 138.931 48.0356 138.494C47.471 138.054 47.0396 137.416 46.7413 136.582C46.443 135.744 46.2938 134.732 46.2938 133.545C46.2938 132.366 46.443 131.36 46.7413 130.525C47.0431 129.687 47.4763 129.048 48.041 128.608C48.6092 128.164 49.291 127.942 50.0864 127.942C50.8819 127.942 51.5619 128.164 52.1266 128.608C52.6947 129.048 53.128 129.687 53.4263 130.525C53.7281 131.36 53.879 132.366 53.879 133.545C53.879 134.732 53.7299 135.744 53.4316 136.582C53.1333 137.416 52.7018 138.054 52.1372 138.494C51.5726 138.931 50.889 139.149 50.0864 139.149ZM50.0864 137.977C50.8819 137.977 51.4998 137.594 51.9401 136.827C52.3805 136.06 52.6006 134.966 52.6006 133.545C52.6006 132.601 52.4994 131.797 52.297 131.132C52.0981 130.468 51.8105 129.962 51.4341 129.614C51.0612 129.266 50.612 129.092 50.0864 129.092C49.2981 129.092 48.682 129.481 48.2381 130.259C47.7942 131.033 47.5722 132.129 47.5722 133.545C47.5722 134.49 47.6717 135.293 47.8705 135.953C48.0694 136.614 48.3552 137.116 48.7281 137.461C49.1045 137.805 49.5573 137.977 50.0864 137.977ZM61.4643 136.955V136.379C61.4643 135.982 61.5459 135.618 61.7093 135.287C61.8762 134.953 62.1177 134.687 62.4337 134.488C62.7533 134.286 63.1404 134.185 63.5949 134.185C64.0566 134.185 64.4437 134.286 64.7562 134.488C65.0687 134.687 65.3048 134.953 65.4646 135.287C65.6244 135.618 65.7043 135.982 65.7043 136.379V136.955C65.7043 137.352 65.6226 137.718 65.4593 138.052C65.2995 138.382 65.0616 138.648 64.7455 138.851C64.433 139.05 64.0495 139.149 63.5949 139.149C63.1333 139.149 62.7445 139.05 62.4284 138.851C62.1123 138.648 61.8726 138.382 61.7093 138.052C61.5459 137.718 61.4643 137.352 61.4643 136.955ZM62.5509 136.379V136.955C62.5509 137.285 62.629 137.581 62.7853 137.844C62.9415 138.103 63.2114 138.233 63.5949 138.233C63.9678 138.233 64.2306 138.103 64.3833 137.844C64.5396 137.581 64.6177 137.285 64.6177 136.955V136.379C64.6177 136.049 64.5431 135.754 64.394 135.495C64.2448 135.232 63.9785 135.101 63.5949 135.101C63.2221 135.101 62.954 135.232 62.7906 135.495C62.6308 135.754 62.5509 136.049 62.5509 136.379ZM56.031 130.712V130.136C56.031 129.739 56.1127 129.375 56.2761 129.044C56.443 128.711 56.6844 128.444 57.0005 128.245C57.3201 128.043 57.7072 127.942 58.1617 127.942C58.6234 127.942 59.0104 128.043 59.3229 128.245C59.6354 128.444 59.8716 128.711 60.0314 129.044C60.1912 129.375 60.2711 129.739 60.2711 130.136V130.712C60.2711 131.109 60.1894 131.475 60.0261 131.809C59.8663 132.139 59.6283 132.406 59.3123 132.608C58.9998 132.807 58.6163 132.906 58.1617 132.906C57.7001 132.906 57.3112 132.807 56.9952 132.608C56.6791 132.406 56.4394 132.139 56.2761 131.809C56.1127 131.475 56.031 131.109 56.031 130.712ZM57.1177 130.136V130.712C57.1177 131.042 57.1958 131.338 57.3521 131.601C57.5083 131.86 57.7782 131.99 58.1617 131.99C58.5346 131.99 58.7974 131.86 58.9501 131.601C59.1063 131.338 59.1844 131.042 59.1844 130.712V130.136C59.1844 129.806 59.1099 129.511 58.9607 129.252C58.8116 128.989 58.5452 128.858 58.1617 128.858C57.7888 128.858 57.5207 128.989 57.3574 129.252C57.1976 129.511 57.1177 129.806 57.1177 130.136ZM56.4359 139L63.9359 128.091H65.1503L57.6503 139H56.4359Z" fill="white"/>
<path d="M29 51H74V96H29V51ZM70.3138 85.2675C69.9856 83.2144 68.6488 81.4894 64.6831 79.8806C63.3031 79.2337 61.7694 78.7837 61.3137 77.7431C61.1431 77.1244 61.1169 76.7869 61.2275 76.4212C61.5088 75.21 62.9431 74.8462 64.0681 75.1838C64.7994 75.4087 65.4744 75.9713 65.8981 76.8713C67.8369 75.6038 67.8369 75.6038 69.1888 74.7619C68.6825 73.9744 68.4312 73.635 68.09 73.2994C66.9087 71.9775 65.3356 71.3025 62.7762 71.3606L61.4544 71.5275C60.1869 71.8369 58.9794 72.5119 58.2481 73.4119C56.1106 75.8325 56.7275 80.0513 59.315 81.795C61.8744 83.7075 65.6169 84.1275 66.095 85.9294C66.545 88.1231 64.4638 88.8262 62.4088 88.5731C60.8881 88.2356 60.0462 87.4744 59.1181 86.0681L55.6869 88.0387C56.0806 88.9388 56.5306 89.3306 57.2056 90.1181C60.4681 93.4106 68.6244 93.2419 70.0887 88.2356C70.1431 88.0669 70.5388 86.9137 70.2275 85.1419L70.3138 85.2675ZM53.4706 71.6831H49.2556C49.2556 75.3169 49.2387 78.9281 49.2387 82.5675C49.2387 84.8775 49.3569 86.9981 48.98 87.6506C48.3612 88.9425 46.7675 88.7775 46.0438 88.5506C45.3013 88.1831 44.9244 87.6769 44.4875 86.9475C44.3694 86.7506 44.2813 86.58 44.2494 86.58L40.8275 88.6894C41.3994 89.8706 42.2338 90.8869 43.31 91.5337C44.9131 92.49 47.0675 92.7994 49.3231 92.2931C50.7913 91.8694 52.0569 90.9975 52.7188 89.6475C53.675 87.9037 53.4725 85.7663 53.4631 83.3738C53.4856 79.5225 53.4631 75.6694 53.4631 71.7881L53.4706 71.6831Z" fill="url(#paint0_linear_109_161)"/>
<defs>
<linearGradient id="paint0_linear_109_161" x1="71.963" y1="49.74" x2="32.3583" y2="98.1897" gradientUnits="userSpaceOnUse">
<stop offset="0.09375" stop-color="white"/>
<stop offset="1" stop-color="white" stop-opacity="0.2"/>
</linearGradient>
</defs>
</svg>
