<svg width="103" height="156" viewBox="0 0 103 156" fill="none" xmlns="http://www.w3.org/2000/svg">
<rect x="0.146729" width="102.573" height="154.907" rx="30" fill="white" fill-opacity="0.06"/>
<mask id="mask0_3_671" style="mask-type:alpha" maskUnits="userSpaceOnUse" x="0" y="1" width="103" height="155">
<rect x="0.146729" y="1.04669" width="102.573" height="154.907" rx="30" fill="white"/>
</mask>
<g mask="url(#mask0_3_671)">
<path d="M78.6468 15.7C90.0693 16.1479 102.72 22.08 102.72 22.08V43.7409V147.057H0.146774V43.7409V22.08C0.146774 22.08 12.9317 27.3142 25.2668 27.7367C43.9671 28.3772 59.9498 14.9669 78.6468 15.7Z" fill="#212121"/>
<path d="M24.1735 -13.9724C12.7034 -13.5458 0 -7.89568 0 -7.89568V12.7354V156H103V12.7354V-7.89568C103 -7.89568 90.1619 -2.91038 77.7755 -2.50796C58.9974 -1.89788 42.9482 -14.6706 24.1735 -13.9724Z" fill="#1B1B1B"/>
</g>
<path d="M30.9712 121V110.091H37.5124V111.263H32.2922V114.949H37.0223V116.121H32.2922V121H30.9712ZM39.6044 121V112.818H40.8615V121H39.6044ZM40.2436 111.455C39.9986 111.455 39.7873 111.371 39.6098 111.204C39.4357 111.037 39.3487 110.837 39.3487 110.602C39.3487 110.368 39.4357 110.167 39.6098 110C39.7873 109.833 39.9986 109.75 40.2436 109.75C40.4887 109.75 40.6982 109.833 40.8722 110C41.0497 110.167 41.1385 110.368 41.1385 110.602C41.1385 110.837 41.0497 111.037 40.8722 111.204C40.6982 111.371 40.4887 111.455 40.2436 111.455ZM46.4666 124.239C45.8593 124.239 45.3373 124.161 44.9005 124.004C44.4637 123.852 44.0997 123.649 43.8085 123.397C43.5209 123.148 43.2918 122.882 43.1214 122.598L44.1228 121.895C44.2364 122.044 44.3803 122.214 44.5543 122.406C44.7283 122.602 44.9662 122.77 45.268 122.912C45.5734 123.058 45.9729 123.131 46.4666 123.131C47.1271 123.131 47.6722 122.971 48.1019 122.651C48.5315 122.332 48.7464 121.831 48.7464 121.149V119.487H48.6398C48.5475 119.636 48.4161 119.821 48.2457 120.041C48.0788 120.258 47.8373 120.451 47.5212 120.622C47.2087 120.789 46.7862 120.872 46.2535 120.872C45.593 120.872 44.9999 120.716 44.4744 120.403C43.9523 120.091 43.5386 119.636 43.2332 119.04C42.9314 118.443 42.7805 117.719 42.7805 116.866C42.7805 116.028 42.9278 115.299 43.2226 114.677C43.5173 114.052 43.9275 113.569 44.4531 113.228C44.9786 112.884 45.5859 112.712 46.2748 112.712C46.8075 112.712 47.23 112.8 47.5425 112.978C47.8586 113.152 48.1001 113.351 48.267 113.575C48.4374 113.795 48.5688 113.976 48.6612 114.118H48.789V112.818H50.0035V121.234C50.0035 121.938 49.8437 122.509 49.5241 122.95C49.208 123.393 48.7819 123.718 48.2457 123.924C47.713 124.134 47.12 124.239 46.4666 124.239ZM46.4239 119.743C46.9282 119.743 47.3543 119.627 47.7023 119.397C48.0504 119.166 48.3149 118.834 48.496 118.401C48.6771 117.967 48.7677 117.449 48.7677 116.845C48.7677 116.256 48.6789 115.735 48.5014 115.284C48.3238 114.833 48.061 114.48 47.713 114.224C47.365 113.969 46.9353 113.841 46.4239 113.841C45.8913 113.841 45.4474 113.976 45.0923 114.246C44.7407 114.516 44.4761 114.878 44.2986 115.332C44.1246 115.787 44.0376 116.291 44.0376 116.845C44.0376 117.413 44.1264 117.916 44.3039 118.353C44.485 118.786 44.7514 119.127 45.1029 119.375C45.458 119.62 45.8984 119.743 46.4239 119.743ZM52.3046 121V112.818H53.5191V114.097H53.6256C53.7961 113.66 54.0713 113.321 54.4513 113.079C54.8313 112.834 55.2876 112.712 55.8202 112.712C56.36 112.712 56.8092 112.834 57.1679 113.079C57.5301 113.321 57.8124 113.66 58.0148 114.097H58.1001C58.3096 113.674 58.6239 113.338 59.0429 113.09C59.4619 112.838 59.9644 112.712 60.5504 112.712C61.2819 112.712 61.8803 112.941 62.3455 113.399C62.8107 113.853 63.0433 114.562 63.0433 115.524V121H61.7862V115.524C61.7862 114.92 61.621 114.489 61.2908 114.23C60.9605 113.971 60.5717 113.841 60.1242 113.841C59.5489 113.841 59.1033 114.015 58.7872 114.363C58.4712 114.707 58.3131 115.144 58.3131 115.673V121H57.0347V115.396C57.0347 114.931 56.8838 114.556 56.582 114.272C56.2801 113.985 55.8913 113.841 55.4154 113.841C55.0887 113.841 54.7833 113.928 54.4992 114.102C54.2187 114.276 53.9914 114.517 53.8174 114.826C53.647 115.132 53.5617 115.485 53.5617 115.886V121H52.3046ZM67.7494 121.192C67.2309 121.192 66.7604 121.094 66.3378 120.899C65.9152 120.7 65.5797 120.414 65.3311 120.041C65.0825 119.665 64.9582 119.21 64.9582 118.678C64.9582 118.209 65.0505 117.829 65.2352 117.538C65.4199 117.243 65.6667 117.012 65.9756 116.845C66.2846 116.678 66.6255 116.554 66.9983 116.472C67.3748 116.387 67.753 116.32 68.1329 116.27C68.6301 116.206 69.0331 116.158 69.3421 116.126C69.6546 116.091 69.8819 116.032 70.0239 115.95C70.1695 115.869 70.2423 115.727 70.2423 115.524V115.482C70.2423 114.956 70.0985 114.548 69.8108 114.256C69.5267 113.965 69.0953 113.82 68.5164 113.82C67.9163 113.82 67.4458 113.951 67.1049 114.214C66.764 114.477 66.5243 114.757 66.3858 115.055L65.1926 114.629C65.4057 114.132 65.6897 113.745 66.0449 113.468C66.4035 113.187 66.7941 112.992 67.2167 112.882C67.6429 112.768 68.0619 112.712 68.4738 112.712C68.7366 112.712 69.0385 112.744 69.3794 112.808C69.7238 112.868 70.0559 112.994 70.3755 113.186C70.6986 113.377 70.9667 113.667 71.1798 114.054C71.3929 114.441 71.4994 114.96 71.4994 115.609V121H70.2423V119.892H70.1784C70.0932 120.07 69.9511 120.26 69.7522 120.462C69.5534 120.664 69.2888 120.837 68.9586 120.979C68.6283 121.121 68.2253 121.192 67.7494 121.192ZM67.9412 120.062C68.4383 120.062 68.8574 119.965 69.1983 119.77C69.5427 119.574 69.802 119.322 69.976 119.013C70.1535 118.704 70.2423 118.379 70.2423 118.038V116.888C70.189 116.952 70.0718 117.01 69.8907 117.064C69.7132 117.113 69.5072 117.158 69.2728 117.197C69.042 117.232 68.8165 117.264 68.5963 117.293C68.3797 117.317 68.2039 117.339 68.069 117.357C67.7423 117.399 67.4369 117.468 67.1528 117.564C66.8723 117.657 66.645 117.797 66.471 117.985C66.3005 118.17 66.2153 118.422 66.2153 118.741C66.2153 119.178 66.3769 119.509 66.7 119.732C67.0267 119.952 67.4405 120.062 67.9412 120.062ZM37.1561 128.091V139H35.8351V129.476H35.7712L33.1078 131.244V129.902L35.8351 128.091H37.1561ZM43.8518 139.149C43.0492 139.149 42.3657 138.931 41.801 138.494C41.2364 138.054 40.8049 137.416 40.5066 136.582C40.2083 135.744 40.0592 134.732 40.0592 133.545C40.0592 132.366 40.2083 131.36 40.5066 130.525C40.8085 129.687 41.2417 129.048 41.8064 128.608C42.3745 128.164 43.0564 127.942 43.8518 127.942C44.6473 127.942 45.3273 128.164 45.8919 128.608C46.4601 129.048 46.8934 129.687 47.1917 130.525C47.4935 131.36 47.6444 132.366 47.6444 133.545C47.6444 134.732 47.4953 135.744 47.197 136.582C46.8987 137.416 46.4672 138.054 45.9026 138.494C45.338 138.931 44.6544 139.149 43.8518 139.149ZM43.8518 137.977C44.6473 137.977 45.2652 137.594 45.7055 136.827C46.1458 136.06 46.366 134.966 46.366 133.545C46.366 132.601 46.2648 131.797 46.0624 131.132C45.8635 130.468 45.5759 129.962 45.1995 129.614C44.8266 129.266 44.3774 129.092 43.8518 129.092C43.0635 129.092 42.4473 129.481 42.0034 130.259C41.5595 131.033 41.3376 132.129 41.3376 133.545C41.3376 134.49 41.437 135.293 41.6359 135.953C41.8348 136.614 42.1206 137.116 42.4935 137.461C42.8699 137.805 43.3227 137.977 43.8518 137.977ZM53.2268 139.149C52.4242 139.149 51.7407 138.931 51.176 138.494C50.6114 138.054 50.1799 137.416 49.8816 136.582C49.5833 135.744 49.4342 134.732 49.4342 133.545C49.4342 132.366 49.5833 131.36 49.8816 130.525C50.1835 129.687 50.6167 129.048 51.1814 128.608C51.7495 128.164 52.4314 127.942 53.2268 127.942C54.0223 127.942 54.7023 128.164 55.2669 128.608C55.8351 129.048 56.2684 129.687 56.5667 130.525C56.8685 131.36 57.0194 132.366 57.0194 133.545C57.0194 134.732 56.8703 135.744 56.572 136.582C56.2737 137.416 55.8422 138.054 55.2776 138.494C54.713 138.931 54.0294 139.149 53.2268 139.149ZM53.2268 137.977C54.0223 137.977 54.6402 137.594 55.0805 136.827C55.5208 136.06 55.741 134.966 55.741 133.545C55.741 132.601 55.6398 131.797 55.4374 131.132C55.2385 130.468 54.9509 129.962 54.5745 129.614C54.2016 129.266 53.7524 129.092 53.2268 129.092C52.4385 129.092 51.8223 129.481 51.3784 130.259C50.9345 131.033 50.7126 132.129 50.7126 133.545C50.7126 134.49 50.812 135.293 51.0109 135.953C51.2098 136.614 51.4956 137.116 51.8685 137.461C52.2449 137.805 52.6977 137.977 53.2268 137.977ZM64.6046 136.955V136.379C64.6046 135.982 64.6863 135.618 64.8497 135.287C65.0166 134.953 65.2581 134.687 65.5741 134.488C65.8937 134.286 66.2808 134.185 66.7353 134.185C67.197 134.185 67.5841 134.286 67.8966 134.488C68.2091 134.687 68.4452 134.953 68.605 135.287C68.7648 135.618 68.8447 135.982 68.8447 136.379V136.955C68.8447 137.352 68.763 137.718 68.5997 138.052C68.4399 138.382 68.2019 138.648 67.8859 138.851C67.5734 139.05 67.1899 139.149 66.7353 139.149C66.2737 139.149 65.8848 139.05 65.5688 138.851C65.2527 138.648 65.013 138.382 64.8497 138.052C64.6863 137.718 64.6046 137.352 64.6046 136.955ZM65.6913 136.379V136.955C65.6913 137.285 65.7694 137.581 65.9257 137.844C66.0819 138.103 66.3518 138.233 66.7353 138.233C67.1082 138.233 67.371 138.103 67.5237 137.844C67.6799 137.581 67.7581 137.285 67.7581 136.955V136.379C67.7581 136.049 67.6835 135.754 67.5343 135.495C67.3852 135.232 67.1189 135.101 66.7353 135.101C66.3625 135.101 66.0943 135.232 65.931 135.495C65.7712 135.754 65.6913 136.049 65.6913 136.379ZM59.1714 130.712V130.136C59.1714 129.739 59.2531 129.375 59.4164 129.044C59.5833 128.711 59.8248 128.444 60.1409 128.245C60.4605 128.043 60.8475 127.942 61.3021 127.942C61.7637 127.942 62.1508 128.043 62.4633 128.245C62.7758 128.444 63.012 128.711 63.1718 129.044C63.3316 129.375 63.4115 129.739 63.4115 130.136V130.712C63.4115 131.109 63.3298 131.475 63.1664 131.809C63.0066 132.139 62.7687 132.406 62.4527 132.608C62.1402 132.807 61.7566 132.906 61.3021 132.906C60.8404 132.906 60.4516 132.807 60.1355 132.608C59.8195 132.406 59.5798 132.139 59.4164 131.809C59.2531 131.475 59.1714 131.109 59.1714 130.712ZM60.2581 130.136V130.712C60.2581 131.042 60.3362 131.338 60.4924 131.601C60.6487 131.86 60.9186 131.99 61.3021 131.99C61.675 131.99 61.9377 131.86 62.0904 131.601C62.2467 131.338 62.3248 131.042 62.3248 130.712V130.136C62.3248 129.806 62.2502 129.511 62.1011 129.252C61.9519 128.989 61.6856 128.858 61.3021 128.858C60.9292 128.858 60.6611 128.989 60.4978 129.252C60.338 129.511 60.2581 129.806 60.2581 130.136ZM59.5762 139L67.0762 128.091H68.2907L60.7907 139H59.5762Z" fill="white"/>
<g clip-path="url(#clip0_3_671)">
<path d="M46.377 78.5C49.263 78.5 51.6053 76.1555 51.6053 73.2667V68.0333H46.377C43.4911 68.0333 41.1488 70.3779 41.1488 73.2667C41.1488 76.1555 43.4911 78.5 46.377 78.5Z" fill="#0ACF83"/>
<path d="M41.1488 62.8C41.1488 59.9112 43.4911 57.5667 46.377 57.5667H51.6053V68.0333H46.377C43.4911 68.0333 41.1488 65.6888 41.1488 62.8Z" fill="#A259FF"/>
<path d="M41.1487 52.3333C41.1487 49.4445 43.4909 47.1 46.3769 47.1H51.6052V57.5666H46.3769C43.4909 57.5666 41.1487 55.2221 41.1487 52.3333Z" fill="#F24E1E"/>
<path d="M51.6053 47.1H56.8335C59.7195 47.1 62.0618 49.4445 62.0618 52.3333C62.0618 55.2221 59.7195 57.5666 56.8335 57.5666H51.6053V47.1Z" fill="#FF7262"/>
<path d="M62.0618 62.8C62.0618 65.6888 59.7195 68.0333 56.8335 68.0333C53.9475 68.0333 51.6053 65.6888 51.6053 62.8C51.6053 59.9112 53.9475 57.5667 56.8335 57.5667C59.7195 57.5667 62.0618 59.9112 62.0618 62.8Z" fill="#1ABCFE"/>
</g>
<defs>
<clipPath id="clip0_3_671">
<rect width="20.9172" height="31.4" fill="white" transform="translate(41.1467 47.1)"/>
</clipPath>
</defs>
</svg>
