<svg width="104" height="155" viewBox="0 0 104 155" fill="none" xmlns="http://www.w3.org/2000/svg">
<rect x="0.573364" width="102.573" height="154.907" rx="30" fill="white" fill-opacity="0.06"/>
<mask id="mask0_3_655" style="mask-type:alpha" maskUnits="userSpaceOnUse" x="0" y="0" width="104" height="155">
<rect x="0.573364" width="102.573" height="154.907" rx="30" fill="white"/>
</mask>
<g mask="url(#mask0_3_655)">
<path d="M79.0734 48.7266C90.4959 49.1745 103.147 55.1067 103.147 55.1067V76.7675V180.083H0.57341V76.7675V55.1067C0.57341 55.1067 13.3583 60.3408 25.6934 60.7633C44.3938 61.4038 60.3764 47.9935 79.0734 48.7266Z" fill="#DB8A10"/>
<path d="M24.9388 51.0169C13.5801 51.2779 1 54.7344 1 54.7344V67.3558V155H103V67.3558V54.7344C103 54.7344 90.2866 57.7842 78.0204 58.0304C59.4246 58.4036 43.5312 50.5897 24.9388 51.0169Z" fill="#FFB039"/>
</g>
<path d="M22.4869 110.091V121H21.1659V110.091H22.4869ZM26.2222 110.091V121H24.9651V110.091H26.2222ZM33.681 117.655V112.818H34.9381V121H33.681V119.615H33.5957C33.404 120.031 33.1057 120.384 32.7009 120.675C32.296 120.963 31.7847 121.107 31.1668 121.107C30.6554 121.107 30.2009 120.995 29.8031 120.771C29.4054 120.544 29.0929 120.203 28.8656 119.748C28.6384 119.29 28.5247 118.713 28.5247 118.017V112.818H29.7818V117.932C29.7818 118.528 29.9487 119.004 30.2825 119.359C30.6199 119.714 31.0496 119.892 31.5716 119.892C31.8841 119.892 32.2019 119.812 32.5251 119.652C32.8518 119.493 33.1252 119.248 33.3454 118.917C33.5691 118.587 33.681 118.166 33.681 117.655ZM43.036 114.651L41.9067 114.97C41.8357 114.782 41.7309 114.599 41.5925 114.422C41.4575 114.24 41.2728 114.091 41.0385 113.974C40.8041 113.857 40.504 113.798 40.1383 113.798C39.6376 113.798 39.2203 113.914 38.8865 114.145C38.5562 114.372 38.3911 114.661 38.3911 115.013C38.3911 115.325 38.5047 115.572 38.732 115.753C38.9593 115.934 39.3144 116.085 39.7974 116.206L41.0118 116.504C41.7434 116.682 42.2885 116.953 42.6471 117.319C43.0058 117.681 43.1851 118.148 43.1851 118.72C43.1851 119.189 43.0502 119.608 42.7803 119.977C42.514 120.347 42.1411 120.638 41.6617 120.851C41.1823 121.064 40.6248 121.17 39.9891 121.17C39.1546 121.17 38.4639 120.989 37.917 120.627C37.3702 120.265 37.0239 119.736 36.8783 119.04L38.0715 118.741C38.1851 119.182 38.4 119.512 38.716 119.732C39.0356 119.952 39.4529 120.062 39.9678 120.062C40.5537 120.062 41.0189 119.938 41.3634 119.69C41.7114 119.437 41.8854 119.136 41.8854 118.784C41.8854 118.5 41.786 118.262 41.5871 118.07C41.3883 117.875 41.0829 117.729 40.6709 117.634L39.3073 117.314C38.558 117.136 38.0076 116.861 37.656 116.488C37.308 116.112 37.134 115.641 37.134 115.077C37.134 114.615 37.2636 114.207 37.5228 113.852C37.7856 113.496 38.1425 113.218 38.5935 113.015C39.0481 112.813 39.563 112.712 40.1383 112.712C40.9479 112.712 41.5836 112.889 42.0452 113.244C42.5104 113.599 42.8407 114.068 43.036 114.651ZM48.6357 112.818V113.884H44.3956V112.818H48.6357ZM45.6314 110.858H46.8885V118.656C46.8885 119.011 46.94 119.278 47.043 119.455C47.1495 119.629 47.2845 119.746 47.4478 119.807C47.6147 119.864 47.7905 119.892 47.9752 119.892C48.1137 119.892 48.2273 119.885 48.3161 119.871C48.4049 119.853 48.4759 119.839 48.5292 119.828L48.7848 120.957C48.6996 120.989 48.5806 121.021 48.4279 121.053C48.2752 121.089 48.0817 121.107 47.8473 121.107C47.4922 121.107 47.1442 121.03 46.8033 120.877C46.4659 120.725 46.1854 120.492 45.9617 120.18C45.7415 119.867 45.6314 119.473 45.6314 118.997V110.858ZM50.5267 121V112.818H51.7412V114.054H51.8264C51.9755 113.649 52.2454 113.321 52.636 113.069C53.0267 112.816 53.467 112.69 53.9571 112.69C54.0494 112.69 54.1648 112.692 54.3033 112.696C54.4418 112.699 54.5466 112.705 54.6176 112.712V113.99C54.575 113.979 54.4773 113.963 54.3246 113.942C54.1755 113.917 54.0174 113.905 53.8505 113.905C53.4528 113.905 53.0977 113.988 52.7852 114.155C52.4762 114.319 52.2312 114.546 52.0501 114.837C51.8725 115.125 51.7838 115.453 51.7838 115.822V121H50.5267ZM58.5154 121.192C57.9969 121.192 57.5264 121.094 57.1038 120.899C56.6812 120.7 56.3456 120.414 56.0971 120.041C55.8485 119.665 55.7242 119.21 55.7242 118.678C55.7242 118.209 55.8165 117.829 56.0012 117.538C56.1858 117.243 56.4327 117.012 56.7416 116.845C57.0505 116.678 57.3915 116.554 57.7643 116.472C58.1407 116.387 58.5189 116.32 58.8989 116.27C59.3961 116.206 59.7991 116.158 60.1081 116.126C60.4206 116.091 60.6478 116.032 60.7899 115.95C60.9355 115.869 61.0083 115.727 61.0083 115.524V115.482C61.0083 114.956 60.8645 114.548 60.5768 114.256C60.2927 113.965 59.8613 113.82 59.2824 113.82C58.6823 113.82 58.2118 113.951 57.8709 114.214C57.53 114.477 57.2902 114.757 57.1518 115.055L55.9586 114.629C56.1716 114.132 56.4557 113.745 56.8108 113.468C57.1695 113.187 57.5601 112.992 57.9827 112.882C58.4089 112.768 58.8279 112.712 59.2398 112.712C59.5026 112.712 59.8045 112.744 60.1454 112.808C60.4898 112.868 60.8219 112.994 61.1415 113.186C61.4646 113.377 61.7327 113.667 61.9458 114.054C62.1589 114.441 62.2654 114.96 62.2654 115.609V121H61.0083V119.892H60.9444C60.8591 120.07 60.7171 120.26 60.5182 120.462C60.3194 120.664 60.0548 120.837 59.7246 120.979C59.3943 121.121 58.9912 121.192 58.5154 121.192ZM58.7072 120.062C59.2043 120.062 59.6233 119.965 59.9643 119.77C60.3087 119.574 60.5679 119.322 60.742 119.013C60.9195 118.704 61.0083 118.379 61.0083 118.038V116.888C60.955 116.952 60.8378 117.01 60.6567 117.064C60.4792 117.113 60.2732 117.158 60.0388 117.197C59.808 117.232 59.5825 117.264 59.3623 117.293C59.1457 117.317 58.9699 117.339 58.835 117.357C58.5083 117.399 58.2029 117.468 57.9188 117.564C57.6383 117.657 57.411 117.797 57.237 117.985C57.0665 118.17 56.9813 118.422 56.9813 118.741C56.9813 119.178 57.1429 119.509 57.466 119.732C57.7927 119.952 58.2064 120.062 58.7072 120.062ZM68.1181 112.818V113.884H63.8781V112.818H68.1181ZM65.1138 110.858H66.3709V118.656C66.3709 119.011 66.4224 119.278 66.5254 119.455C66.632 119.629 66.7669 119.746 66.9303 119.807C67.0972 119.864 67.2729 119.892 67.4576 119.892C67.5961 119.892 67.7097 119.885 67.7985 119.871C67.8873 119.853 67.9583 119.839 68.0116 119.828L68.2673 120.957C68.182 120.989 68.0631 121.021 67.9104 121.053C67.7577 121.089 67.5641 121.107 67.3298 121.107C66.9746 121.107 66.6266 121.03 66.2857 120.877C65.9484 120.725 65.6678 120.492 65.4441 120.18C65.2239 119.867 65.1138 119.473 65.1138 118.997V110.858ZM73.2451 121.17C72.5064 121.17 71.8583 120.995 71.3008 120.643C70.7468 120.292 70.3136 119.8 70.0011 119.168C69.6921 118.536 69.5377 117.797 69.5377 116.952C69.5377 116.099 69.6921 115.355 70.0011 114.72C70.3136 114.084 70.7468 113.591 71.3008 113.239C71.8583 112.887 72.5064 112.712 73.2451 112.712C73.9837 112.712 74.63 112.887 75.184 113.239C75.7415 113.591 76.1747 114.084 76.4837 114.72C76.7962 115.355 76.9524 116.099 76.9524 116.952C76.9524 117.797 76.7962 118.536 76.4837 119.168C76.1747 119.8 75.7415 120.292 75.184 120.643C74.63 120.995 73.9837 121.17 73.2451 121.17ZM73.2451 120.041C73.8061 120.041 74.2678 119.897 74.63 119.61C74.9922 119.322 75.2603 118.944 75.4343 118.475C75.6083 118.006 75.6953 117.499 75.6953 116.952C75.6953 116.405 75.6083 115.895 75.4343 115.423C75.2603 114.951 74.9922 114.569 74.63 114.278C74.2678 113.987 73.8061 113.841 73.2451 113.841C72.684 113.841 72.2223 113.987 71.8601 114.278C71.4979 114.569 71.2298 114.951 71.0558 115.423C70.8818 115.895 70.7948 116.405 70.7948 116.952C70.7948 117.499 70.8818 118.006 71.0558 118.475C71.2298 118.944 71.4979 119.322 71.8601 119.61C72.2223 119.897 72.684 120.041 73.2451 120.041ZM78.8714 121V112.818H80.0859V114.054H80.1711C80.3203 113.649 80.5901 113.321 80.9808 113.069C81.3714 112.816 81.8117 112.69 82.3018 112.69C82.3941 112.69 82.5095 112.692 82.648 112.696C82.7865 112.699 82.8913 112.705 82.9623 112.712V113.99C82.9197 113.979 82.822 113.963 82.6693 113.942C82.5202 113.917 82.3622 113.905 82.1953 113.905C81.7975 113.905 81.4424 113.988 81.1299 114.155C80.821 114.319 80.5759 114.546 80.3948 114.837C80.2173 115.125 80.1285 115.453 80.1285 115.822V121H78.8714ZM40.9879 139.149C40.5404 139.142 40.093 139.057 39.6455 138.893C39.1981 138.73 38.7897 138.455 38.4204 138.068C38.0511 137.677 37.7546 137.15 37.5308 136.486C37.3071 135.818 37.1953 134.98 37.1953 133.972C37.1953 133.006 37.2858 132.15 37.4669 131.404C37.648 130.655 37.9108 130.025 38.2553 129.513C38.5997 128.998 39.0152 128.608 39.5017 128.341C39.9918 128.075 40.544 127.942 41.1583 127.942C41.7691 127.942 42.3124 128.064 42.7883 128.309C43.2677 128.551 43.6583 128.888 43.9602 129.321C44.262 129.755 44.4573 130.254 44.5461 130.818H43.2464C43.1257 130.328 42.8913 129.922 42.5433 129.598C42.1953 129.275 41.7336 129.114 41.1583 129.114C40.3132 129.114 39.6473 129.481 39.1608 130.216C38.6779 130.951 38.4346 131.983 38.4311 133.311H38.5163C38.7151 133.009 38.9513 132.752 39.2247 132.539C39.5017 132.322 39.8071 132.155 40.1409 132.038C40.4747 131.921 40.8281 131.862 41.2009 131.862C41.8259 131.862 42.3977 132.018 42.9161 132.331C43.4346 132.64 43.8501 133.068 44.1626 133.615C44.4751 134.158 44.6313 134.781 44.6313 135.484C44.6313 136.159 44.4804 136.777 44.1786 137.338C43.8767 137.896 43.4524 138.339 42.9055 138.67C42.3622 138.996 41.723 139.156 40.9879 139.149ZM40.9879 137.977C41.4353 137.977 41.8366 137.865 42.1917 137.642C42.5504 137.418 42.8327 137.118 43.0387 136.741C43.2482 136.365 43.3529 135.946 43.3529 135.484C43.3529 135.033 43.2517 134.623 43.0493 134.254C42.8504 133.881 42.5752 133.585 42.2237 133.364C41.8757 133.144 41.4779 133.034 41.0305 133.034C40.6931 133.034 40.3789 133.102 40.0877 133.237C39.7965 133.368 39.5408 133.549 39.3206 133.78C39.104 134.011 38.9335 134.275 38.8092 134.574C38.685 134.868 38.6228 135.179 38.6228 135.506C38.6228 135.939 38.724 136.344 38.9264 136.72C39.1324 137.097 39.4129 137.4 39.7681 137.631C40.1267 137.862 40.5333 137.977 40.9879 137.977ZM50.1352 139.149C49.5102 139.149 48.9473 139.025 48.4466 138.776C47.9459 138.528 47.5446 138.187 47.2428 137.754C46.9409 137.32 46.7758 136.827 46.7474 136.273H48.0258C48.0755 136.766 48.2992 137.175 48.6969 137.498C49.0982 137.817 49.5776 137.977 50.1352 137.977C50.5826 137.977 50.9803 137.873 51.3283 137.663C51.6799 137.453 51.9551 137.166 52.154 136.8C52.3564 136.431 52.4576 136.013 52.4576 135.548C52.4576 135.072 52.3528 134.648 52.1433 134.275C51.9374 133.899 51.6533 133.602 51.291 133.386C50.9288 133.169 50.5151 133.059 50.0499 133.055C49.7161 133.052 49.3734 133.103 49.0219 133.21C48.6703 133.313 48.3809 133.446 48.1536 133.609L46.9178 133.46L47.5783 128.091H53.2459V129.263H48.6863L48.3028 132.48H48.3667C48.5904 132.303 48.8709 132.155 49.2083 132.038C49.5457 131.921 49.8972 131.862 50.263 131.862C50.9306 131.862 51.5254 132.022 52.0474 132.342C52.573 132.658 52.9849 133.091 53.2832 133.641C53.5851 134.192 53.736 134.82 53.736 135.527C53.736 136.223 53.5798 136.844 53.2673 137.391C52.9583 137.935 52.5322 138.364 51.9888 138.68C51.4455 138.993 50.8276 139.149 50.1352 139.149ZM61.4131 136.955V136.379C61.4131 135.982 61.4948 135.618 61.6581 135.287C61.8251 134.953 62.0665 134.687 62.3826 134.488C62.7022 134.286 63.0893 134.185 63.5438 134.185C64.0054 134.185 64.3925 134.286 64.705 134.488C65.0175 134.687 65.2537 134.953 65.4135 135.287C65.5733 135.618 65.6532 135.982 65.6532 136.379V136.955C65.6532 137.352 65.5715 137.718 65.4081 138.052C65.2483 138.382 65.0104 138.648 64.6944 138.851C64.3819 139.05 63.9983 139.149 63.5438 139.149C63.0822 139.149 62.6933 139.05 62.3773 138.851C62.0612 138.648 61.8215 138.382 61.6581 138.052C61.4948 137.718 61.4131 137.352 61.4131 136.955ZM62.4998 136.379V136.955C62.4998 137.285 62.5779 137.581 62.7341 137.844C62.8904 138.103 63.1603 138.233 63.5438 138.233C63.9167 138.233 64.1795 138.103 64.3322 137.844C64.4884 137.581 64.5665 137.285 64.5665 136.955V136.379C64.5665 136.049 64.492 135.754 64.3428 135.495C64.1937 135.232 63.9273 135.101 63.5438 135.101C63.1709 135.101 62.9028 135.232 62.7395 135.495C62.5797 135.754 62.4998 136.049 62.4998 136.379ZM55.9799 130.712V130.136C55.9799 129.739 56.0616 129.375 56.2249 129.044C56.3918 128.711 56.6333 128.444 56.9493 128.245C57.2689 128.043 57.656 127.942 58.1106 127.942C58.5722 127.942 58.9593 128.043 59.2718 128.245C59.5843 128.444 59.8204 128.711 59.9802 129.044C60.14 129.375 60.2199 129.739 60.2199 130.136V130.712C60.2199 131.109 60.1383 131.475 59.9749 131.809C59.8151 132.139 59.5772 132.406 59.2611 132.608C58.9486 132.807 58.5651 132.906 58.1106 132.906C57.6489 132.906 57.2601 132.807 56.944 132.608C56.628 132.406 56.3883 132.139 56.2249 131.809C56.0616 131.475 55.9799 131.109 55.9799 130.712ZM57.0665 130.136V130.712C57.0665 131.042 57.1447 131.338 57.3009 131.601C57.4572 131.86 57.727 131.99 58.1106 131.99C58.4834 131.99 58.7462 131.86 58.8989 131.601C59.0552 131.338 59.1333 131.042 59.1333 130.712V130.136C59.1333 129.806 59.0587 129.511 58.9096 129.252C58.7604 128.989 58.4941 128.858 58.1106 128.858C57.7377 128.858 57.4696 128.989 57.3062 129.252C57.1464 129.511 57.0665 129.806 57.0665 130.136ZM56.3847 139L63.8847 128.091H65.0992L57.5992 139H56.3847Z" fill="white"/>
<path d="M52.076 72.3741H40.6606L38.3285 79.9354C38.2969 80.0659 38.2204 80.1813 38.1122 80.2618C38.004 80.3423 37.8708 80.3829 37.7357 80.3765H31.9537C31.6243 80.3765 31.5089 80.1968 31.6074 79.8374L41.4624 51.6118C41.5615 51.3178 41.6602 50.9829 41.7584 50.6071C41.8942 50.0586 41.9608 49.4955 41.9567 48.9307C41.95 48.8841 41.9543 48.8366 41.9693 48.792C41.9843 48.7473 42.0096 48.7068 42.0431 48.6735C42.0766 48.6402 42.1175 48.6151 42.1625 48.6002C42.2075 48.5853 42.2554 48.581 42.3023 48.5876H50.1595C50.3898 48.5876 50.5221 48.6697 50.5548 48.8327L61.8023 79.8862C61.9008 80.2135 61.8019 80.3769 61.5056 80.3765H55.0811C54.9708 80.3886 54.8597 80.3605 54.7688 80.2973C54.6778 80.2342 54.6131 80.1404 54.5868 80.0334L52.076 72.3741ZM42.3762 67.1587H50.7404C50.5428 66.5055 49.863 64.9957 49.5995 64.1785C49.3354 63.3623 48.9739 62.7122 48.6771 61.7809C48.3804 60.8499 48.0839 59.9188 47.7876 58.9876C47.4909 58.0563 47.2192 57.1577 46.9724 56.292C46.7253 55.4266 46.5029 54.6343 46.3053 53.9152H46.2557C45.9778 55.2389 45.6312 56.5475 45.2175 57.8358C44.7557 59.3062 44.2864 60.8091 43.8094 62.3446C43.3314 63.8806 42.8366 65.8523 42.3762 67.1587Z" fill="url(#paint0_linear_3_655)"/>
<path d="M68.4865 53.7041C67.9824 53.7241 67.4798 53.6384 67.0114 53.4526C66.543 53.2668 66.1194 52.9851 65.7683 52.6259C65.4182 52.2511 65.1462 51.8113 64.968 51.3318C64.7898 50.8524 64.709 50.3428 64.73 49.8323C64.7122 49.3268 64.802 48.8233 64.9937 48.3546C65.1855 47.886 65.4747 47.4627 65.8426 47.1124C66.2068 46.7657 66.6367 46.4941 67.1074 46.3132C67.5781 46.1324 68.0803 46.0459 68.5849 46.0588C69.0987 46.0308 69.6128 46.1101 70.0937 46.2916C70.5746 46.4731 71.0118 46.7527 71.3768 47.1124C71.7179 47.4773 71.983 47.9054 72.1569 48.3722C72.3308 48.8389 72.4101 49.3351 72.3903 49.8323C72.4109 50.3448 72.3275 50.8562 72.1449 51.3361C71.9622 51.8161 71.6842 52.2547 71.3273 52.6259C70.9545 52.9904 70.5097 53.2744 70.0207 53.46C69.5318 53.6455 69.0094 53.7287 68.4865 53.7041ZM65.2868 79.889V57.4823C65.2868 57.188 65.4179 57.0412 65.6826 57.0412H71.2977C71.5612 57.0412 71.6929 57.1882 71.6929 57.4823V79.889C71.6929 80.2163 71.5612 80.3797 71.2977 80.3792H65.7315C65.4348 80.3792 65.2866 80.2158 65.2868 79.889Z" fill="url(#paint1_linear_3_655)"/>
<defs>
<linearGradient id="paint0_linear_3_655" x1="70.5456" y1="45.0923" x2="41.7651" y2="86.9612" gradientUnits="userSpaceOnUse">
<stop offset="0.09375" stop-color="white"/>
<stop offset="1" stop-color="white" stop-opacity="0.2"/>
</linearGradient>
<linearGradient id="paint1_linear_3_655" x1="70.5456" y1="45.0923" x2="41.7651" y2="86.9612" gradientUnits="userSpaceOnUse">
<stop offset="0.09375" stop-color="white"/>
<stop offset="1" stop-color="white" stop-opacity="0.2"/>
</linearGradient>
</defs>
</svg>
