<svg width="103" height="156" viewBox="0 0 103 156" fill="none" xmlns="http://www.w3.org/2000/svg">
<rect width="102.573" height="154.907" rx="30" fill="white" fill-opacity="0.05"/>
<mask id="mask0_109_134" style="mask-type:alpha" maskUnits="userSpaceOnUse" x="0" y="1" width="103" height="155">
<rect y="1.04669" width="102.573" height="154.907" rx="30" fill="white"/>
</mask>
<g mask="url(#mask0_109_134)">
<path d="M78.5 1.98006C89.9226 2.42794 102.573 8.36007 102.573 8.36007V30.0209V133.337H4.57764e-05V30.0209V8.36007C4.57764e-05 8.36007 12.785 13.5942 25.12 14.0167C43.8204 14.6573 59.8031 1.24695 78.5 1.98006Z" fill="#254EE1"/>
<path d="M24.1735 2.02503C12.7034 2.41147 0 7.52979 0 7.52979V26.2191V156H103V26.2191V7.52979C103 7.52979 90.1619 12.0459 77.7755 12.4104C58.9974 12.9631 42.9482 1.39249 24.1735 2.02503Z" fill="#3662FF"/>
</g>
<path d="M16.3265 121L13.3435 110.091H14.6859L16.9657 118.976H17.0722L19.3947 110.091H20.8861L23.2086 118.976H23.3151L25.5949 110.091H26.9373L23.9543 121H22.5907L20.183 112.307H20.0978L17.6901 121H16.3265ZM30.9749 121.17C30.2363 121.17 29.5882 120.995 29.0307 120.643C28.4767 120.292 28.0435 119.8 27.731 119.168C27.422 118.536 27.2675 117.797 27.2675 116.952C27.2675 116.099 27.422 115.355 27.731 114.72C28.0435 114.084 28.4767 113.591 29.0307 113.239C29.5882 112.887 30.2363 112.712 30.9749 112.712C31.7136 112.712 32.3599 112.887 32.9138 113.239C33.4714 113.591 33.9046 114.084 34.2136 114.72C34.5261 115.355 34.6823 116.099 34.6823 116.952C34.6823 117.797 34.5261 118.536 34.2136 119.168C33.9046 119.8 33.4714 120.292 32.9138 120.643C32.3599 120.995 31.7136 121.17 30.9749 121.17ZM30.9749 120.041C31.536 120.041 31.9976 119.897 32.3599 119.61C32.7221 119.322 32.9902 118.944 33.1642 118.475C33.3382 118.006 33.4252 117.499 33.4252 116.952C33.4252 116.405 33.3382 115.895 33.1642 115.423C32.9902 114.951 32.7221 114.569 32.3599 114.278C31.9976 113.987 31.536 113.841 30.9749 113.841C30.4138 113.841 29.9522 113.987 29.59 114.278C29.2278 114.569 28.9597 114.951 28.7856 115.423C28.6116 115.895 28.5246 116.405 28.5246 116.952C28.5246 117.499 28.6116 118.006 28.7856 118.475C28.9597 118.944 29.2278 119.322 29.59 119.61C29.9522 119.897 30.4138 120.041 30.9749 120.041ZM36.6013 121V112.818H37.8157V114.054H37.901C38.0501 113.649 38.32 113.321 38.7106 113.069C39.1013 112.816 39.5416 112.69 40.0316 112.69C40.124 112.69 40.2394 112.692 40.3779 112.696C40.5164 112.699 40.6211 112.705 40.6922 112.712V113.99C40.6495 113.979 40.5519 113.963 40.3992 113.942C40.25 113.917 40.092 113.905 39.9251 113.905C39.5274 113.905 39.1723 113.988 38.8598 114.155C38.5508 114.319 38.3058 114.546 38.1247 114.837C37.9471 115.125 37.8584 115.453 37.8584 115.822V121H36.6013ZM45.0228 121.17C44.341 121.17 43.739 120.998 43.217 120.654C42.695 120.306 42.2866 119.816 41.9919 119.184C41.6971 118.548 41.5498 117.797 41.5498 116.93C41.5498 116.071 41.6971 115.325 41.9919 114.693C42.2866 114.061 42.6968 113.573 43.2223 113.228C43.7479 112.884 44.3552 112.712 45.0441 112.712C45.5767 112.712 45.9976 112.8 46.3065 112.978C46.619 113.152 46.8569 113.351 47.0203 113.575C47.1872 113.795 47.3168 113.976 47.4091 114.118H47.5157V110.091H48.7728V121H47.5583V119.743H47.4091C47.3168 119.892 47.1854 120.08 47.015 120.308C46.8445 120.531 46.6013 120.732 46.2852 120.909C45.9691 121.083 45.5483 121.17 45.0228 121.17ZM45.1932 120.041C45.6975 120.041 46.1236 119.91 46.4716 119.647C46.8196 119.381 47.0842 119.013 47.2653 118.544C47.4464 118.072 47.537 117.527 47.537 116.909C47.537 116.298 47.4482 115.764 47.2706 115.306C47.0931 114.844 46.8303 114.485 46.4823 114.23C46.1343 113.971 45.7046 113.841 45.1932 113.841C44.6606 113.841 44.2167 113.978 43.8616 114.251C43.51 114.521 43.2454 114.888 43.0679 115.354C42.8939 115.815 42.8069 116.334 42.8069 116.909C42.8069 117.491 42.8956 118.021 43.0732 118.496C43.2543 118.969 43.5206 119.345 43.8722 119.626C44.2273 119.903 44.6677 120.041 45.1932 120.041ZM51.2497 124.068V112.818H52.4642V114.118H52.6133C52.7057 113.976 52.8335 113.795 52.9968 113.575C53.1638 113.351 53.4017 113.152 53.7106 112.978C54.0231 112.8 54.4457 112.712 54.9784 112.712C55.6673 112.712 56.2745 112.884 56.8001 113.228C57.3257 113.573 57.7358 114.061 58.0306 114.693C58.3253 115.325 58.4727 116.071 58.4727 116.93C58.4727 117.797 58.3253 118.548 58.0306 119.184C57.7358 119.816 57.3275 120.306 56.8054 120.654C56.2834 120.998 55.6815 121.17 54.9997 121.17C54.4741 121.17 54.0533 121.083 53.7373 120.909C53.4212 120.732 53.178 120.531 53.0075 120.308C52.837 120.08 52.7057 119.892 52.6133 119.743H52.5068V124.068H51.2497ZM52.4855 116.909C52.4855 117.527 52.576 118.072 52.7571 118.544C52.9383 119.013 53.2028 119.381 53.5508 119.647C53.8988 119.91 54.325 120.041 54.8292 120.041C55.3548 120.041 55.7934 119.903 56.1449 119.626C56.5 119.345 56.7664 118.969 56.9439 118.496C57.125 118.021 57.2156 117.491 57.2156 116.909C57.2156 116.334 57.1268 115.815 56.9493 115.354C56.7753 114.888 56.5107 114.521 56.1556 114.251C55.804 113.978 55.3619 113.841 54.8292 113.841C54.3179 113.841 53.8882 113.971 53.5402 114.23C53.1922 114.485 52.9294 114.844 52.7518 115.306C52.5743 115.764 52.4855 116.298 52.4855 116.909ZM60.3903 121V112.818H61.6048V114.054H61.69C61.8392 113.649 62.1091 113.321 62.4997 113.069C62.8903 112.816 63.3307 112.69 63.8207 112.69C63.913 112.69 64.0285 112.692 64.1669 112.696C64.3054 112.699 64.4102 112.705 64.4812 112.712V113.99C64.4386 113.979 64.341 113.963 64.1883 113.942C64.0391 113.917 63.8811 113.905 63.7142 113.905C63.3165 113.905 62.9613 113.988 62.6488 114.155C62.3399 114.319 62.0949 114.546 61.9138 114.837C61.7362 115.125 61.6474 115.453 61.6474 115.822V121H60.3903ZM69.1527 121.17C68.3644 121.17 67.6843 120.996 67.1126 120.648C66.5444 120.297 66.1059 119.807 65.7969 119.178C65.4915 118.546 65.3388 117.811 65.3388 116.973C65.3388 116.135 65.4915 115.396 65.7969 114.757C66.1059 114.114 66.5356 113.614 67.086 113.255C67.64 112.893 68.2863 112.712 69.0249 112.712C69.451 112.712 69.8718 112.783 70.2873 112.925C70.7028 113.067 71.081 113.298 71.4219 113.617C71.7628 113.933 72.0345 114.352 72.2369 114.874C72.4393 115.396 72.5405 116.039 72.5405 116.803V117.335H66.2337V116.249H71.2621C71.2621 115.787 71.1698 115.375 70.9851 115.013C70.804 114.651 70.5448 114.365 70.2074 114.155C69.8736 113.946 69.4794 113.841 69.0249 113.841C68.5242 113.841 68.091 113.965 67.7252 114.214C67.363 114.459 67.0842 114.778 66.8889 115.173C66.6936 115.567 66.5959 115.989 66.5959 116.44V117.165C66.5959 117.783 66.7025 118.306 66.9155 118.736C67.1321 119.162 67.4322 119.487 67.8157 119.711C68.1993 119.931 68.6449 120.041 69.1527 120.041C69.483 120.041 69.7813 119.995 70.0476 119.903C70.3175 119.807 70.5501 119.665 70.7454 119.477C70.9407 119.285 71.0917 119.047 71.1982 118.763L72.4127 119.104C72.2848 119.516 72.07 119.878 71.7682 120.19C71.4663 120.499 71.0934 120.741 70.6495 120.915C70.2057 121.085 69.7067 121.17 69.1527 121.17ZM80.2483 114.651L79.119 114.97C79.048 114.782 78.9432 114.599 78.8047 114.422C78.6698 114.24 78.4851 114.091 78.2508 113.974C78.0164 113.857 77.7163 113.798 77.3505 113.798C76.8498 113.798 76.4326 113.914 76.0988 114.145C75.7685 114.372 75.6034 114.661 75.6034 115.013C75.6034 115.325 75.717 115.572 75.9443 115.753C76.1716 115.934 76.5267 116.085 77.0096 116.206L78.2241 116.504C78.9557 116.682 79.5008 116.953 79.8594 117.319C80.2181 117.681 80.3974 118.148 80.3974 118.72C80.3974 119.189 80.2625 119.608 79.9926 119.977C79.7263 120.347 79.3534 120.638 78.874 120.851C78.3946 121.064 77.837 121.17 77.2014 121.17C76.3669 121.17 75.6762 120.989 75.1293 120.627C74.5824 120.265 74.2362 119.736 74.0906 119.04L75.2838 118.741C75.3974 119.182 75.6123 119.512 75.9283 119.732C76.2479 119.952 76.6652 120.062 77.1801 120.062C77.766 120.062 78.2312 119.938 78.5757 119.69C78.9237 119.437 79.0977 119.136 79.0977 118.784C79.0977 118.5 78.9983 118.262 78.7994 118.07C78.6005 117.875 78.2951 117.729 77.8832 117.634L76.5196 117.314C75.7703 117.136 75.2199 116.861 74.8683 116.488C74.5203 116.112 74.3463 115.641 74.3463 115.077C74.3463 114.615 74.4759 114.207 74.7351 113.852C74.9979 113.496 75.3548 113.218 75.8058 113.015C76.2603 112.813 76.7753 112.712 77.3505 112.712C78.1602 112.712 78.7959 112.889 79.2575 113.244C79.7227 113.599 80.053 114.068 80.2483 114.651ZM88.0852 114.651L86.9559 114.97C86.8849 114.782 86.7801 114.599 86.6416 114.422C86.5067 114.24 86.322 114.091 86.0877 113.974C85.8533 113.857 85.5532 113.798 85.1875 113.798C84.6867 113.798 84.2695 113.914 83.9357 114.145C83.6054 114.372 83.4403 114.661 83.4403 115.013C83.4403 115.325 83.5539 115.572 83.7812 115.753C84.0085 115.934 84.3636 116.085 84.8465 116.206L86.061 116.504C86.7926 116.682 87.3377 116.953 87.6963 117.319C88.055 117.681 88.2343 118.148 88.2343 118.72C88.2343 119.189 88.0994 119.608 87.8295 119.977C87.5632 120.347 87.1903 120.638 86.7109 120.851C86.2315 121.064 85.674 121.17 85.0383 121.17C84.2038 121.17 83.5131 120.989 82.9662 120.627C82.4193 120.265 82.0731 119.736 81.9275 119.04L83.1207 118.741C83.2343 119.182 83.4492 119.512 83.7652 119.732C84.0848 119.952 84.5021 120.062 85.017 120.062C85.6029 120.062 86.0681 119.938 86.4126 119.69C86.7606 119.437 86.9346 119.136 86.9346 118.784C86.9346 118.5 86.8352 118.262 86.6363 118.07C86.4375 117.875 86.1321 117.729 85.7201 117.634L84.3565 117.314C83.6072 117.136 83.0568 116.861 82.7052 116.488C82.3572 116.112 82.1832 115.641 82.1832 115.077C82.1832 114.615 82.3128 114.207 82.572 113.852C82.8348 113.496 83.1917 113.218 83.6427 113.015C84.0973 112.813 84.6122 112.712 85.1875 112.712C85.9971 112.712 86.6328 112.889 87.0944 113.244C87.5596 113.599 87.8899 114.068 88.0852 114.651ZM40.2068 127.942C40.6542 127.945 41.1017 128.031 41.5491 128.197C41.9965 128.364 42.4049 128.641 42.7742 129.028C43.1436 129.412 43.4401 129.936 43.6638 130.6C43.8875 131.264 43.9994 132.097 43.9994 133.098C43.9994 134.067 43.907 134.929 43.7224 135.681C43.5413 136.431 43.2785 137.063 42.934 137.578C42.5931 138.093 42.1776 138.483 41.6876 138.75C41.2011 139.016 40.6507 139.149 40.0363 139.149C39.4255 139.149 38.8804 139.028 38.401 138.787C37.9252 138.542 37.5345 138.203 37.2291 137.77C36.9273 137.333 36.7338 136.827 36.6485 136.251H37.9482C38.0654 136.752 38.298 137.166 38.646 137.493C38.9976 137.816 39.461 137.977 40.0363 137.977C40.8779 137.977 41.542 137.61 42.0285 136.875C42.5186 136.14 42.7636 135.101 42.7636 133.759H42.6784C42.4795 134.057 42.2433 134.314 41.9699 134.531C41.6965 134.748 41.3928 134.914 41.059 135.032C40.7252 135.149 40.3701 135.207 39.9937 135.207C39.3687 135.207 38.7952 135.053 38.2732 134.744C37.7547 134.431 37.3392 134.004 37.0267 133.46C36.7178 132.913 36.5633 132.288 36.5633 131.585C36.5633 130.918 36.7124 130.307 37.0107 129.753C37.3126 129.195 37.7352 128.751 38.2785 128.421C38.8254 128.091 39.4681 127.931 40.2068 127.942ZM40.2068 129.114C39.7593 129.114 39.3563 129.225 38.9976 129.449C38.6425 129.669 38.3602 129.968 38.1507 130.344C37.9447 130.717 37.8417 131.131 37.8417 131.585C37.8417 132.04 37.9411 132.453 38.14 132.826C38.3424 133.196 38.6176 133.49 38.9656 133.711C39.3172 133.927 39.7167 134.036 40.1642 134.036C40.5015 134.036 40.8158 133.97 41.107 133.838C41.3982 133.703 41.6521 133.521 41.8687 133.29C42.0889 133.055 42.2611 132.791 42.3854 132.496C42.5097 132.198 42.5718 131.887 42.5718 131.564C42.5718 131.138 42.4688 130.738 42.2629 130.365C42.0605 129.993 41.7799 129.691 41.4213 129.46C41.0661 129.229 40.6613 129.114 40.2068 129.114ZM49.5884 139.149C48.8569 139.149 48.2106 139.02 47.6495 138.76C47.092 138.498 46.657 138.137 46.3445 137.679C46.032 137.217 45.8775 136.692 45.881 136.102C45.8775 135.641 45.968 135.214 46.1527 134.824C46.3374 134.43 46.5895 134.101 46.9091 133.838C47.2322 133.572 47.5927 133.403 47.9904 133.332V133.268C47.4684 133.134 47.0529 132.841 46.744 132.39C46.435 131.935 46.2823 131.418 46.2859 130.839C46.2823 130.286 46.4226 129.79 46.7067 129.353C46.9908 128.917 47.3814 128.572 47.8786 128.32C48.3793 128.068 48.9492 127.942 49.5884 127.942C50.2205 127.942 50.7852 128.068 51.2823 128.32C51.7795 128.572 52.1701 128.917 52.4542 129.353C52.7418 129.79 52.8874 130.286 52.891 130.839C52.8874 131.418 52.7294 131.935 52.4169 132.39C52.108 132.841 51.6978 133.134 51.1864 133.268V133.332C51.5806 133.403 51.9357 133.572 52.2518 133.838C52.5678 134.101 52.82 134.43 53.0082 134.824C53.1964 135.214 53.2923 135.641 53.2958 136.102C53.2923 136.692 53.1325 137.217 52.8164 137.679C52.5039 138.137 52.0689 138.498 51.5114 138.76C50.9574 139.02 50.3164 139.149 49.5884 139.149ZM49.5884 137.977C50.082 137.977 50.5082 137.897 50.8668 137.738C51.2255 137.578 51.5025 137.352 51.6978 137.061C51.8931 136.77 51.9925 136.429 51.9961 136.038C51.9925 135.626 51.886 135.262 51.6765 134.946C51.467 134.63 51.1811 134.382 50.8189 134.201C50.4602 134.02 50.0501 133.929 49.5884 133.929C49.1232 133.929 48.7077 134.02 48.342 134.201C47.9798 134.382 47.6939 134.63 47.4844 134.946C47.2784 135.262 47.1772 135.626 47.1808 136.038C47.1772 136.429 47.2713 136.77 47.4631 137.061C47.6584 137.352 47.9371 137.578 48.2994 137.738C48.6616 137.897 49.0913 137.977 49.5884 137.977ZM49.5884 132.8C49.979 132.8 50.3253 132.722 50.6271 132.565C50.9325 132.409 51.1722 132.191 51.3462 131.91C51.5202 131.63 51.609 131.301 51.6126 130.925C51.609 130.555 51.522 130.234 51.3516 129.961C51.1811 129.684 50.945 129.471 50.6431 129.321C50.3413 129.169 49.9897 129.092 49.5884 129.092C49.18 129.092 48.8232 129.169 48.5178 129.321C48.2124 129.471 47.9762 129.684 47.8093 129.961C47.6424 130.234 47.5607 130.555 47.5643 130.925C47.5607 131.301 47.6442 131.63 47.8146 131.91C47.9886 132.191 48.2283 132.409 48.5337 132.565C48.8391 132.722 49.1907 132.8 49.5884 132.8ZM60.8983 136.955V136.379C60.8983 135.982 60.98 135.618 61.1434 135.287C61.3103 134.953 61.5518 134.687 61.8678 134.488C62.1874 134.286 62.5745 134.185 63.029 134.185C63.4907 134.185 63.8778 134.286 64.1903 134.488C64.5028 134.687 64.7389 134.953 64.8987 135.287C65.0585 135.618 65.1384 135.982 65.1384 136.379V136.955C65.1384 137.352 65.0567 137.718 64.8934 138.052C64.7336 138.382 64.4957 138.648 64.1796 138.851C63.8671 139.05 63.4836 139.149 63.029 139.149C62.5674 139.149 62.1785 139.05 61.8625 138.851C61.5464 138.648 61.3067 138.382 61.1434 138.052C60.98 137.718 60.8983 137.352 60.8983 136.955ZM61.985 136.379V136.955C61.985 137.285 62.0631 137.581 62.2194 137.844C62.3756 138.103 62.6455 138.233 63.029 138.233C63.4019 138.233 63.6647 138.103 63.8174 137.844C63.9736 137.581 64.0518 137.285 64.0518 136.955V136.379C64.0518 136.049 63.9772 135.754 63.828 135.495C63.6789 135.232 63.4126 135.101 63.029 135.101C62.6562 135.101 62.3881 135.232 62.2247 135.495C62.0649 135.754 61.985 136.049 61.985 136.379ZM55.4651 130.712V130.136C55.4651 129.739 55.5468 129.375 55.7101 129.044C55.877 128.711 56.1185 128.444 56.4346 128.245C56.7542 128.043 57.1412 127.942 57.5958 127.942C58.0574 127.942 58.4445 128.043 58.757 128.245C59.0695 128.444 59.3057 128.711 59.4655 129.044C59.6253 129.375 59.7052 129.739 59.7052 130.136V130.712C59.7052 131.109 59.6235 131.475 59.4601 131.809C59.3003 132.139 59.0624 132.406 58.7464 132.608C58.4339 132.807 58.0503 132.906 57.5958 132.906C57.1341 132.906 56.7453 132.807 56.4292 132.608C56.1132 132.406 55.8735 132.139 55.7101 131.809C55.5468 131.475 55.4651 131.109 55.4651 130.712ZM56.5518 130.136V130.712C56.5518 131.042 56.6299 131.338 56.7861 131.601C56.9424 131.86 57.2123 131.99 57.5958 131.99C57.9687 131.99 58.2314 131.86 58.3841 131.601C58.5404 131.338 58.6185 131.042 58.6185 130.712V130.136C58.6185 129.806 58.5439 129.511 58.3948 129.252C58.2456 128.989 57.9793 128.858 57.5958 128.858C57.2229 128.858 56.9548 128.989 56.7915 129.252C56.6317 129.511 56.5518 129.806 56.5518 130.136ZM55.8699 139L63.3699 128.091H64.5844L57.0844 139H55.8699Z" fill="white"/>
<path d="M69.2544 58.7969C70.8294 61.6787 71.7256 64.9844 71.7256 68.5C71.7256 75.9606 67.6831 82.48 61.67 85.9844L67.8481 68.1213C69.0013 65.2338 69.3856 62.9256 69.3856 60.8763C69.3856 60.1169 69.3369 59.4137 69.2544 58.795V58.7969ZM54.29 58.9919C55.5031 58.9356 56.6 58.795 56.6 58.795C57.6912 58.6544 57.5637 57.0513 56.4744 57.1094C56.4744 57.1094 53.1838 57.3625 51.0744 57.3625C49.0794 57.3625 45.7306 57.0812 45.7306 57.0812C44.6338 57.025 44.4912 58.6844 45.59 58.7406C45.59 58.7406 46.6025 58.855 47.6994 58.9094L50.8494 67.5437L46.4056 80.8187L39.0387 58.9375C40.2556 58.8813 41.3525 58.75 41.3525 58.75C42.4494 58.6094 42.32 57.0062 41.2306 57.07C41.2306 57.07 37.9569 57.3287 35.8419 57.3287C35.4669 57.3287 35.0206 57.3138 34.5481 57.3006C38.2081 51.9062 44.4406 48.2781 51.5 48.2781C56.7669 48.2781 61.5594 50.2881 65.1612 53.59C65.075 53.5844 64.9906 53.5731 64.8969 53.5731C62.9094 53.5731 61.4994 55.3038 61.4994 57.1619C61.4994 58.8306 62.4613 60.2425 63.4869 61.9075C64.2575 63.2575 65.1556 64.9881 65.1556 67.4894C65.1556 69.205 64.4919 71.2281 63.6162 74.0125L61.6006 80.7344L54.2881 58.9656L54.29 58.9919ZM51.5 88.72C49.5144 88.72 47.5981 88.4331 45.785 87.9006L51.8544 70.2644L58.07 87.3025C58.115 87.4019 58.1637 87.4919 58.2162 87.5819C56.1162 88.3187 53.8569 88.7237 51.5 88.7237V88.72ZM31.2706 68.5C31.2706 65.5675 31.9006 62.7812 33.0237 60.2688L42.6687 86.7044C35.9262 83.425 31.2725 76.5081 31.2706 68.5ZM51.5 46C39.0969 46 29 56.0969 29 68.5C29 80.9031 39.0969 91 51.5 91C63.9031 91 74 80.9031 74 68.5C74 56.0969 63.9031 46 51.5 46Z" fill="url(#paint0_linear_109_134)"/>
<defs>
<linearGradient id="paint0_linear_109_134" x1="71.963" y1="44.74" x2="32.3583" y2="93.1897" gradientUnits="userSpaceOnUse">
<stop offset="0.09375" stop-color="white"/>
<stop offset="1" stop-color="white" stop-opacity="0.2"/>
</linearGradient>
</defs>
</svg>
