<svg width="103" height="156" viewBox="0 0 103 156" fill="none" xmlns="http://www.w3.org/2000/svg">
<rect x="0.146729" width="102.573" height="154.907" rx="30" fill="white" fill-opacity="0.05"/>
<mask id="mask0_109_178" style="mask-type:alpha" maskUnits="userSpaceOnUse" x="0" y="1" width="103" height="155">
<rect x="0.146729" y="1.04666" width="102.573" height="154.907" rx="30" fill="white"/>
</mask>
<g mask="url(#mask0_109_178)">
<path d="M78.6468 21.98C90.0693 22.4279 102.72 28.36 102.72 28.36V50.0209V153.337H0.146774V50.0209V28.36C0.146774 28.36 12.9317 33.5942 25.2668 34.0167C43.9671 34.6572 59.9498 21.2469 78.6468 21.98Z" fill="#11AE6D"/>
<path d="M24.1735 22.0223C12.7034 22.366 0 26.9194 0 26.9194V43.5456V159H103V43.5456V26.9194C103 26.9194 90.1619 30.9369 77.7755 31.2612C58.9974 31.7529 42.9482 21.4596 24.1735 22.0223Z" fill="#2ED18D"/>
</g>
<path d="M31.3161 110.091L34.5547 119.274H34.6826L37.9212 110.091H39.3061L35.3004 121H33.9368L29.9311 110.091H31.3161ZM45.9911 117.655V112.818H47.2482V121H45.9911V119.615H45.9059C45.7142 120.031 45.4159 120.384 45.011 120.675C44.6062 120.963 44.0948 121.107 43.4769 121.107C42.9656 121.107 42.511 120.995 42.1133 120.771C41.7156 120.544 41.4031 120.203 41.1758 119.748C40.9485 119.29 40.8349 118.713 40.8349 118.017V112.818H42.092V117.932C42.092 118.528 42.2589 119.004 42.5927 119.359C42.9301 119.714 43.3598 119.892 43.8818 119.892C44.1943 119.892 44.5121 119.812 44.8352 119.652C45.162 119.493 45.4354 119.248 45.6556 118.917C45.8793 118.587 45.9911 118.166 45.9911 117.655ZM52.9811 121.17C52.1928 121.17 51.5127 120.996 50.941 120.648C50.3728 120.297 49.9342 119.807 49.6253 119.178C49.3199 118.546 49.1672 117.811 49.1672 116.973C49.1672 116.135 49.3199 115.396 49.6253 114.757C49.9342 114.114 50.3639 113.614 50.9144 113.255C51.4683 112.893 52.1146 112.712 52.8533 112.712C53.2794 112.712 53.7002 112.783 54.1157 112.925C54.5312 113.067 54.9094 113.298 55.2503 113.617C55.5912 113.933 55.8629 114.352 56.0653 114.874C56.2677 115.396 56.3689 116.039 56.3689 116.803V117.335H50.0621V116.249H55.0905C55.0905 115.787 54.9982 115.375 54.8135 115.013C54.6324 114.651 54.3732 114.365 54.0358 114.155C53.702 113.946 53.3078 113.841 52.8533 113.841C52.3526 113.841 51.9193 113.965 51.5536 114.214C51.1913 114.459 50.9126 114.778 50.7173 115.173C50.522 115.567 50.4243 115.989 50.4243 116.44V117.165C50.4243 117.783 50.5308 118.306 50.7439 118.736C50.9605 119.162 51.2606 119.487 51.6441 119.711C52.0276 119.931 52.4733 120.041 52.9811 120.041C53.3114 120.041 53.6097 119.995 53.876 119.903C54.1459 119.807 54.3785 119.665 54.5738 119.477C54.7691 119.285 54.92 119.047 55.0266 118.763L56.2411 119.104C56.1132 119.516 55.8984 119.878 55.5965 120.19C55.2947 120.499 54.9218 120.741 54.4779 120.915C54.034 121.085 53.5351 121.17 52.9811 121.17ZM62.4999 112.818H63.757V121.597C63.757 122.101 63.67 122.538 63.496 122.907C63.3256 123.276 63.0663 123.562 62.7183 123.765C62.3739 123.967 61.9389 124.068 61.4133 124.068C61.3707 124.068 61.3281 124.068 61.2854 124.068C61.2428 124.068 61.2002 124.068 61.1576 124.068V122.896C61.2002 122.896 61.2393 122.896 61.2748 122.896C61.3103 122.896 61.3494 122.896 61.392 122.896C61.7755 122.896 62.056 122.783 62.2336 122.555C62.4112 122.332 62.4999 122.012 62.4999 121.597V112.818ZM63.1178 111.455C62.8728 111.455 62.6615 111.371 62.484 111.204C62.3099 111.037 62.2229 110.837 62.2229 110.602C62.2229 110.368 62.3099 110.167 62.484 110C62.6615 109.833 62.8728 109.75 63.1178 109.75C63.3629 109.75 63.5724 109.833 63.7464 110C63.9239 110.167 64.0127 110.368 64.0127 110.602C64.0127 110.837 63.9239 111.037 63.7464 111.204C63.5724 111.371 63.3629 111.455 63.1178 111.455ZM71.855 114.651L70.7257 114.97C70.6547 114.782 70.5499 114.599 70.4114 114.422C70.2765 114.24 70.0918 114.091 69.8574 113.974C69.6231 113.857 69.323 113.798 68.9572 113.798C68.4565 113.798 68.0393 113.914 67.7055 114.145C67.3752 114.372 67.2101 114.661 67.2101 115.013C67.2101 115.325 67.3237 115.572 67.551 115.753C67.7783 115.934 68.1334 116.085 68.6163 116.206L69.8308 116.504C70.5623 116.682 71.1074 116.953 71.4661 117.319C71.8248 117.681 72.0041 118.148 72.0041 118.72C72.0041 119.189 71.8692 119.608 71.5993 119.977C71.3329 120.347 70.9601 120.638 70.4807 120.851C70.0013 121.064 69.4437 121.17 68.8081 121.17C67.9736 121.17 67.2829 120.989 66.736 120.627C66.1891 120.265 65.8429 119.736 65.6973 119.04L66.8905 118.741C67.0041 119.182 67.2189 119.512 67.535 119.732C67.8546 119.952 68.2719 120.062 68.7868 120.062C69.3727 120.062 69.8379 119.938 70.1824 119.69C70.5304 119.437 70.7044 119.136 70.7044 118.784C70.7044 118.5 70.605 118.262 70.4061 118.07C70.2072 117.875 69.9018 117.729 69.4899 117.634L68.1263 117.314C67.377 117.136 66.8265 116.861 66.475 116.488C66.127 116.112 65.953 115.641 65.953 115.077C65.953 114.615 66.0826 114.207 66.3418 113.852C66.6046 113.496 66.9615 113.218 67.4125 113.015C67.867 112.813 68.3819 112.712 68.9572 112.712C69.7669 112.712 70.4025 112.889 70.8642 113.244C71.3294 113.599 71.6596 114.068 71.855 114.651ZM37.7487 139L42.628 129.348V129.263H37.003V128.091H43.9916V129.327L39.1337 139H37.7487ZM49.2398 139.149C48.6148 139.149 48.0519 139.025 47.5512 138.776C47.0505 138.528 46.6492 138.187 46.3474 137.754C46.0455 137.32 45.8804 136.827 45.852 136.273H47.1304C47.1801 136.766 47.4038 137.175 47.8016 137.498C48.2028 137.817 48.6822 137.977 49.2398 137.977C49.6872 137.977 50.0849 137.873 50.433 137.663C50.7845 137.453 51.0597 137.166 51.2586 136.8C51.461 136.431 51.5622 136.013 51.5622 135.548C51.5622 135.072 51.4575 134.648 51.2479 134.275C51.042 133.899 50.7579 133.602 50.3957 133.386C50.0334 133.169 49.6197 133.059 49.1545 133.055C48.8207 133.052 48.478 133.103 48.1265 133.21C47.7749 133.313 47.4855 133.446 47.2582 133.609L46.0224 133.46L46.683 128.091H52.3506V129.263H47.7909L47.4074 132.48H47.4713C47.695 132.303 47.9756 132.155 48.3129 132.038C48.6503 131.921 49.0018 131.862 49.3676 131.862C50.0352 131.862 50.63 132.022 51.1521 132.342C51.6776 132.658 52.0896 133.091 52.3879 133.641C52.6897 134.192 52.8406 134.82 52.8406 135.527C52.8406 136.223 52.6844 136.844 52.3719 137.391C52.0629 137.935 51.6368 138.364 51.0935 138.68C50.5501 138.993 49.9322 139.149 49.2398 139.149ZM60.5177 136.955V136.379C60.5177 135.982 60.5994 135.618 60.7628 135.287C60.9297 134.953 61.1711 134.687 61.4872 134.488C61.8068 134.286 62.1939 134.185 62.6484 134.185C63.1101 134.185 63.4971 134.286 63.8096 134.488C64.1221 134.687 64.3583 134.953 64.5181 135.287C64.6779 135.618 64.7578 135.982 64.7578 136.379V136.955C64.7578 137.352 64.6761 137.718 64.5128 138.052C64.353 138.382 64.115 138.648 63.799 138.851C63.4865 139.05 63.103 139.149 62.6484 139.149C62.1868 139.149 61.7979 139.05 61.4819 138.851C61.1658 138.648 60.9261 138.382 60.7628 138.052C60.5994 137.718 60.5177 137.352 60.5177 136.955ZM61.6044 136.379V136.955C61.6044 137.285 61.6825 137.581 61.8388 137.844C61.995 138.103 62.2649 138.233 62.6484 138.233C63.0213 138.233 63.2841 138.103 63.4368 137.844C63.593 137.581 63.6711 137.285 63.6711 136.955V136.379C63.6711 136.049 63.5966 135.754 63.4474 135.495C63.2983 135.232 63.0319 135.101 62.6484 135.101C62.2755 135.101 62.0074 135.232 61.8441 135.495C61.6843 135.754 61.6044 136.049 61.6044 136.379ZM55.0845 130.712V130.136C55.0845 129.739 55.1662 129.375 55.3295 129.044C55.4964 128.711 55.7379 128.444 56.054 128.245C56.3736 128.043 56.7606 127.942 57.2152 127.942C57.6768 127.942 58.0639 128.043 58.3764 128.245C58.6889 128.444 58.925 128.711 59.0848 129.044C59.2447 129.375 59.3246 129.739 59.3246 130.136V130.712C59.3246 131.109 59.2429 131.475 59.0795 131.809C58.9197 132.139 58.6818 132.406 58.3657 132.608C58.0532 132.807 57.6697 132.906 57.2152 132.906C56.7535 132.906 56.3647 132.807 56.0486 132.608C55.7326 132.406 55.4929 132.139 55.3295 131.809C55.1662 131.475 55.0845 131.109 55.0845 130.712ZM56.1711 130.136V130.712C56.1711 131.042 56.2493 131.338 56.4055 131.601C56.5618 131.86 56.8317 131.99 57.2152 131.99C57.588 131.99 57.8508 131.86 58.0035 131.601C58.1598 131.338 58.2379 131.042 58.2379 130.712V130.136C58.2379 129.806 58.1633 129.511 58.0142 129.252C57.865 128.989 57.5987 128.858 57.2152 128.858C56.8423 128.858 56.5742 128.989 56.4108 129.252C56.251 129.511 56.1711 129.806 56.1711 130.136ZM55.4893 139L62.9893 128.091H64.2038L56.7038 139H55.4893Z" fill="white"/>
<path fill-rule="evenodd" clip-rule="evenodd" d="M29.1488 55.4863C29.621 56.708 51.3965 93.3798 51.6467 93.3752C51.8924 93.3713 73.646 56.7221 74.1447 55.4716C74.2486 55.2124 70.3904 55 65.5709 55H56.8091L54.4708 59.2361C53.1847 61.5659 51.9139 63.4721 51.6467 63.4721C51.3796 63.4721 50.1088 61.5659 48.8227 59.2361L46.4844 55H37.7225C32.9031 55 29.0449 55.2191 29.1488 55.4863ZM46.3997 66.8609C48.9667 71.3653 51.3282 75.0506 51.6467 75.0506C51.9653 75.0506 54.3267 71.3653 56.8938 66.8609L61.5619 58.6712L64.7937 58.5018C66.5717 58.4086 68.0261 58.4871 68.0261 58.6763C68.0261 59.3998 52.0794 86.0644 51.6467 86.0644C51.2141 86.0644 35.2673 59.3998 35.2673 58.6763C35.2673 58.4871 36.7217 58.4086 38.4997 58.5018L41.7315 58.6712L46.3997 66.8609Z" fill="url(#paint0_linear_109_178)"/>
<defs>
<linearGradient id="paint0_linear_109_178" x1="72.1097" y1="53.9255" x2="39.7748" y2="100.31" gradientUnits="userSpaceOnUse">
<stop offset="0.09375" stop-color="white"/>
<stop offset="1" stop-color="white" stop-opacity="0.2"/>
</linearGradient>
</defs>
</svg>
