<svg width="25" height="25" viewBox="0 0 25 25" fill="none" xmlns="http://www.w3.org/2000/svg">
<path d="M12.7857 4.16666C13.1812 4.16666 13.5081 4.46057 13.5598 4.8419L13.567 4.94791L13.5663 18.6812L18.5075 13.7198C18.812 13.414 19.3066 13.413 19.6124 13.7174C19.8903 13.9942 19.9165 14.4282 19.6902 14.7345L19.6148 14.8223L13.3398 21.1244C13.2996 21.1647 13.2562 21.1997 13.2103 21.2294C13.1965 21.2378 13.1824 21.2463 13.168 21.2544C13.1556 21.2619 13.1428 21.2686 13.1299 21.2749C13.111 21.2838 13.0915 21.2924 13.0716 21.3002C13.0563 21.3066 13.0414 21.3119 13.0263 21.3167C13.0077 21.3225 12.9878 21.3281 12.9677 21.3329C12.9536 21.3364 12.94 21.3393 12.9264 21.3417C12.9062 21.3452 12.8853 21.3482 12.8641 21.3503C12.8479 21.3521 12.8319 21.3532 12.8158 21.3538C12.8061 21.354 12.7959 21.3542 12.7857 21.3542L12.7555 21.3538C12.7401 21.3532 12.7248 21.3521 12.7095 21.3506L12.7857 21.3542C12.7364 21.3542 12.6882 21.3496 12.6414 21.3409C12.6303 21.3388 12.6188 21.3364 12.6074 21.3338C12.5838 21.3282 12.5612 21.3218 12.539 21.3144C12.528 21.3108 12.5162 21.3066 12.5045 21.302C12.481 21.2929 12.4586 21.283 12.4367 21.2721C12.4265 21.267 12.4157 21.2613 12.4051 21.2554C12.3877 21.2456 12.3712 21.2356 12.3552 21.2249C12.3438 21.2174 12.332 21.2091 12.3203 21.2004L12.3113 21.1937C12.2838 21.1726 12.2577 21.1498 12.2333 21.1253L12.2326 21.1244L5.95653 14.8223C5.65207 14.5166 5.65309 14.0219 5.95882 13.7175C6.23675 13.4407 6.67083 13.4164 6.9762 13.6439L7.06367 13.7198L12.0038 18.6792L12.0045 4.94791C12.0045 4.51644 12.3543 4.16666 12.7857 4.16666Z" fill="url(#paint0_linear_118_124)"/>
<defs>
<linearGradient id="paint0_linear_118_124" x1="19.2035" y1="3.68543" x2="3.7685" y2="19.1905" gradientUnits="userSpaceOnUse">
<stop offset="0.09375" stop-color="white"/>
<stop offset="1" stop-color="white" stop-opacity="0.2"/>
</linearGradient>
</defs>
</svg>
