<svg width="25" height="25" viewBox="0 0 25 25" fill="none" xmlns="http://www.w3.org/2000/svg">
<path fill-rule="evenodd" clip-rule="evenodd" d="M11.5938 2.54166C11.5938 2.24489 11.8386 2 12.1354 2H13.1771C13.4739 2 13.7188 2.24489 13.7188 2.54166V3.11843C13.7187 3.12324 13.7187 3.12803 13.7188 3.13282V3.58333C13.7188 3.8801 13.4739 4.125 13.1771 4.125H12.1354C11.8386 4.125 11.5938 3.8801 11.5938 3.58333V3.13253V3.11871V2.54166ZM14.7135 3.71145C14.648 4.50097 13.983 5.125 13.1771 5.125H12.1354C11.3283 5.125 10.6626 4.49913 10.5988 3.70796C7.30746 4.34845 4.78389 7.1342 4.55812 10.5521H4.58333C5.43243 10.5521 6.125 11.2448 6.125 12.0938V13.1355C6.125 13.9845 5.43239 14.6771 4.58333 14.6771H3.54167C2.69261 14.6771 2 13.9845 2 13.1355V12.0938C2 11.2448 2.69257 10.5521 3.54167 10.5521H3.55616C3.78714 6.58019 6.75244 3.35138 10.5938 2.69232V2.54166C10.5938 1.69261 11.2864 0.999998 12.1354 0.999998H13.1771C14.0261 0.999998 14.7188 1.69261 14.7188 2.54166V2.69478C18.5392 3.37192 21.4847 6.591 21.7147 10.5521H21.7292C22.5783 10.5521 23.2708 11.2448 23.2708 12.0938V13.1355C23.2708 13.9845 22.5782 14.6771 21.7292 14.6771H20.6875C19.8384 14.6771 19.1458 13.9845 19.1458 13.1355V12.0938C19.1458 11.2448 19.8384 10.5521 20.6875 10.5521H20.7127C20.4881 7.1453 17.9842 4.36899 14.7135 3.71145ZM21.2292 11.5521H20.6875C20.3908 11.5521 20.1458 11.797 20.1458 12.0938V13.1355C20.1458 13.4322 20.3907 13.6771 20.6875 13.6771H21.7292C22.0259 13.6771 22.2708 13.4322 22.2708 13.1355V12.0938C22.2708 11.797 22.0259 11.5521 21.7292 11.5521H21.2292ZM3.54167 11.5521H4.04166H4.58333C4.88007 11.5521 5.125 11.797 5.125 12.0938V13.1355C5.125 13.4322 4.88011 13.6771 4.58333 13.6771H3.54167C3.24489 13.6771 3 13.4322 3 13.1355V12.0938C3 11.797 3.24493 11.5521 3.54167 11.5521ZM14.2569 10.9088C13.8385 10.3792 13.2591 10.086 12.651 10.086C12.0429 10.086 11.4636 10.3792 11.0452 10.9088L11.0448 10.9093L7.8688 14.9391L7.86825 14.9398C7.45116 15.4654 7.14479 16.0122 7.19162 16.6094C7.23899 17.2133 7.63262 17.7055 8.18516 18.1612L9.75296 19.5568L9.38756 21.1699C9.11081 22.3724 10.1588 23.3542 11.3333 23.3542H13.9583C14.5756 23.3542 15.1285 23.134 15.5003 22.7309C15.8772 22.3223 16.0325 21.7618 15.9053 21.1753L15.9053 21.1753L15.9043 21.1708L15.5404 19.5645L17.1234 18.1554L17.1238 18.155C17.6507 17.6878 18.0394 17.1974 18.0942 16.6046C18.1492 16.0094 17.8532 15.4683 17.4337 14.9397L17.4333 14.9391L14.2573 10.9093L14.2569 10.9088ZM14.7876 18.8959L16.4592 17.4078L16.46 17.4071C16.9433 16.9787 17.0803 16.7087 17.0985 16.5126C17.1164 16.3189 17.0324 16.0425 16.65 15.5608L16.649 15.5595L13.4722 11.5288L13.472 11.5285C13.3703 11.3998 13.2597 11.3022 13.1458 11.2319V13.6354C13.1458 13.9116 12.922 14.1354 12.6458 14.1354C12.3697 14.1354 12.1458 13.9116 12.1458 13.6354V11.2384C12.0357 11.3082 11.9287 11.4037 11.83 11.5285L11.8298 11.5288L8.65311 15.5595L8.65202 15.5608C8.26732 16.0455 8.17292 16.3318 8.18856 16.5312C8.20347 16.7213 8.3324 16.9878 8.82785 17.395C8.83294 17.3992 8.83794 17.4034 8.84285 17.4078L10.5145 18.8959H14.7876ZM10.3626 21.3917L10.7015 19.8959H14.5902L14.9285 21.3892C14.988 21.6664 14.9141 21.8916 14.7653 22.0529C14.6111 22.2201 14.341 22.3542 13.9583 22.3542H11.3333C10.6332 22.3542 10.2648 21.8157 10.3622 21.3937L10.3626 21.3917Z" fill="url(#paint0_linear_121_216)"/>
<defs>
<linearGradient id="paint0_linear_121_216" x1="22.308" y1="0.374104" x2="2.46228" y2="23.4753" gradientUnits="userSpaceOnUse">
<stop offset="0.09375" stop-color="white"/>
<stop offset="1" stop-color="white" stop-opacity="0.2"/>
</linearGradient>
</defs>
</svg>
