<svg width="25" height="25" viewBox="0 0 25 25" fill="none" xmlns="http://www.w3.org/2000/svg">
<path d="M12.5 25C5.60938 25 0 19.3906 0 12.5C0 5.60938 5.60938 0 12.5 0C19.3906 0 25 5.60938 25 12.5C25 19.3906 19.3906 25 12.5 25ZM23.0417 14.2104C22.6771 14.0958 19.7396 13.2177 16.3917 13.7542C17.7875 17.5917 18.3573 20.7167 18.4667 21.3667C20.8625 19.7469 22.5667 17.1792 23.0448 14.2104H23.0417ZM16.6719 22.3437C16.5125 21.4063 15.8906 18.1437 14.3906 14.25L14.3219 14.2708C8.29062 16.3698 6.13437 20.5469 5.94687 20.9375C7.74896 22.3521 10.0302 23.1937 12.499 23.1937C13.9781 23.1937 15.3844 22.8917 16.6656 22.3458L16.6719 22.3437ZM4.56771 19.6563C4.80938 19.2396 7.73958 14.3906 13.2469 12.6094C13.3875 12.5625 13.5281 12.5219 13.6687 12.4844C13.3979 11.875 13.1062 11.2687 12.8021 10.6719C7.46875 12.2656 2.29792 12.1979 1.82917 12.1875L1.825 12.5125C1.825 15.2552 2.86458 17.7594 4.56875 19.6531L4.56771 19.6563ZM2.04687 10.3281C2.52604 10.3365 6.925 10.3552 11.9187 9.02812C10.15 5.88437 8.24167 3.23854 7.96042 2.85312C4.97292 4.25937 2.74167 7.00938 2.04792 10.3219L2.04687 10.3281ZM10 2.1375C10.2938 2.53333 12.2344 5.17292 13.9812 8.3875C17.7781 6.96562 19.3875 4.80417 19.5781 4.53125C17.6927 2.85417 15.2135 1.8375 12.5 1.8375C11.6406 1.8375 10.8021 1.94167 10 2.13437V2.1375ZM20.7656 5.76562C20.5385 6.06771 18.75 8.3625 14.8031 9.97396C15.0531 10.4844 15.2927 11 15.5115 11.5219C15.5948 11.7094 15.6677 11.8969 15.7406 12.074C19.2927 11.626 22.824 12.3448 23.1781 12.4177C23.1573 9.89687 22.2615 7.58437 20.7719 5.77187L20.7656 5.76562Z" fill="url(#paint0_linear_118_167)"/>
<defs>
<linearGradient id="paint0_linear_118_167" x1="23.8683" y1="-0.699977" x2="1.8657" y2="26.2165" gradientUnits="userSpaceOnUse">
<stop offset="0.09375" stop-color="white"/>
<stop offset="1" stop-color="white" stop-opacity="0.2"/>
</linearGradient>
</defs>
</svg>
