<svg width="25" height="25" viewBox="0 0 25 25" fill="none" xmlns="http://www.w3.org/2000/svg">
<path fill-rule="evenodd" clip-rule="evenodd" d="M19.4571 6.95711C19.8476 6.56658 19.8476 5.93342 19.4571 5.54289C19.0666 5.15237 18.4334 5.15237 18.0429 5.54289L12.5 11.0858L6.95711 5.54289C6.56658 5.15237 5.93342 5.15237 5.54289 5.54289C5.15237 5.93342 5.15237 6.56658 5.54289 6.95711L11.0858 12.5L5.54289 18.0429C5.15237 18.4334 5.15237 19.0666 5.54289 19.4571C5.93342 19.8476 6.56658 19.8476 6.95711 19.4571L12.5 13.9142L18.0429 19.4571C18.4334 19.8476 19.0666 19.8476 19.4571 19.4571C19.8476 19.0666 19.8476 18.4334 19.4571 18.0429L13.9142 12.5L19.4571 6.95711Z" fill="url(#paint0_linear_118_173)"/>
<defs>
<linearGradient id="paint0_linear_118_173" x1="19.0936" y1="4.84401" x2="6.33211" y2="20.4556" gradientUnits="userSpaceOnUse">
<stop offset="0.09375" stop-color="white"/>
<stop offset="1" stop-color="white" stop-opacity="0.2"/>
</linearGradient>
</defs>
</svg>
