<svg width="32" height="32" viewBox="0 0 32 32" fill="none" xmlns="http://www.w3.org/2000/svg">
<rect width="32" height="32" rx="16" fill="#9277FF"/>
<path fill-rule="evenodd" clip-rule="evenodd" d="M11.9669 8.84581C11.1959 9.2594 10.8005 9.8402 10.7034 10.7022C10.611 11.522 10.8647 12.1453 11.5533 12.7889C11.9389 13.1494 12.1607 13.2038 13.4509 13.2543C14.4388 13.2931 14.9897 13.2469 15.1523 13.1119C15.3406 12.9558 15.393 12.473 15.393 10.897C15.393 8.52921 15.4038 8.54357 13.6459 8.54357C12.8721 8.54357 12.3578 8.63616 11.9669 8.84581ZM16.3027 8.80009C16.0987 9.00419 16.0462 9.44849 16.0462 10.9717C16.0462 12.2436 16.112 12.9527 16.2421 13.0828C16.567 13.4078 18.967 13.3351 19.6282 12.9804C21.2198 12.1268 21.1269 9.66108 19.4718 8.82964C18.715 8.44936 16.6725 8.43042 16.3027 8.80009ZM11.7192 14.4198C10.2113 15.4121 10.3489 17.6317 11.97 18.463C12.5031 18.7363 12.967 18.8304 13.7831 18.8304C15.3442 18.8304 15.393 18.7567 15.393 16.4022C15.393 15.1304 15.3272 14.4213 15.1971 14.2911C15.0751 14.1691 14.4746 14.0955 13.6051 14.0963C12.4905 14.0971 12.1102 14.1623 11.7192 14.4198ZM16.7377 14.6541C16.1846 15.1611 16.1278 15.2914 16.1278 16.0546C16.1278 16.8177 16.1846 16.948 16.7377 17.455C17.2229 17.8997 17.4834 18.014 18.0113 18.014C19.2646 18.014 20.1282 17.2147 20.1282 16.0546C20.1282 14.8936 19.2978 14.0952 18.0905 14.0952C17.4723 14.0952 17.2453 14.1891 16.7377 14.6541ZM11.7842 19.8541C9.72435 21.2301 10.8054 24.4128 13.2481 24.164C14.7112 24.0149 15.3924 23.0442 15.3927 21.1082C15.3929 20.3667 15.315 19.7973 15.1971 19.6794C15.0767 19.5591 14.4876 19.4835 13.6701 19.4835C12.558 19.4835 12.2477 19.5446 11.7842 19.8541Z" fill="#D7CBFF"/>
</svg>
