<svg width="45" height="45" viewBox="0 0 45 45" fill="none" xmlns="http://www.w3.org/2000/svg">
<rect width="45" height="45" rx="22.5" fill="#9277FF" fill-opacity="0.1"/>
<path fill-rule="evenodd" clip-rule="evenodd" d="M16.8284 12.4394C15.7441 13.021 15.1882 13.8378 15.0516 15.0499C14.9217 16.2028 15.2785 17.0793 16.2468 17.9844C16.7891 18.4914 17.1009 18.5679 18.9154 18.6388C20.3045 18.6935 21.0793 18.6285 21.308 18.4386C21.5727 18.2191 21.6464 17.5401 21.6464 15.3238C21.6464 11.9942 21.6616 12.0144 19.1895 12.0144C18.1014 12.0144 17.3781 12.1446 16.8284 12.4394ZM22.9256 12.3751C22.6388 12.6621 22.5649 13.2869 22.5649 15.429C22.5649 17.2175 22.6574 18.2147 22.8404 18.3977C23.2974 18.8547 26.6722 18.7525 27.6022 18.2537C29.8403 17.0533 29.7096 13.5859 27.3822 12.4167C26.318 11.8819 23.4457 11.8553 22.9256 12.3751ZM16.4801 20.2778C14.3596 21.6732 14.5531 24.7946 16.8327 25.9636C17.5824 26.3479 18.2348 26.4802 19.3824 26.4802C21.5778 26.4802 21.6464 26.3766 21.6464 23.0656C21.6464 21.2771 21.5539 20.2799 21.3709 20.0969C21.1994 19.9254 20.3548 19.8218 19.1321 19.8229C17.5648 19.8241 17.03 19.9157 16.4801 20.2778ZM23.5373 20.6073C22.7596 21.3203 22.6797 21.5035 22.6797 22.5767C22.6797 23.65 22.7596 23.8332 23.5373 24.5461C24.2197 25.1714 24.586 25.3321 25.3283 25.3321C27.0908 25.3321 28.3053 24.2081 28.3053 22.5767C28.3053 20.9442 27.1374 19.8213 25.4397 19.8213C24.5703 19.8213 24.2512 19.9534 23.5373 20.6073ZM16.5714 27.9199C13.6748 29.8549 15.1951 34.3305 18.6302 33.9806C20.6875 33.771 21.6455 32.4059 21.646 29.6833C21.6462 28.6407 21.5367 27.84 21.3709 27.6742C21.2016 27.505 20.3732 27.3987 19.2235 27.3987C17.6596 27.3987 17.2233 27.4845 16.5714 27.9199Z" fill="#C4B3FF"/>
</svg>
