<svg width="25" height="25" viewBox="0 0 25 25" fill="none" xmlns="http://www.w3.org/2000/svg">
<path d="M12.5 0.309372C5.59375 0.309372 0 5.90625 0 12.8094C0 18.3333 3.58125 23.0177 8.54687 24.6687C9.17187 24.7865 9.40104 24.4 9.40104 24.0677C9.40104 23.7708 9.39062 22.9844 9.38542 21.9427C5.90833 22.6969 5.175 20.2656 5.175 20.2656C4.60625 18.8229 3.78437 18.4375 3.78437 18.4375C2.65208 17.6625 3.87187 17.6781 3.87187 17.6781C5.12708 17.7656 5.78646 18.9656 5.78646 18.9656C6.90104 20.8771 8.7125 20.325 9.42708 20.0052C9.53958 19.1969 9.86146 18.6458 10.2188 18.3333C7.44271 18.0208 4.525 16.9458 4.525 12.1562C4.525 10.7917 5.00937 9.67708 5.81146 8.80208C5.67083 8.48645 5.24896 7.21562 5.92083 5.49375C5.92083 5.49375 6.96771 5.15833 9.35833 6.775C10.3583 6.49687 11.4208 6.35937 12.4833 6.35312C13.5458 6.35937 14.6083 6.49687 15.6083 6.775C17.9833 5.15833 19.0302 5.49375 19.0302 5.49375C19.7021 7.21562 19.2802 8.48645 19.1552 8.80208C19.9521 9.67708 20.4365 10.7917 20.4365 12.1562C20.4365 16.9583 17.5146 18.0156 14.7333 18.3229C15.1708 18.6979 15.5771 19.4646 15.5771 20.6354C15.5771 22.3083 15.5615 23.6521 15.5615 24.0583C15.5615 24.3865 15.7802 24.7771 16.4208 24.6521C21.4219 23.0125 25 18.325 25 12.8094C25 5.90625 19.4031 0.309372 12.5 0.309372" fill="url(#paint0_linear_118_165)"/>
<defs>
<linearGradient id="paint0_linear_118_165" x1="23.8683" y1="-0.373273" x2="2.52367" y2="26.4012" gradientUnits="userSpaceOnUse">
<stop offset="0.09375" stop-color="white"/>
<stop offset="1" stop-color="white" stop-opacity="0.2"/>
</linearGradient>
</defs>
</svg>
