<svg width="32" height="32" viewBox="0 0 32 32" fill="none" xmlns="http://www.w3.org/2000/svg">
<rect width="32" height="32" rx="16" fill="#FFB039"/>
<path d="M15.68 19.332H11.305L10.4112 22.2299C10.3991 22.2799 10.3697 22.3241 10.3283 22.355C10.2868 22.3858 10.2358 22.4014 10.184 22.3989H7.96799C7.84176 22.3989 7.79752 22.3301 7.83527 22.1923L11.6122 11.3747C11.6502 11.2621 11.6881 11.1337 11.7257 10.9897C11.7777 10.7795 11.8033 10.5637 11.8017 10.3472C11.7991 10.3293 11.8008 10.3111 11.8065 10.294C11.8123 10.2769 11.822 10.2614 11.8348 10.2486C11.8477 10.2359 11.8633 10.2263 11.8806 10.2205C11.8978 10.2148 11.9162 10.2132 11.9342 10.2157H14.9455C15.0337 10.2157 15.0844 10.2472 15.0969 10.3096L19.4076 22.2111C19.4454 22.3365 19.4074 22.3991 19.2939 22.3989H16.8317C16.7894 22.4036 16.7468 22.3928 16.712 22.3686C16.6771 22.3444 16.6523 22.3085 16.6422 22.2675L15.68 19.332ZM11.9625 17.3332H15.1681C15.0923 17.0828 14.8318 16.5042 14.7308 16.191C14.6296 15.8782 14.4911 15.629 14.3773 15.2721C14.2636 14.9153 14.15 14.5584 14.0364 14.2016C13.9227 13.8446 13.8186 13.5003 13.724 13.1684C13.6293 12.8368 13.544 12.5331 13.4683 12.2575H13.4493C13.3428 12.7648 13.21 13.2664 13.0514 13.7601C12.8744 14.3237 12.6946 14.8997 12.5118 15.4881C12.3286 16.0768 12.1389 16.8325 11.9625 17.3332Z" fill="#FFF1CC"/>
<path d="M21.9693 12.1766C21.7762 12.1843 21.5835 12.1515 21.404 12.0803C21.2245 12.009 21.0622 11.9011 20.9276 11.7634C20.7934 11.6197 20.6892 11.4512 20.6209 11.2675C20.5526 11.0837 20.5216 10.8884 20.5297 10.6927C20.5228 10.499 20.5573 10.306 20.6307 10.1264C20.7042 9.9468 20.8151 9.78457 20.9561 9.65033C21.0956 9.51746 21.2604 9.41336 21.4408 9.34405C21.6212 9.27474 21.8137 9.2416 22.0071 9.24655C22.204 9.23582 22.401 9.26621 22.5853 9.33577C22.7696 9.40532 22.9372 9.51249 23.0771 9.65033C23.2078 9.79019 23.3094 9.95426 23.3761 10.1331C23.4427 10.312 23.4731 10.5022 23.4655 10.6927C23.4734 10.8892 23.4414 11.0852 23.3714 11.2691C23.3014 11.453 23.1949 11.6211 23.0581 11.7634C22.9152 11.9031 22.7447 12.012 22.5574 12.0831C22.37 12.1542 22.1698 12.186 21.9693 12.1766ZM20.743 22.2121V13.6246C20.743 13.5118 20.7933 13.4556 20.8948 13.4556H23.0468C23.1477 13.4556 23.1982 13.5119 23.1982 13.6246V22.2121C23.1982 22.3375 23.1477 22.4002 23.0468 22.4H20.9135C20.7998 22.4 20.743 22.3374 20.743 22.2121Z" fill="#FFF1CC"/>
</svg>
