<svg width="25" height="25" viewBox="0 0 25 25" fill="none" xmlns="http://www.w3.org/2000/svg">
<path fill-rule="evenodd" clip-rule="evenodd" d="M12.5 2.08333C18.2438 2.08333 22.9167 6.75625 22.9167 12.5C22.9167 18.2437 18.2438 22.9167 12.5 22.9167C6.75626 22.9167 2.08334 18.2437 2.08334 12.5C2.08334 6.75625 6.75626 2.08333 12.5 2.08333ZM12.5 3.64583C7.61772 3.64583 3.64584 7.6177 3.64584 12.5C3.64584 17.3823 7.61772 21.3542 12.5 21.3542C17.3823 21.3542 21.3542 17.3823 21.3542 12.5C21.3542 7.6177 17.3823 3.64583 12.5 3.64583ZM12.5041 15.4124C13.0801 15.4124 13.5457 15.878 13.5457 16.4541C13.5457 17.0301 13.0801 17.4957 12.5041 17.4957C11.928 17.4957 11.4572 17.0301 11.4572 16.4541C11.4572 15.878 11.9187 15.4124 12.4937 15.4124H12.5041ZM12.4939 7.76458C12.9251 7.76458 13.2751 8.11458 13.2751 8.54583V13.149C13.2751 13.5802 12.9251 13.9302 12.4939 13.9302C12.0626 13.9302 11.7126 13.5802 11.7126 13.149V8.54583C11.7126 8.11458 12.0626 7.76458 12.4939 7.76458Z" fill="url(#paint0_linear_118_129)"/>
<defs>
<linearGradient id="paint0_linear_118_129" x1="21.9736" y1="1.50001" x2="3.63809" y2="23.9304" gradientUnits="userSpaceOnUse">
<stop offset="0.09375" stop-color="white"/>
<stop offset="1" stop-color="white" stop-opacity="0.2"/>
</linearGradient>
</defs>
</svg>
