<svg width="32" height="32" viewBox="0 0 32 32" fill="none" xmlns="http://www.w3.org/2000/svg">
<rect width="32" height="32" rx="16" fill="#FFB039"/>
<path d="M7.82224 7.82222H23.4667V23.4667H7.82224V7.82222ZM22.1851 19.7355C22.0711 19.0217 21.6063 18.422 20.2276 17.8627C19.7479 17.6378 19.2146 17.4814 19.0562 17.1196C18.9969 16.9045 18.9878 16.7871 19.0263 16.66C19.124 16.2389 19.6227 16.1125 20.0138 16.2298C20.268 16.308 20.5027 16.5036 20.65 16.8165C21.324 16.3758 21.324 16.3758 21.794 16.0831C21.618 15.8094 21.5307 15.6914 21.412 15.5747C21.0014 15.1151 20.4545 14.8805 19.5647 14.9007L19.1051 14.9587C18.6645 15.0662 18.2447 15.3009 17.9905 15.6138C17.2474 16.4553 17.4618 17.922 18.3614 18.5282C19.2512 19.1931 20.5522 19.3391 20.7185 19.9656C20.8749 20.7282 20.1514 20.9727 19.4369 20.8847C18.9083 20.7673 18.6156 20.5027 18.2929 20.0138L17.1 20.6989C17.2369 21.0118 17.3934 21.148 17.628 21.4218C18.7623 22.5665 21.5978 22.5078 22.1069 20.7673C22.1258 20.7087 22.2634 20.3078 22.1552 19.6918L22.1851 19.7355ZM16.3296 15.0128H14.8642C14.8642 16.2761 14.8583 17.5316 14.8583 18.7968C14.8583 19.5999 14.8994 20.3371 14.7684 20.564C14.5533 21.0131 13.9992 20.9557 13.7476 20.8769C13.4894 20.7491 13.3584 20.5731 13.2065 20.3195C13.1655 20.2511 13.1348 20.1918 13.1237 20.1918L11.9341 20.9251C12.1329 21.3358 12.423 21.6891 12.7972 21.914C13.3545 22.2464 14.1035 22.354 14.8877 22.178C15.3981 22.0306 15.8381 21.7275 16.0682 21.2582C16.4006 20.652 16.3302 19.9089 16.3269 19.0771C16.3348 17.7382 16.3269 16.3986 16.3269 15.0493L16.3296 15.0128Z" fill="#FFF1CC"/>
</svg>
