<svg width="25" height="25" viewBox="0 0 25 25" fill="none" xmlns="http://www.w3.org/2000/svg">
<g clip-path="url(#clip0_118_171)">
<path d="M16.2604 12.5C16.2604 14.5729 14.5729 16.2604 12.5 16.2604C10.4271 16.2604 8.73958 14.5729 8.73958 12.5C8.73958 10.4271 10.4271 8.73958 12.5 8.73958C14.5729 8.73958 16.2604 10.4271 16.2604 12.5ZM12.5 0C5.60729 0 0 5.60729 0 12.5C0 19.3927 5.60729 25 12.5 25C15.025 25 17.4594 24.2479 19.5417 22.826L19.5771 22.801L17.8927 20.8437L17.8646 20.8615C16.2652 21.8919 14.4026 22.4391 12.5 22.4375C7.02083 22.4375 2.5625 17.9792 2.5625 12.5C2.5625 7.02083 7.02083 2.5625 12.5 2.5625C17.9792 2.5625 22.4375 7.02083 22.4375 12.5C22.436 13.2181 22.3575 13.9341 22.2031 14.6354C21.8896 15.926 20.9854 16.3208 20.3073 16.2687C19.626 16.2135 18.8281 15.7271 18.8219 14.5385V12.5C18.8202 10.8237 18.1537 9.21661 16.9685 8.03122C15.7833 6.84583 14.1763 6.17901 12.5 6.17708C10.8236 6.17874 9.21627 6.84543 8.03085 8.03085C6.84543 9.21627 6.17874 10.8236 6.17708 12.5C6.17874 14.1764 6.84543 15.7837 8.03085 16.9691C9.21627 18.1546 10.8236 18.8213 12.5 18.8229C13.3332 18.8249 14.1584 18.6609 14.9275 18.3404C15.6965 18.0199 16.394 17.5494 16.9792 16.9562C17.349 17.537 17.8604 18.0143 18.4654 18.3432C19.0703 18.6721 19.749 18.8418 20.4375 18.8365C21.3479 18.8365 22.25 18.5323 22.976 17.9812C23.725 17.4115 24.2844 16.5896 24.5937 15.601C24.6427 15.4406 24.7344 15.076 24.7344 15.0729L24.7365 15.0594C24.9187 14.2677 25 13.476 25 12.5C25 5.60729 19.3927 0 12.5 0" fill="url(#paint0_linear_118_171)"/>
</g>
<defs>
<linearGradient id="paint0_linear_118_171" x1="23.8683" y1="-0.699977" x2="1.8657" y2="26.2165" gradientUnits="userSpaceOnUse">
<stop offset="0.09375" stop-color="white"/>
<stop offset="1" stop-color="white" stop-opacity="0.2"/>
</linearGradient>
<clipPath id="clip0_118_171">
<rect width="25" height="25" fill="white"/>
</clipPath>
</defs>
</svg>
