<svg width="25" height="25" viewBox="0 0 25 25" fill="none" xmlns="http://www.w3.org/2000/svg">
<path d="M17.6452 3.125C19.0421 3.125 20.3858 3.67708 21.3744 4.66771C22.3639 5.65625 22.9171 6.98958 22.9171 8.38542V16.6146C22.9171 19.5208 20.5525 21.875 17.6452 21.875H7.35457C4.44728 21.875 2.08374 19.5208 2.08374 16.6146V8.38542C2.08374 5.47917 4.43687 3.125 7.35457 3.125H17.6452ZM18.8233 8.54167C18.6046 8.53021 18.3962 8.60417 18.2389 8.75L13.5421 12.5C12.9379 13.001 12.0723 13.001 11.4587 12.5L6.77124 8.75C6.44728 8.51042 5.99937 8.54167 5.72957 8.82292C5.44832 9.10417 5.41707 9.55208 5.65562 9.86458L5.79207 10L10.5317 13.6979C11.115 14.1562 11.8223 14.4062 12.5629 14.4062C13.3014 14.4062 14.0212 14.1562 14.6035 13.6979L19.3025 9.9375L19.3858 9.85417C19.6348 9.55208 19.6348 9.11458 19.3744 8.8125C19.2296 8.65729 19.0306 8.5625 18.8233 8.54167Z" fill="url(#paint0_linear_118_119)"/>
<defs>
<linearGradient id="paint0_linear_118_119" x1="21.974" y1="2.60002" x2="5.89883" y2="24.4503" gradientUnits="userSpaceOnUse">
<stop offset="0.09375" stop-color="white"/>
<stop offset="1" stop-color="white" stop-opacity="0.2"/>
</linearGradient>
</defs>
</svg>
