<svg width="25" height="25" viewBox="0 0 25 25" fill="none" xmlns="http://www.w3.org/2000/svg">
<path fill-rule="evenodd" clip-rule="evenodd" d="M17.353 2.08333C20.8218 2.08333 23.4374 4.91354 23.4374 8.66666V15.8208C23.4374 17.7417 22.7582 19.4771 21.5239 20.7083C20.4166 21.8115 18.9801 22.3958 17.3697 22.3958H7.10615C5.49886 22.3958 4.06344 21.8125 2.95511 20.7083C1.72073 19.4771 1.04156 17.7417 1.04156 15.8208V8.66666C1.04156 4.91354 3.65719 2.08333 7.12594 2.08333H17.353ZM17.353 3.64583H7.12594C4.50615 3.64583 2.60406 5.75729 2.60406 8.66666V15.8208C2.60406 17.324 3.12073 18.6667 4.05823 19.601C4.86656 20.4083 5.92177 20.8333 7.10927 20.8333H17.353C17.3551 20.8312 17.3634 20.8333 17.3697 20.8333C18.5582 20.8333 19.6124 20.4083 20.4207 19.601C21.3593 18.6667 21.8749 17.324 21.8749 15.8208V8.66666C21.8749 5.75729 19.9728 3.64583 17.353 3.64583ZM18.9947 8.46749C19.2666 8.80187 19.2155 9.29354 18.8811 9.56645L14.252 13.329C13.6666 13.7935 12.9666 14.0258 12.2676 14.0258C11.5707 14.0258 10.8759 13.7956 10.2947 13.3352L5.62281 9.56854C5.28636 9.2977 5.23427 8.80499 5.50406 8.46958C5.77594 8.1352 6.26761 8.08208 6.60302 8.35187L11.2707 12.1144C11.8572 12.579 12.6832 12.579 13.2739 12.1102L17.8947 8.35395C18.2301 8.07999 18.7218 8.13208 18.9947 8.46749Z" fill="url(#paint0_linear_118_144)"/>
<defs>
<linearGradient id="paint0_linear_118_144" x1="22.4236" y1="1.5146" x2="4.96923" y2="25.057" gradientUnits="userSpaceOnUse">
<stop offset="0.09375" stop-color="white"/>
<stop offset="1" stop-color="white" stop-opacity="0.2"/>
</linearGradient>
</defs>
</svg>
