<svg width="32" height="32" viewBox="0 0 32 32" fill="none" xmlns="http://www.w3.org/2000/svg">
<rect width="32" height="32" rx="16" fill="#3988FF"/>
<path d="M7.8222 21.5174V10.8359C7.8222 10.758 7.85751 10.7189 7.9279 10.7189C8.11536 10.7189 8.33829 10.7161 8.59668 10.7105C8.85477 10.705 9.13352 10.6995 9.43295 10.6939C9.73215 10.6884 10.049 10.6828 10.3835 10.6771C10.718 10.6716 11.0495 10.6688 11.378 10.6687C12.1427 10.6501 12.905 10.7576 13.631 10.9864C14.1816 11.1633 14.6838 11.4545 15.101 11.8389C15.4546 12.1721 15.7279 12.5741 15.902 13.0173C16.0665 13.4487 16.1498 13.9042 16.1482 14.3629C16.1815 15.1452 15.9535 15.9175 15.4968 16.5694C15.0599 17.1512 14.4456 17.5917 13.7367 17.8314C12.9467 18.1016 12.1119 18.2347 11.2723 18.2243C11.014 18.2243 10.8322 18.2215 10.7269 18.2159C10.6212 18.2104 10.4627 18.2076 10.2516 18.2076V21.5006C10.2546 21.521 10.2526 21.5419 10.2458 21.5614C10.2389 21.581 10.2273 21.5988 10.2119 21.6134C10.1966 21.628 10.1778 21.639 10.1572 21.6455C10.1366 21.6521 10.1147 21.654 10.0932 21.651H7.94556C7.86332 21.651 7.8222 21.6065 7.8222 21.5174ZM10.2516 12.7248V16.1849C10.404 16.1962 10.5447 16.2017 10.6739 16.2017H11.2546C11.6807 16.2076 12.1052 16.1513 12.5132 16.0346C12.8621 15.9362 13.1738 15.7447 13.4113 15.4829C13.657 15.1769 13.7788 14.7972 13.7544 14.4131C13.7637 14.0898 13.6751 13.7707 13.4991 13.4938C13.3141 13.226 13.0468 13.0188 12.7335 12.9004C12.3243 12.7493 11.8872 12.6782 11.4484 12.6913C11.1668 12.6913 10.9175 12.6941 10.7004 12.6997C10.483 12.7055 10.3333 12.7138 10.2516 12.7248Z" fill="#BBD6FF"/>
<path d="M23.0004 15.5163C22.592 15.3568 22.1669 15.2391 21.7322 15.1653C21.331 15.0778 20.9207 15.033 20.509 15.0315C20.2862 15.0258 20.0638 15.0512 19.8488 15.1067C19.7119 15.1357 19.5903 15.2097 19.5054 15.3158C19.4482 15.4005 19.4177 15.4992 19.4176 15.5999C19.4208 15.6976 19.4579 15.7917 19.5231 15.8674C19.626 15.9816 19.7517 16.0753 19.8929 16.1432C20.1439 16.2716 20.4025 16.3859 20.6674 16.4858C21.2581 16.6737 21.8226 16.9291 22.3483 17.2464C22.7065 17.4611 23.0028 17.7569 23.2108 18.1073C23.3857 18.439 23.4733 18.8061 23.4661 19.1771C23.4767 19.6669 23.3293 20.1481 23.0436 20.5561C22.7379 20.9704 22.3133 21.2924 21.8203 21.4838C21.1914 21.7235 20.5173 21.8373 19.84 21.8182C19.3406 21.823 18.8421 21.7782 18.3526 21.6845C17.9443 21.6163 17.5456 21.5041 17.1641 21.3501C17.1256 21.3313 17.0936 21.3024 17.0718 21.2668C17.05 21.2313 17.0393 21.1906 17.041 21.1495V19.3443C17.0389 19.3266 17.0419 19.3087 17.0497 19.2925C17.0574 19.2763 17.0697 19.2624 17.0851 19.2523C17.1002 19.2442 17.1176 19.2407 17.1348 19.2422C17.1521 19.2437 17.1685 19.2501 17.1818 19.2607C17.6278 19.4969 18.1085 19.6687 18.6079 19.7705C19.0283 19.8706 19.4595 19.9239 19.8929 19.9293C20.2033 19.9476 20.5139 19.8961 20.7993 19.7788C20.8868 19.7408 20.9608 19.6796 21.0124 19.6024C21.0639 19.5253 21.0908 19.4356 21.0897 19.3443C21.0823 19.2601 21.0546 19.1787 21.0089 19.1062C20.9631 19.0338 20.9005 18.9723 20.8258 18.9264C20.4928 18.7191 20.1315 18.556 19.7519 18.4416C19.1992 18.2589 18.6752 18.0059 18.1941 17.6894C17.85 17.4623 17.5667 17.1617 17.3669 16.8119C17.1936 16.4825 17.106 16.1185 17.1114 15.7504C17.1105 15.3081 17.2385 14.8742 17.4812 14.4967C17.7579 14.081 18.1553 13.7501 18.6255 13.5438C19.1714 13.2604 19.7848 13.1151 20.4068 13.1217C20.9015 13.0971 21.3974 13.104 21.8912 13.1421C22.2928 13.2198 22.6831 13.3434 23.0534 13.5104C23.0773 13.5169 23.0993 13.5286 23.1176 13.5446C23.1359 13.5605 23.15 13.5803 23.1589 13.6024C23.1708 13.6432 23.1767 13.6854 23.1765 13.7277V15.416C23.1777 15.4357 23.1735 15.4552 23.1642 15.4728C23.155 15.4904 23.141 15.5054 23.1238 15.5163C23.1053 15.5274 23.0839 15.5332 23.0621 15.5332C23.0403 15.5332 23.0189 15.5274 23.0004 15.5163Z" fill="#BBD6FF"/>
</svg>
