<svg width="32" height="32" viewBox="0 0 32 32" fill="none" xmlns="http://www.w3.org/2000/svg">
<rect width="32" height="32" rx="16" fill="#3DB9FF"/>
<path d="M17.0981 16.2127C17.0981 16.5992 16.9446 16.9698 16.6714 17.2431C16.3982 17.5165 16.0276 17.6701 15.6412 17.6703C15.2546 17.6703 14.8839 17.5167 14.6105 17.2434C14.3372 16.97 14.1836 16.5993 14.1836 16.2127C14.1836 15.8263 14.3371 15.4557 14.6103 15.1823C14.8835 14.909 15.2541 14.7554 15.6405 14.7552C16.0271 14.7552 16.3978 14.9088 16.6712 15.1821C16.9445 15.4554 17.0981 15.8262 17.0981 16.2127ZM18.8242 9.24445C17.9468 9.24445 16.7989 9.87022 15.6379 10.9536C14.4776 9.87609 13.329 9.25748 12.4523 9.25748C12.185 9.25748 11.9419 9.31811 11.7314 9.4387C10.8351 9.95562 10.6343 11.5663 11.0971 13.5877C9.11287 14.2005 7.8222 15.1802 7.8222 16.2127C7.8222 17.2492 9.11939 18.2315 11.1095 18.8397C10.6506 20.8689 10.8553 22.4823 11.7535 22.9985C11.9621 23.1204 12.2033 23.1778 12.4719 23.1778C13.3486 23.1778 14.4972 22.552 15.6581 21.4673C16.8184 22.5455 17.967 23.1641 18.8437 23.1641C19.111 23.1641 19.3541 23.1054 19.5647 22.9848C20.4603 22.4686 20.6617 20.8578 20.1989 18.8358C22.176 18.2283 23.4666 17.2466 23.4666 16.2127C23.4666 15.1763 22.1695 14.194 20.1794 13.5845C20.6383 11.5572 20.4336 9.94258 19.5353 9.42566C19.328 9.30572 19.0869 9.2451 18.8235 9.24445H18.8242ZM18.8209 9.95496V9.95888C18.9676 9.95888 19.0856 9.98756 19.1846 10.0417C19.6188 10.2907 19.8072 11.2378 19.6605 12.4561C19.6253 12.756 19.5679 13.0721 19.4975 13.3948C18.8717 13.2409 18.1899 13.123 17.4722 13.0467C17.042 12.4568 16.5955 11.9209 16.1457 11.4516C17.1834 10.4869 18.158 9.95757 18.8216 9.95562L18.8209 9.95496ZM12.4523 9.968C13.112 9.968 14.0911 10.4947 15.1314 11.4542C14.6842 11.9236 14.2384 12.4561 13.8147 13.046C13.0931 13.1223 12.4106 13.2403 11.7855 13.3967C11.7125 13.0773 11.6584 12.7684 11.6199 12.4711C11.47 11.2535 11.6551 10.307 12.0853 10.0547C12.2092 9.99603 12.3461 9.97191 12.4523 9.96865V9.968ZM15.6346 11.9561C15.9312 12.2612 16.2278 12.6028 16.5212 12.9756C16.2344 12.9626 15.941 12.9535 15.6444 12.9535C15.3446 12.9535 15.048 12.96 14.7579 12.9756C15.0447 12.6028 15.3413 12.2612 15.6346 11.9555V11.9561ZM15.6444 13.6679C16.1268 13.6679 16.6072 13.6901 17.0798 13.7285C17.3445 14.1079 17.6026 14.5127 17.8509 14.941C18.0934 15.3582 18.3138 15.7819 18.5145 16.2095C18.3138 16.6364 18.0934 17.0634 17.8542 17.4806C17.6065 17.9108 17.3503 18.3202 17.085 18.6996C16.6105 18.7406 16.1294 18.7634 15.6444 18.7634C15.1621 18.7634 14.6816 18.7406 14.209 18.7028C13.9444 18.3234 13.6863 17.918 13.4379 17.4904C13.1954 17.0732 12.9751 16.6495 12.7743 16.2219C12.9718 15.7936 13.1954 15.366 13.4346 14.9481C13.6824 14.5179 13.9385 14.1099 14.2038 13.7305C14.6784 13.6888 15.1594 13.6666 15.6444 13.6666V13.6679ZM13.2749 13.8335C13.1185 14.0792 12.9621 14.3308 12.816 14.5896C12.6694 14.8439 12.5325 15.0994 12.4021 15.3549C12.2294 14.9273 12.0827 14.501 11.9615 14.0857C12.3786 13.988 12.8186 13.9013 13.2749 13.8341V13.8335ZM18.0074 13.8335C18.4604 13.9006 18.8972 13.9834 19.315 14.0857C19.1977 14.4977 19.051 14.9214 18.8848 15.3458C18.7544 15.0916 18.6175 14.8354 18.4676 14.5805C18.3209 14.325 18.1645 14.076 18.008 13.8335H18.0074ZM20.004 14.2735C20.3195 14.3713 20.6194 14.4801 20.9003 14.5981C22.0293 15.0805 22.7594 15.7115 22.7594 16.2121C22.7561 16.7127 22.0261 17.3463 20.897 17.8254C20.6233 17.9428 20.3234 18.0484 20.0138 18.1468C19.8313 17.5223 19.5927 16.8718 19.2968 16.2043C19.5901 15.5413 19.8248 14.894 20.004 14.2722V14.2735ZM11.2725 14.2761C11.4537 14.9019 11.6929 15.5518 11.9895 16.2186C11.6962 16.8815 11.4602 17.5288 11.2816 18.1507C10.9661 18.0529 10.6662 17.9434 10.3885 17.8248C9.25954 17.3444 8.52946 16.7127 8.52946 16.2121C8.52946 15.7115 9.25954 15.0766 10.3885 14.5981C10.6623 14.4808 10.9622 14.3752 11.2725 14.2761ZM18.8848 17.066C19.0575 17.4943 19.2042 17.9212 19.3254 18.3358C18.9082 18.4382 18.4676 18.5249 18.0113 18.59C18.1677 18.3456 18.3242 18.0933 18.4709 17.8352C18.6175 17.581 18.7544 17.3215 18.8854 17.066H18.8848ZM12.4021 17.0791C12.5325 17.3346 12.6694 17.5895 12.8193 17.845C12.9692 18.0992 13.1224 18.3482 13.2789 18.59C12.8258 18.5236 12.3891 18.4401 11.9712 18.3384C12.0886 17.9278 12.2359 17.5028 12.4015 17.0784L12.4021 17.0791ZM19.5034 19.0261C19.5764 19.3475 19.6338 19.6571 19.669 19.9537C19.8189 21.1714 19.6338 22.1179 19.2035 22.3708C19.1077 22.4295 18.9832 22.4542 18.8365 22.4542C18.1769 22.4542 17.1978 21.9282 16.1574 20.968C16.6046 20.4987 17.0505 19.9668 17.4742 19.3775C18.1958 19.3006 18.8783 19.1819 19.5034 19.0255V19.0261ZM11.792 19.0327C12.4178 19.1852 13.0996 19.3032 13.8173 19.3794C14.2475 19.9694 14.694 20.5052 15.1438 20.9739C14.1041 21.9406 13.1283 22.4699 12.4647 22.4699C12.3213 22.4666 12.2 22.4373 12.1042 22.3838C11.6701 22.1361 11.4817 21.1883 11.6284 19.97C11.6636 19.6702 11.7209 19.3547 11.7913 19.0327H11.792ZM14.7644 19.4498C15.0512 19.4629 15.3446 19.472 15.6412 19.472C15.941 19.472 16.2376 19.4655 16.5277 19.4498C16.2409 19.8227 15.9443 20.1636 15.6509 20.47C15.3544 20.1636 15.0578 19.8227 14.7644 19.4498Z" fill="#CEEDFF"/>
</svg>
