<svg width="32" height="32" viewBox="0 0 32 32" fill="none" xmlns="http://www.w3.org/2000/svg">
<rect width="32" height="32" rx="16" fill="#3988FF"/>
<g clip-path="url(#clip0_112_339)">
<path d="M16.3563 10.9511C14.2704 10.9511 12.9667 11.9941 12.4452 14.08C13.2275 13.037 14.14 12.6459 15.183 12.9067C15.7781 13.0553 16.2032 13.4868 16.6744 13.9653C17.4417 14.7436 18.3288 15.6444 20.2674 15.6444C22.3534 15.6444 23.6571 14.6015 24.1786 12.5156C23.3963 13.5585 22.4837 13.9496 21.4408 13.6889C20.8456 13.5403 20.4206 13.1087 19.9493 12.6303C19.1828 11.852 18.2956 10.9511 16.3563 10.9511ZM12.4452 15.6444C10.3593 15.6444 9.0556 16.6874 8.53412 18.7733C9.31634 17.7304 10.2289 17.3393 11.2719 17.6C11.867 17.7486 12.292 18.1801 12.7633 18.6586C13.5306 19.4369 14.4177 20.3378 16.3563 20.3378C18.4423 20.3378 19.746 19.2948 20.2674 17.2089C19.4852 18.2518 18.5726 18.643 17.5297 18.3822C16.9345 18.2336 16.5095 17.8021 16.0382 17.3236C15.2717 16.5453 14.3845 15.6444 12.4452 15.6444Z" fill="#BBD6FF"/>
</g>
<defs>
<clipPath id="clip0_112_339">
<rect width="15.6444" height="15.6444" fill="white" transform="translate(8.53345 7.82222)"/>
</clipPath>
</defs>
</svg>
