<svg width="45" height="45" viewBox="0 0 45 45" fill="none" xmlns="http://www.w3.org/2000/svg">
<rect width="45" height="45" rx="22.5" fill="#7AAFFF" fill-opacity="0.1"/>
<g clip-path="url(#clip0_112_306)">
<path d="M23.001 15.4C20.0676 15.4 18.2343 16.8667 17.501 19.8C18.601 18.3333 19.8843 17.7833 21.351 18.15C22.1879 18.359 22.7856 18.9658 23.4483 19.6387C24.5272 20.7332 25.7748 22 28.501 22C31.4343 22 33.2676 20.5333 34.001 17.6C32.901 19.0667 31.6176 19.6167 30.151 19.25C29.3141 19.041 28.7164 18.4342 28.0536 17.7613C26.9756 16.6668 25.7281 15.4 23.001 15.4ZM17.501 22C14.5676 22 12.7343 23.4667 12.001 26.4C13.101 24.9333 14.3843 24.3833 15.851 24.75C16.6879 24.959 17.2856 25.5658 17.9483 26.2387C19.0272 27.3332 20.2748 28.6 23.001 28.6C25.9343 28.6 27.7676 27.1333 28.501 24.2C27.401 25.6667 26.1176 26.2167 24.651 25.85C23.8141 25.641 23.2164 25.0342 22.5536 24.3613C21.4756 23.2668 20.2281 22 17.501 22Z" fill="#8AB9FF"/>
</g>
<defs>
<clipPath id="clip0_112_306">
<rect width="22" height="22" fill="white" transform="translate(12 11)"/>
</clipPath>
</defs>
</svg>
