<svg width="25" height="25" viewBox="0 0 25 25" fill="none" xmlns="http://www.w3.org/2000/svg">
<path d="M12.5 0L6.05209 3.72187V7.44479L12.499 3.72187L18.9479 7.44479V3.72187L12.5 0ZM6.05209 10.5708V19.0542C6.05209 20.9812 6.66564 22.4323 7.86564 23.4646C9.06563 24.4969 10.6011 25 12.4719 25C14.3427 25 15.8771 24.4979 17.1052 23.4646C18.3333 22.4323 18.9469 20.924 18.9469 18.9708V10.5708H15.5698V18.7479C15.5698 20.8687 13.9979 21.9302 12.499 21.9302C11.0115 21.9302 9.42918 20.8979 9.42918 18.7771V10.5708H6.05209Z" fill="url(#paint0_linear_118_176)"/>
<defs>
<linearGradient id="paint0_linear_118_176" x1="18.3642" y1="-0.699977" x2="-1.90103" y2="12.0881" gradientUnits="userSpaceOnUse">
<stop offset="0.09375" stop-color="white"/>
<stop offset="1" stop-color="white" stop-opacity="0.2"/>
</linearGradient>
</defs>
</svg>
