<svg width="25" height="25" viewBox="0 0 25 25" fill="none" xmlns="http://www.w3.org/2000/svg">
<path fill-rule="evenodd" clip-rule="evenodd" d="M7.6786 4.03053L7.67879 4.03018C8.43674 2.65649 10.4202 2.65661 11.1779 4.03053L11.178 4.03057L13.4589 8.16535L13.4592 8.16599L14.5525 10.1548V10.1548L14.5526 10.1549L15.8859 12.5819L15.8859 12.5819L15.886 12.5821C15.886 12.5821 15.886 12.5821 15.886 12.5821C16.3591 13.4422 16.1244 14.4243 15.4904 15.0123C15.1424 15.335 14.6742 15.5391 14.1366 15.5391H9.54285C9.54171 15.5391 9.54058 15.5391 9.53944 15.5391H4.73035C3.21341 15.5391 2.24825 13.9143 2.98096 12.5821L2.98105 12.582L5.40813 8.16528L5.40821 8.16514L7.6786 4.03053ZM9.02206 16.5391H4.73035C2.45569 16.5391 1.0042 14.1015 2.10465 12.1004L2.10474 12.1002L4.53166 7.68382L4.53174 7.68368L6.8025 3.5484L6.80294 3.54759C7.94097 1.48413 10.9156 1.48413 12.0536 3.54759L14.3348 7.68297L14.3352 7.68361L15.2575 9.36132C15.5952 9.31299 15.9418 9.28906 16.2929 9.28906C20.3086 9.28906 23.5637 12.5442 23.5637 16.5599C23.5637 20.5756 20.3086 23.8307 16.2929 23.8307C12.2771 23.8307 9.02202 20.5756 9.02202 16.5599C9.02202 16.5529 9.02203 16.546 9.02206 16.5391ZM10.0221 16.5391L10.022 16.5599C10.022 20.0233 12.8294 22.8307 16.2929 22.8307C19.7563 22.8307 22.5637 20.0233 22.5637 16.5599C22.5637 13.0965 19.7563 10.2891 16.2929 10.2891C16.1189 10.2891 15.9472 10.2958 15.7783 10.3092L16.7622 12.1002L16.7623 12.1004C16.7623 12.1004 16.7623 12.1004 16.7623 12.1004C17.4286 13.312 17.1594 14.6835 16.3384 15.5772C15.8034 16.1596 15.0341 16.5391 14.1366 16.5391H10.0221Z" fill="url(#paint0_linear_121_217)"/>
<defs>
<linearGradient id="paint0_linear_121_217" x1="22.5753" y1="1.38876" x2="3.36263" y2="24.8962" gradientUnits="userSpaceOnUse">
<stop offset="0.09375" stop-color="white"/>
<stop offset="1" stop-color="white" stop-opacity="0.2"/>
</linearGradient>
</defs>
</svg>
