<svg width="32" height="32" viewBox="0 0 32 32" fill="none" xmlns="http://www.w3.org/2000/svg">
<rect width="32" height="32" rx="16" fill="#2ED18D"/>
<path fill-rule="evenodd" clip-rule="evenodd" d="M7.82295 9.41351C7.9871 9.83823 15.5575 22.5873 15.6445 22.5858C15.7299 22.5844 23.2926 9.84314 23.466 9.4084C23.5021 9.31828 22.1608 9.24445 20.4853 9.24445H17.4392L16.6262 10.7171C16.1791 11.5271 15.7373 12.1898 15.6445 12.1898C15.5516 12.1898 15.1098 11.5271 14.6627 10.7171L13.8497 9.24445H10.8037C9.12814 9.24445 7.78682 9.32063 7.82295 9.41351ZM13.8203 13.368C14.7127 14.9339 15.5337 16.2151 15.6445 16.2151C15.7552 16.2151 16.5762 14.9339 17.4686 13.368L19.0915 10.5208L20.2151 10.4619C20.8332 10.4295 21.3388 10.4568 21.3388 10.5225C21.3388 10.7741 15.7949 20.0441 15.6445 20.0441C15.494 20.0441 9.95009 10.7741 9.95009 10.5225C9.95009 10.4568 10.4557 10.4295 11.0738 10.4619L12.1974 10.5208L13.8203 13.368Z" fill="#D0FFE0"/>
</svg>
