<svg width="45" height="45" viewBox="0 0 45 45" fill="none" xmlns="http://www.w3.org/2000/svg">
<rect width="45" height="45" rx="22.5" fill="#31E69B" fill-opacity="0.1"/>
<path fill-rule="evenodd" clip-rule="evenodd" d="M11.001 13.2377C11.2318 13.835 21.8777 31.7634 22 31.7612C22.1201 31.7593 32.7552 13.8419 32.999 13.2306C33.0498 13.1038 31.1636 13 28.8074 13H24.5238L23.3806 15.071C22.7519 16.21 22.1306 17.1419 22 17.1419C21.8694 17.1419 21.2481 16.21 20.6194 15.071L19.4762 13H15.1926C12.8364 13 10.9502 13.1071 11.001 13.2377ZM19.4348 18.7987C20.6898 21.0008 21.8443 22.8025 22 22.8025C22.1557 22.8025 23.3102 21.0008 24.5652 18.7987L26.8474 14.7948L28.4274 14.712C29.2967 14.6664 30.0077 14.7048 30.0077 14.7973C30.0077 15.151 22.2115 28.187 22 28.187C21.7885 28.187 13.9923 15.151 13.9923 14.7973C13.9923 14.7048 14.7033 14.6664 15.5726 14.712L17.1526 14.7948L19.4348 18.7987Z" fill="#A7FFDA"/>
</svg>
