<svg width="32" height="32" viewBox="0 0 32 32" fill="none" xmlns="http://www.w3.org/2000/svg">
<rect width="32" height="32" rx="16" fill="#3662FF"/>
<path d="M22.5281 12.2711C23.0756 13.273 23.3872 14.4222 23.3872 15.6444C23.3872 18.2382 21.9818 20.5046 19.8913 21.723L22.0392 15.5128C22.4401 14.5089 22.5737 13.7065 22.5737 12.994C22.5737 12.73 22.5567 12.4856 22.5281 12.2705V12.2711ZM17.3256 12.3389C17.7474 12.3193 18.1287 12.2705 18.1287 12.2705C18.5081 12.2216 18.4638 11.6642 18.085 11.6844C18.085 11.6844 16.941 11.7724 16.2077 11.7724C15.5141 11.7724 14.3499 11.6747 14.3499 11.6747C13.9686 11.6551 13.919 12.232 14.301 12.2516C14.301 12.2516 14.653 12.2913 15.0344 12.3102L16.1295 15.312L14.5846 19.9271L12.0235 12.32C12.4465 12.3004 12.8278 12.2548 12.8278 12.2548C13.2092 12.2059 13.1642 11.6486 12.7855 11.6708C12.7855 11.6708 11.6473 11.7607 10.9121 11.7607C10.7817 11.7607 10.6265 11.7555 10.4623 11.7509C11.7347 9.87555 13.9014 8.61422 16.3557 8.61422C18.1867 8.61422 19.8529 9.313 21.1051 10.4609C21.0751 10.459 21.0457 10.455 21.0132 10.455C20.3222 10.455 19.832 11.0567 19.832 11.7027C19.832 12.2828 20.1664 12.7737 20.523 13.3525C20.7909 13.8219 21.1031 14.4235 21.1031 15.2931C21.1031 15.8895 20.8724 16.5929 20.5679 17.5609L19.8672 19.8978L17.325 12.3298L17.3256 12.3389ZM16.3557 22.674C15.6654 22.674 14.9992 22.5743 14.3688 22.3892L16.4789 16.2578L18.6398 22.1812C18.6554 22.2158 18.6724 22.247 18.6906 22.2783C17.9605 22.5345 17.175 22.6753 16.3557 22.6753V22.674ZM9.32284 15.6444C9.32284 14.6249 9.54186 13.6563 9.93232 12.7828L13.2854 21.9733C10.9414 20.8332 9.32349 18.4285 9.32284 15.6444ZM16.3557 7.82222C12.0437 7.82222 8.53345 11.3324 8.53345 15.6444C8.53345 19.9564 12.0437 23.4667 16.3557 23.4667C20.6677 23.4667 24.1779 19.9564 24.1779 15.6444C24.1779 11.3324 20.6677 7.82222 16.3557 7.82222Z" fill="#C6D2FF"/>
</svg>
